<svg width="14" height="14" viewBox="0 0 14 14" fill="none" xmlns="http://www.w3.org/2000/svg">
<path d="M0.71934 0.719997C0.859965 0.579546 1.05059 0.500657 1.24934 0.500657C1.44809 0.500657 1.63871 0.579546 1.77934 0.719997L6.99934 5.94L12.2193 0.719997C12.311 0.621272 12.4276 0.549101 12.5569 0.511087C12.6861 0.473073 12.8232 0.470623 12.9537 0.503996C13.0843 0.53737 13.2034 0.60533 13.2985 0.700717C13.3937 0.796105 13.4613 0.915387 13.4943 1.046C13.5278 1.17637 13.5254 1.31335 13.4876 1.44251C13.4498 1.57167 13.3778 1.68826 13.2793 1.78L8.05934 7L13.2793 12.22C13.3781 12.3117 13.4502 12.4283 13.4883 12.5575C13.5263 12.6868 13.5287 12.8239 13.4953 12.9544C13.462 13.0849 13.394 13.204 13.2986 13.2992C13.2032 13.3943 13.084 13.462 12.9533 13.495C12.823 13.5284 12.686 13.5261 12.5568 13.4882C12.4277 13.4504 12.3111 13.3785 12.2193 13.28L6.99934 8.06L1.77934 13.28C1.63708 13.4124 1.44903 13.4845 1.25471 13.4812C1.06039 13.4778 0.874943 13.3992 0.73734 13.262C0.600097 13.1244 0.521541 12.9389 0.518185 12.7446C0.514828 12.5503 0.586931 12.3623 0.71934 12.22L5.93934 7L0.71934 1.78C0.578889 1.63937 0.5 1.44875 0.5 1.25C0.5 1.05125 0.578889 0.860622 0.71934 0.719997Z" fill="#1C59A6"/>
</svg>
