<svg width="32" height="32" viewBox="0 0 32 32" fill="none" xmlns="http://www.w3.org/2000/svg">
<path d="M21.333 9.33333C21.333 8.97971 21.4735 8.64057 21.7235 8.39052C21.9736 8.14048 22.3127 8 22.6663 8C23.02 8 23.3591 8.14048 23.6092 8.39052C23.8592 8.64057 23.9997 8.97971 23.9997 9.33333C23.9997 9.68696 23.8592 10.0261 23.6092 10.2761C23.3591 10.5262 23.02 10.6667 22.6663 10.6667C22.3127 10.6667 21.9736 10.5262 21.7235 10.2761C21.4735 10.0261 21.333 9.68696 21.333 9.33333Z" fill="#1C59A6"/>
<path fill-rule="evenodd" clip-rule="evenodd" d="M16.0003 9.66666C14.3206 9.66666 12.7097 10.3339 11.522 11.5216C10.3343 12.7094 9.66699 14.3203 9.66699 16C9.66699 17.6797 10.3343 19.2906 11.522 20.4783C12.7097 21.6661 14.3206 22.3333 16.0003 22.3333C17.68 22.3333 19.2909 21.6661 20.4787 20.4783C21.6664 19.2906 22.3337 17.6797 22.3337 16C22.3337 14.3203 21.6664 12.7094 20.4787 11.5216C19.2909 10.3339 17.68 9.66666 16.0003 9.66666ZM11.667 16C11.667 14.8507 12.1235 13.7485 12.9362 12.9359C13.7489 12.1232 14.8511 11.6667 16.0003 11.6667C17.1496 11.6667 18.2518 12.1232 19.0645 12.9359C19.8771 13.7485 20.3337 14.8507 20.3337 16C20.3337 17.1493 19.8771 18.2515 19.0645 19.0641C18.2518 19.8768 17.1496 20.3333 16.0003 20.3333C14.8511 20.3333 13.7489 19.8768 12.9362 19.0641C12.1235 18.2515 11.667 17.1493 11.667 16Z" fill="#1C59A6"/>
<path fill-rule="evenodd" clip-rule="evenodd" d="M23.0111 3.77733C18.3516 3.26079 13.6492 3.26079 8.98973 3.77733C6.30707 4.07733 4.1404 6.19066 3.82573 8.88666C3.27293 13.6128 3.27293 18.3872 3.82573 23.1133C4.1404 25.8093 6.30573 27.9227 8.98973 28.2227C13.6493 28.7387 18.3515 28.7387 23.0111 28.2227C25.6937 27.9227 27.8604 25.8093 28.1751 23.1133C28.728 18.3872 28.728 13.6128 28.1751 8.88666C27.8604 6.19066 25.6951 4.07733 23.0111 3.77733ZM9.21107 5.76399C13.7235 5.26382 18.2773 5.26382 22.7897 5.76399C24.5631 5.96399 25.9831 7.36266 26.1897 9.11999C26.7243 13.6911 26.7243 18.3089 26.1897 22.88C26.0828 23.74 25.6891 24.539 25.0722 25.1477C24.4553 25.7564 23.6511 26.1393 22.7897 26.2347C18.2773 26.7349 13.7235 26.7349 9.21107 26.2347C8.34965 26.1393 7.54554 25.7564 6.92861 25.1477C6.31168 24.539 5.91796 23.74 5.81107 22.88C5.27646 18.3089 5.27646 13.6911 5.81107 9.11999C5.91796 8.25994 6.31168 7.46103 6.92861 6.85233C7.54554 6.24363 8.34965 5.85934 9.21107 5.76399Z" fill="#1C59A6"/>
</svg>
