<svg width="95" height="27" viewBox="0 0 95 27" fill="none" xmlns="http://www.w3.org/2000/svg">
<path d="M76.6691 12.1306C75.5793 12.5876 74.4153 12.9431 73.3294 13.2165C80.0166 8.45888 84.329 3.35358 84.329 3.35358L84.1649 3.24421C80.0987 7.63077 76.1574 10.9197 72.6927 13.365C70.556 13.861 68.853 14.0329 68.853 14.0329C68.853 14.0329 60.8454 13.8142 59.6189 13.8688C58.3924 13.9235 56.1307 14.3298 56.1307 14.3298C56.1307 14.3298 58.0916 15.0641 62.154 15.693C66.2124 16.318 69.1264 14.3571 69.1264 14.3571C64.7164 16.0485 62.8883 15.5836 62.3415 15.5016C61.7985 15.4196 57.4901 14.4391 57.4901 14.4391C61.361 13.7321 66.5874 14.6071 69.3373 14.1696C69.7748 14.0993 70.1888 14.0329 70.5795 13.9626C67.2514 15.8883 66.3257 15.9781 63.4274 16.5641C61.5407 16.9469 57.869 17.0406 55.4433 17.0601C55.0917 16.9586 54.3613 16.6578 53.209 15.7477C51.5176 14.4118 48.7404 14.1384 48.7404 14.1384C48.7404 14.1384 47.7052 14.111 46.2873 13.24C44.8733 12.3689 41.3266 12.4783 41.3266 12.4783C41.3266 12.4783 44.3538 12.7204 45.1702 13.1032C45.9866 13.486 47.2678 14.2751 47.6467 14.3298C47.9005 14.3649 48.6388 14.9977 49.3732 15.5368C49.2208 15.4899 49.0529 15.4469 48.8732 15.4039C47.0568 14.0173 45.4202 14.6423 44.3538 14.5055C43.2757 14.3688 40.8383 14.3259 40.8383 14.3259C43.8772 14.4352 45.1428 15.1969 46.5061 16.0016C46.7873 16.1695 47.0646 16.2984 47.3263 16.4078C47.0295 16.3688 46.7287 16.3609 46.4279 16.3805C45.4553 15.4157 42.889 15.1501 40.4282 15.3102C38.0962 15.4625 33.9206 14.1188 33.444 13.9665C34.6705 14.4899 37.5884 15.3961 39.229 15.6383C40.7563 15.861 42.7562 17.1148 43.0765 17.3218C42.6156 17.5406 42.3343 17.7086 42.3343 17.7086L41.0258 17.9507C40.3422 18.0914 39.7368 18.271 39.2094 18.4663C35.4439 18.6929 26.8388 15.9586 25.2529 14.1931C25.2529 14.1931 31.7058 14.4079 35.2096 15.0485C34.6471 14.9235 30.8308 14.1227 26.1513 13.947C26.1513 13.947 24.7334 13.7829 23.9443 13.5095C23.9443 13.5095 25.8544 15.2829 27.9247 16.0992C29.6746 16.7906 33.7604 18.5718 38.6704 18.6773C37.3501 19.2358 36.6275 19.8335 36.5416 19.9077C37.3189 19.3687 38.2251 18.9663 39.1157 18.6812C39.8735 18.6812 40.6508 18.6421 41.4359 18.5523C41.4359 18.5523 42.8929 18.5015 45.0217 19.3608C44.5882 19.6772 44.2522 19.9233 44.0804 19.9975C43.4241 20.2827 39.4477 20.5835 39.4477 20.5835C39.4477 20.5835 43.1546 20.4467 45.2522 20.2163C46.8342 20.0444 47.8966 19.5718 48.3224 19.353C48.2443 19.439 48.174 19.5093 48.1115 19.564C47.7287 19.8999 46.2795 20.8842 45.7795 21.2162C46.135 20.9858 47.0373 20.4428 48.3849 19.853C53.873 21.5405 59.8533 19.9741 59.8533 19.9741C53.0176 20.8061 49.3341 19.8179 48.8263 19.6655C49.2208 19.5054 49.6427 19.3413 50.0997 19.1851C50.3419 19.0991 50.5645 19.0171 50.7676 18.9351C56.2792 20.6499 59.3611 19.814 59.3611 19.814C55.0683 20.0249 51.8262 19.064 51.0606 18.8101C52.9043 17.9937 52.8223 17.3336 52.8223 17.3336C52.8223 17.3336 53.7207 17.2515 60.5876 17.1148C66.5913 16.9976 70.2631 14.4977 71.0873 13.8767C71.5169 13.7985 71.9153 13.7204 72.2942 13.6423C67.0679 17.2711 62.9782 18.9663 61.2673 19.5796C62.8844 19.0327 64.4508 18.3726 65.9546 17.6382C64.1266 18.7632 61.611 20.5561 60.6423 21.7748C59.3025 23.4662 55.6386 26.6848 55.5253 26.7825C59.9392 24.9856 64.107 21.3373 65.0562 19.9468C65.814 18.8452 67.4585 17.1656 68.1069 16.5133C69.8061 15.5719 71.4115 14.5524 72.9036 13.5095C76.4972 12.7048 77.8292 11.8572 80.9697 10.5447C84.7001 8.9862 93.4732 1.59973 94.5396 0.693512C83.7782 9.51743 80.1651 10.658 76.6652 12.1267L76.6691 12.1306ZM46.9318 15.9196C46.4006 15.4938 44.846 14.8024 44.846 14.8024C44.846 14.8024 45.2952 14.736 46.4553 14.736C47.6154 14.736 48.5646 15.318 48.6544 15.3688C47.467 15.1422 45.967 15.0836 45.967 15.0836C45.967 15.0836 47.2013 15.3922 48.5646 16.5523C48.6036 16.5875 48.6466 16.6187 48.6896 16.6539C48.3185 16.5484 47.3576 16.2555 46.9357 15.9196H46.9318ZM40.3227 15.6149C44.1468 15.1891 45.6545 16.1695 45.9748 16.4273C44.9632 16.5562 43.9983 16.9156 43.3148 17.2203L40.3188 15.6149H40.3227ZM47.8302 16.5992C48.3419 16.7594 48.7638 16.8258 49.0021 16.8531C49.1232 16.9195 49.2521 16.9742 49.3849 17.0289C48.5958 17.0953 47.6115 17.6109 46.7014 18.1968C45.51 18.3609 42.6937 17.7984 42.6937 17.7984C45.2327 16.4508 47.2131 16.5289 47.8302 16.5992ZM40.4594 18.3374C41.5062 18.1187 42.3734 18.0757 42.7249 18.1499C43.3655 18.2906 45.6311 18.4077 46.3303 18.4429C45.8616 18.7593 45.4202 19.0835 45.0491 19.353C44.7092 19.1187 43.0921 18.1265 40.4633 18.3374H40.4594ZM45.135 19.7983C45.8303 19.0523 46.5373 18.5093 47.1857 18.1187C47.3224 18.0874 47.4201 18.064 47.217 18.0992C48.4318 17.3726 49.4161 17.1656 49.6622 17.1265C50.0763 17.2554 50.5098 17.3258 50.9239 17.3609C50.8575 17.3765 50.7872 17.3922 50.7051 17.4156C50.0919 17.5836 49.4864 18.1265 48.9943 18.6421C47.2287 19.9233 45.1311 19.8022 45.1311 19.8022L45.135 19.7983ZM52.584 17.3609C52.584 17.3609 51.959 18.0679 51.084 18.5054C50.2403 18.9273 48.424 19.6304 48.3107 19.6733C48.381 19.5991 49.2286 18.7241 49.8028 18.1226C50.3028 17.6031 51.0879 17.4312 51.3418 17.3883C51.9082 17.4078 52.3848 17.3726 52.6035 17.3492L52.584 17.3609ZM52.8418 17.2008C51.502 17.3375 49.3692 16.9625 48.9044 16.5328C48.4318 16.0953 47.0881 15.3336 47.0881 15.3336C48.0998 15.3649 49.1935 15.6735 49.8966 15.9117C50.088 16.0328 50.2677 16.1422 50.4278 16.2164C51.2481 16.5914 52.6387 17.0992 52.8691 17.1812L52.8379 17.2008H52.8418ZM53.1074 17.064C52.502 16.8726 50.9551 16.318 49.5099 15.318C48.1466 14.3766 47.8771 14.2009 47.8263 14.1735C47.9669 14.1891 50.4434 14.4665 51.6895 15.1774C52.7558 15.7907 54.2714 16.8141 55.205 17.064C54.0761 17.068 53.2676 17.0601 53.1074 17.0601V17.064ZM61.7673 22.7553C59.8064 24.3919 56.5877 26.1067 56.5877 26.1067C56.5877 26.1067 59.4236 23.4623 61.3845 21.4741C62.9469 19.8921 66.0288 17.7867 67.2202 16.9976C67.4077 16.9 67.5952 16.7984 67.7827 16.6969C66.1499 18.0835 63.4899 21.3178 61.7673 22.7553Z" fill="url(#paint0_linear_2001_216)"/>
<path d="M60.9707 19.6851C60.7832 19.7476 60.5957 19.8101 60.4043 19.8686C60.4043 19.8686 60.5996 19.814 60.9707 19.6851Z" fill="url(#paint1_linear_2001_216)"/>
<path d="M45.7402 21.2514C45.6582 21.3061 45.6113 21.3373 45.6113 21.3373C45.6113 21.3373 45.6621 21.3022 45.7402 21.2514Z" fill="url(#paint2_linear_2001_216)"/>
<path d="M12.7968 13.8845C11.6484 13.1033 10.7461 12.572 10.7461 12.572C10.7461 12.572 11.6562 13.1814 12.7968 13.8845Z" fill="url(#paint3_linear_2001_216)"/>
<path d="M3.51559 11.4041C2.58203 10.9549 2.48047 10.9197 2.48047 10.9197C2.48047 10.9197 2.8867 11.115 3.51559 11.4041Z" fill="url(#paint4_linear_2001_216)"/>
<path d="M1.69916 11.6267C0.832007 11.2518 0.117188 10.9549 0.117188 10.9549C0.117188 10.9549 0.808571 11.2557 1.69916 11.6267Z" fill="url(#paint5_linear_2001_216)"/>
<path d="M18.0932 19.1616C18.0932 19.1616 18.1088 19.1655 18.1166 19.1655C18.1166 19.1655 18.1088 19.1655 18.0932 19.1616ZM18.0932 19.1616C18.0932 19.1616 18.1088 19.1655 18.1166 19.1655C18.1166 19.1655 18.1088 19.1655 18.0932 19.1616ZM18.0932 19.1616C18.0932 19.1616 18.1088 19.1655 18.1166 19.1655C18.1166 19.1655 18.1088 19.1655 18.0932 19.1616ZM48.8656 22.8256C48.0609 22.892 48.6624 22.8529 46.3071 24.2396C43.9478 25.6302 37.9831 25.5638 37.9831 25.5638L42.6041 23.3295C42.6041 23.3295 44.5767 22.6615 45.8891 22.6459C47.1977 22.6342 48.0687 22.6459 48.0687 22.6459C48.0687 22.6459 45.9711 22.3334 44.9087 22.3607C44.1821 22.3764 43.3697 22.6615 42.5416 23.0599C41.1549 23.1888 38.9675 23.2474 36.1902 22.8373C36.1902 22.8373 37.0613 21.6381 35.2645 20.8764C33.4677 20.1108 32.4599 19.9233 31.4521 18.8569C30.4404 17.7945 28.4014 16.7594 25.5109 16.5133C25.5109 16.5133 29.2178 17.0562 30.7685 18.7202C30.7685 18.7202 31.5849 19.4819 31.8583 19.6733L32.4286 20.6264C32.4286 20.6264 32.5185 20.8178 32.6942 21.0952C31.9599 20.3921 30.5264 19.2476 28.4795 18.6538C25.4093 17.7632 26.1007 17.3843 23.6477 16.7281C21.1946 16.0719 20.5775 16.1852 20.5775 16.1852C20.5775 16.1852 24.7726 17.0562 25.3 17.5484C25.8273 18.0367 27.6632 18.7476 27.6632 18.7476C27.6632 18.7476 27.7022 18.814 27.7804 18.9273C26.6866 18.6734 20.0111 17.0523 18.1283 15.1579C18.3158 15.361 19.2181 16.2555 21.3392 17.1695C22.2571 17.5601 22.8626 17.9624 23.3078 18.3531C22.6126 18.0679 20.8665 17.3531 19.6127 16.8414C18.0307 16.193 15.8706 14.5837 14.5933 13.2439C14.8042 13.4782 15.9839 14.8141 17.1401 15.8024C17.476 16.0914 17.7299 16.2828 17.9526 16.4508C17.558 16.2281 17.0737 16.0016 16.5034 15.8219C15.5972 15.5368 14.0582 14.654 12.7965 13.8806C13.3824 14.279 14.0308 14.7477 14.6558 15.2399C13.7652 14.8493 12.0582 14.1266 11.1051 13.8766C10.0271 13.5954 6.69905 11.9314 5.49596 11.3221C6.46468 11.8338 8.79273 13.0798 9.81222 13.7556C8.5232 13.6345 5.21082 12.1736 3.51556 11.3963C3.94133 11.6033 4.54287 11.8962 5.38659 12.3142C6.05844 12.6462 6.55452 12.9275 6.95294 13.1892C6.60139 13.1657 5.91001 13.0837 4.98426 12.8415C4.21866 12.6423 2.80465 12.0837 1.69531 11.6228C2.96871 12.1697 4.56631 12.8923 4.73036 13.0954C4.95301 13.3767 6.26547 14.6852 7.117 15.1461C5.74986 15.1188 3.58587 14.3805 3.05073 14.193C3.539 14.3884 5.42956 15.1149 6.6717 15.3649C6.6717 15.3649 7.26934 15.525 8.03494 16.3063C8.66773 16.9586 9.92941 17.6539 11.0036 17.8843C10.4177 17.8492 9.99581 17.7984 9.99581 17.7984C8.10915 16.5562 6.68733 16.693 6.55452 16.7086C6.67952 16.7086 8.16384 16.7437 10.2146 18.2554C11.8395 19.4546 13.3277 19.6577 13.9527 19.689C13.0348 19.8569 12.359 19.978 12.1207 19.8374C11.6247 19.5405 7.76932 18.4624 7.07013 18.271C7.55058 18.4234 9.57785 19.0718 11.3005 19.8061C16.2143 22.4662 18.8588 23.1966 20.1908 23.3529C18.6947 23.474 17.3901 23.3998 17.3901 23.3998C17.3901 23.3998 15.2886 23.1654 13.7105 23.9974C13.8082 23.9701 15.4956 23.4974 16.976 23.5794C18.558 23.6693 18.7924 23.3998 20.972 24.0521C22.8391 24.6146 24.839 24.6653 26.2335 24.2122C26.0656 24.3294 25.9679 24.3997 25.9679 24.3997C25.9679 24.3997 25.3312 24.6732 24.2766 25.1263C23.2219 25.5794 21.7884 25.7786 21.7884 25.7786C23.55 25.7239 24.0774 25.3802 25.0578 25.1067C26.0382 24.8333 26.5656 24.9271 26.5656 24.9271C28.5967 24.9778 29.917 24.595 30.5107 24.3763C29.3076 25.2122 24.6945 26.2004 24.6945 26.2004C24.6945 26.2004 21.6243 26.5637 24.7687 26.2356C27.9132 25.9114 30.8545 24.3997 30.8545 24.3997C35.0574 24.4857 35.6316 23.2201 35.6941 23.0131C35.7996 23.0131 35.909 23.0131 36.0184 23.0013C36.0184 23.0013 34.5497 22.974 33.5927 21.8568C32.6396 20.7397 32.3114 19.978 32.3114 19.978C32.3114 19.978 34.9832 20.7124 35.5027 21.2592C36.0184 21.8022 35.9637 22.8099 35.9637 22.8099C35.9637 22.8099 37.9206 23.8412 42.276 23.1849C41.9752 23.3373 41.6705 23.5091 41.3697 23.6849C40.1588 24.3919 36.491 25.9973 36.491 25.9973C36.491 25.9973 42.6627 25.6458 44.7173 25.1927C46.7758 24.7435 48.4632 23.1888 48.4632 23.1888C48.4632 23.1888 49.1038 23.0795 53.1779 22.4115C57.2481 21.7436 59.334 20.2475 59.334 20.2475C54.5255 22.2357 49.6624 22.7513 48.8578 22.8217L48.8656 22.8256ZM23.2571 17.9703C23.2571 17.9703 27.1632 18.7905 28.1124 19.4272C28.6358 20.146 29.5654 21.267 30.6787 21.9506C30.2998 21.9897 27.5226 22.2201 25.964 20.7475C24.2922 19.1655 23.2571 17.9664 23.2571 17.9664V17.9703ZM23.9211 18.9976C24.2453 19.396 24.4719 19.7632 24.7687 20.0757C25.1125 20.435 25.5773 21.0366 26.4093 21.5092C25.9484 21.5014 24.4172 21.4115 23.3196 20.7124C22.011 19.8764 19.1791 16.9859 19.1791 16.9859C19.1791 16.9859 22.6204 18.1578 23.925 18.9976H23.9211ZM8.23806 13.6267C8.86303 13.9274 9.86691 14.1423 10.3903 14.2399C10.9606 14.8219 12.7067 16.5016 14.7066 17.7515C12.5621 17.3648 10.3708 16.0875 9.73019 15.318C9.07396 14.5368 7.49589 13.3024 7.49589 13.3024C7.49589 13.3024 7.36699 13.2126 8.24196 13.6267H8.23806ZM5.87486 13.9001C5.09754 13.1696 4.99989 13.0798 4.98817 13.0681C5.04285 13.0759 6.80451 13.4157 7.32793 13.4626C8.06619 14.0134 8.48414 14.5368 9.37864 15.3493C9.16771 15.2907 8.69507 15.1852 7.92557 15.1579C7.40996 14.9274 6.48812 14.4743 5.87486 13.9001ZM8.99975 16.6969C7.8201 15.7867 7.32793 15.4235 7.32793 15.4235C7.32793 15.4235 8.97631 15.3844 9.66769 15.6032C9.7966 15.7203 9.93722 15.8375 10.0896 15.9664C11.7223 17.3375 13.398 17.6617 14.1011 17.7398C13.8394 17.7398 13.5465 17.7671 13.2144 17.8179C12.7613 17.8921 12.2496 17.9117 11.7653 17.9078C11.238 17.7789 9.9255 17.4 8.99975 16.6891V16.6969ZM18.226 19.3296C17.0268 19.2241 15.8042 19.3765 14.7613 19.5522C12.566 19.6421 10.488 18.0953 10.488 18.0953C10.488 18.0953 12.0348 18.1695 13.4137 17.9664C14.2925 17.8375 14.8589 17.9312 15.1558 18.0171C16.1284 18.5796 17.1401 19.0171 18.0932 19.1616C17.8627 19.103 15.9565 18.5796 13.5191 16.607C10.9216 14.5016 10.5231 13.9196 10.5231 13.9196C10.5231 13.9196 14.1324 15.1188 15.5933 16.025C16.0425 16.4234 16.4448 16.8297 16.7729 17.2242C18.4643 19.2749 19.7767 20.7358 21.7884 20.7553C21.1204 20.9077 20.3705 21.2748 20.3705 21.2748C18.3705 22.3295 12.8668 20.1694 12.8668 20.1694C13.7183 19.6616 18.226 19.3335 18.226 19.3335V19.3296ZM14.2457 21.017C16.4018 21.6811 19.101 22.1029 20.0072 21.6576C20.9837 21.1772 21.679 20.8608 21.9173 20.7553C21.9837 20.7553 22.0462 20.7553 22.1165 20.7514C22.1165 20.7514 22.0696 20.7436 21.9798 20.728C21.9876 20.7241 21.9954 20.7202 22.0032 20.7202C21.9876 20.7202 21.9759 20.7202 21.9602 20.728C21.3899 20.6186 19.4017 20.1264 18.0151 18.4468C16.3784 16.4664 16.1792 16.1969 15.6714 15.8102C15.6714 15.8102 17.9526 16.6383 19.1049 17.4C19.3822 17.6695 19.7181 18.021 20.1712 18.5366C21.6438 20.2007 23.6789 21.6615 25.8742 21.7201C25.2843 21.8412 24.4719 22.0873 23.5305 22.5873C22.9758 22.8802 22.2493 23.0756 21.4915 23.2006C19.2338 23.3334 15.7065 21.7358 14.2457 21.017ZM25.0773 24.2005C23.5149 24.3255 20.8978 23.763 20.8978 23.763C20.8978 23.763 22.6594 23.3802 23.3313 22.9818C23.9524 22.6146 25.6046 21.6889 26.9991 21.7904C27.7374 22.0834 28.7061 22.2592 29.999 22.1732C29.0694 22.4506 27.8975 23.1263 27.0577 23.6654C26.5695 23.888 25.8781 24.1341 25.0773 24.2005ZM29.9248 24.345C28.4717 24.8333 26.1476 24.6341 26.1476 24.6341C26.1476 24.6341 26.8194 24.2708 28.3467 23.2201C29.5733 22.3725 30.7607 22.2396 31.1826 22.2201C31.6318 22.431 32.1005 22.5521 32.581 22.5443C32.0966 22.8763 31.581 23.3959 31.0888 23.8607C30.8623 23.9857 30.5029 24.1458 29.9287 24.3411L29.9248 24.345ZM34.0184 22.4857C34.4325 22.7592 34.9285 22.9623 35.5066 23.0052C34.7332 24.3802 31.0498 24.1615 31.0498 24.1615C31.0498 24.1615 32.4286 22.9115 33.1747 22.5834C33.5692 22.4115 33.8426 22.431 34.0145 22.4857H34.0184ZM33.663 22.224C33.663 22.224 33.6552 22.224 33.6512 22.2201C33.413 22.1615 33.1513 22.2279 32.8817 22.3685C32.2255 22.2748 30.5459 21.9076 29.3819 20.5288C28.0928 19.0015 27.9366 18.814 27.9132 18.7866C28.0186 18.814 30.7099 19.5561 32.9911 21.5248C33.1708 21.7553 33.3934 21.9975 33.663 22.2201V22.224ZM18.0932 19.1616C18.0932 19.1616 18.1088 19.1655 18.1166 19.1655C18.1166 19.1655 18.1088 19.1655 18.0932 19.1616ZM18.0932 19.1616C18.0932 19.1616 18.1088 19.1655 18.1166 19.1655C18.1166 19.1655 18.1088 19.1655 18.0932 19.1616ZM18.0932 19.1616C18.0932 19.1616 18.1088 19.1655 18.1166 19.1655C18.1166 19.1655 18.1088 19.1655 18.0932 19.1616Z" fill="url(#paint6_linear_2001_216)"/>
<defs>
<linearGradient id="paint0_linear_2001_216" x1="73.6926" y1="21.5522" x2="44.803" y2="-7.33747" gradientUnits="userSpaceOnUse">
<stop offset="0.01" stop-color="#2F2228"/>
<stop offset="0.03" stop-color="#2F2C37"/>
<stop offset="0.09" stop-color="#314A67"/>
<stop offset="0.16" stop-color="#336490"/>
<stop offset="0.22" stop-color="#3579B1"/>
<stop offset="0.29" stop-color="#368ACB"/>
<stop offset="0.35" stop-color="#3795DD"/>
<stop offset="0.42" stop-color="#379CE8"/>
<stop offset="0.5" stop-color="#389FEC"/>
<stop offset="0.66" stop-color="#78B3A7"/>
<stop offset="0.89" stop-color="#D4D142"/>
<stop offset="1" stop-color="#FADE1B"/>
</linearGradient>
<linearGradient id="paint1_linear_2001_216" x1="60.7832" y1="19.8726" x2="60.5918" y2="19.6812" gradientUnits="userSpaceOnUse">
<stop offset="0.01" stop-color="#2F2228"/>
<stop offset="0.03" stop-color="#2F2C37"/>
<stop offset="0.09" stop-color="#314A67"/>
<stop offset="0.16" stop-color="#336490"/>
<stop offset="0.22" stop-color="#3579B1"/>
<stop offset="0.29" stop-color="#368ACB"/>
<stop offset="0.35" stop-color="#3795DD"/>
<stop offset="0.42" stop-color="#379CE8"/>
<stop offset="0.5" stop-color="#389FEC"/>
<stop offset="0.66" stop-color="#78B3A7"/>
<stop offset="0.89" stop-color="#D4D142"/>
<stop offset="1" stop-color="#FADE1B"/>
</linearGradient>
<linearGradient id="paint2_linear_2001_216" x1="45.6855" y1="21.3061" x2="45.6621" y2="21.2866" gradientUnits="userSpaceOnUse">
<stop offset="0.01" stop-color="#2F2228"/>
<stop offset="0.03" stop-color="#2F2C37"/>
<stop offset="0.09" stop-color="#314A67"/>
<stop offset="0.16" stop-color="#336490"/>
<stop offset="0.22" stop-color="#3579B1"/>
<stop offset="0.29" stop-color="#368ACB"/>
<stop offset="0.35" stop-color="#3795DD"/>
<stop offset="0.42" stop-color="#379CE8"/>
<stop offset="0.5" stop-color="#389FEC"/>
<stop offset="0.66" stop-color="#78B3A7"/>
<stop offset="0.89" stop-color="#D4D142"/>
<stop offset="1" stop-color="#FADE1B"/>
</linearGradient>
<linearGradient id="paint3_linear_2001_216" x1="12.6093" y1="14.072" x2="10.9297" y2="12.3884" gradientUnits="userSpaceOnUse">
<stop offset="0.01" stop-color="#2F2228"/>
<stop offset="0.03" stop-color="#2F2C37"/>
<stop offset="0.09" stop-color="#314A67"/>
<stop offset="0.16" stop-color="#336490"/>
<stop offset="0.22" stop-color="#3579B1"/>
<stop offset="0.29" stop-color="#368ACB"/>
<stop offset="0.35" stop-color="#3795DD"/>
<stop offset="0.42" stop-color="#379CE8"/>
<stop offset="0.5" stop-color="#389FEC"/>
<stop offset="0.66" stop-color="#78B3A7"/>
<stop offset="0.89" stop-color="#D4D142"/>
<stop offset="1" stop-color="#FADE1B"/>
</linearGradient>
<linearGradient id="paint4_linear_2001_216" x1="3.37497" y1="11.5447" x2="2.61718" y2="10.783" gradientUnits="userSpaceOnUse">
<stop offset="0.01" stop-color="#2F2228"/>
<stop offset="0.03" stop-color="#2F2C37"/>
<stop offset="0.09" stop-color="#314A67"/>
<stop offset="0.16" stop-color="#336490"/>
<stop offset="0.22" stop-color="#3579B1"/>
<stop offset="0.29" stop-color="#368ACB"/>
<stop offset="0.35" stop-color="#3795DD"/>
<stop offset="0.42" stop-color="#379CE8"/>
<stop offset="0.5" stop-color="#389FEC"/>
<stop offset="0.66" stop-color="#78B3A7"/>
<stop offset="0.89" stop-color="#D4D142"/>
<stop offset="1" stop-color="#FADE1B"/>
</linearGradient>
<linearGradient id="paint5_linear_2001_216" x1="1.47261" y1="11.8572" x2="0.343742" y2="10.7322" gradientUnits="userSpaceOnUse">
<stop offset="0.01" stop-color="#2F2228"/>
<stop offset="0.03" stop-color="#2F2C37"/>
<stop offset="0.09" stop-color="#314A67"/>
<stop offset="0.16" stop-color="#336490"/>
<stop offset="0.22" stop-color="#3579B1"/>
<stop offset="0.29" stop-color="#368ACB"/>
<stop offset="0.35" stop-color="#3795DD"/>
<stop offset="0.42" stop-color="#379CE8"/>
<stop offset="0.5" stop-color="#389FEC"/>
<stop offset="0.66" stop-color="#78B3A7"/>
<stop offset="0.89" stop-color="#D4D142"/>
<stop offset="1" stop-color="#FADE1B"/>
</linearGradient>
<linearGradient id="paint6_linear_2001_216" x1="46.768" y1="32.8213" x2="13.6363" y2="-0.310364" gradientUnits="userSpaceOnUse">
<stop offset="0.01" stop-color="#2F2228"/>
<stop offset="0.03" stop-color="#2F2C37"/>
<stop offset="0.09" stop-color="#314A67"/>
<stop offset="0.16" stop-color="#336490"/>
<stop offset="0.22" stop-color="#3579B1"/>
<stop offset="0.29" stop-color="#368ACB"/>
<stop offset="0.35" stop-color="#3795DD"/>
<stop offset="0.42" stop-color="#379CE8"/>
<stop offset="0.5" stop-color="#389FEC"/>
<stop offset="0.66" stop-color="#78B3A7"/>
<stop offset="0.89" stop-color="#D4D142"/>
<stop offset="1" stop-color="#FADE1B"/>
</linearGradient>
</defs>
</svg>
