<svg aria-hidden="true" style="position: absolute; width: 0; height: 0; overflow: hidden;" version="1.1" xmlns="http://www.w3.org/2000/svg" xmlns:xlink="http://www.w3.org/1999/xlink">
  <defs>
    
  <symbol id='instagram' viewBox="0 0 32 32"  xmlns="http://www.w3.org/2000/svg">
  <path d="M21.333 9.33333C21.333 8.97971 21.4735 8.64057 21.7235 8.39052C21.9736 8.14048 22.3127 8 22.6663 8C23.02 8 23.3591 8.14048 23.6092 8.39052C23.8592 8.64057 23.9997 8.97971 23.9997 9.33333C23.9997 9.68696 23.8592 10.0261 23.6092 10.2761C23.3591 10.5262 23.02 10.6667 22.6663 10.6667C22.3127 10.6667 21.9736 10.5262 21.7235 10.2761C21.4735 10.0261 21.333 9.68696 21.333 9.33333Z" />
  <path fill-rule="evenodd" clip-rule="evenodd" d="M16.0003 9.66666C14.3206 9.66666 12.7097 10.3339 11.522 11.5216C10.3343 12.7094 9.66699 14.3203 9.66699 16C9.66699 17.6797 10.3343 19.2906 11.522 20.4783C12.7097 21.6661 14.3206 22.3333 16.0003 22.3333C17.68 22.3333 19.2909 21.6661 20.4787 20.4783C21.6664 19.2906 22.3337 17.6797 22.3337 16C22.3337 14.3203 21.6664 12.7094 20.4787 11.5216C19.2909 10.3339 17.68 9.66666 16.0003 9.66666ZM11.667 16C11.667 14.8507 12.1235 13.7485 12.9362 12.9359C13.7489 12.1232 14.8511 11.6667 16.0003 11.6667C17.1496 11.6667 18.2518 12.1232 19.0645 12.9359C19.8771 13.7485 20.3337 14.8507 20.3337 16C20.3337 17.1493 19.8771 18.2515 19.0645 19.0641C18.2518 19.8768 17.1496 20.3333 16.0003 20.3333C14.8511 20.3333 13.7489 19.8768 12.9362 19.0641C12.1235 18.2515 11.667 17.1493 11.667 16Z" />
  <path fill-rule="evenodd" clip-rule="evenodd" d="M23.0111 3.77733C18.3516 3.26079 13.6492 3.26079 8.98973 3.77733C6.30707 4.07733 4.1404 6.19066 3.82573 8.88666C3.27293 13.6128 3.27293 18.3872 3.82573 23.1133C4.1404 25.8093 6.30573 27.9227 8.98973 28.2227C13.6493 28.7387 18.3515 28.7387 23.0111 28.2227C25.6937 27.9227 27.8604 25.8093 28.1751 23.1133C28.728 18.3872 28.728 13.6128 28.1751 8.88666C27.8604 6.19066 25.6951 4.07733 23.0111 3.77733ZM9.21107 5.76399C13.7235 5.26382 18.2773 5.26382 22.7897 5.76399C24.5631 5.96399 25.9831 7.36266 26.1897 9.11999C26.7243 13.6911 26.7243 18.3089 26.1897 22.88C26.0828 23.74 25.6891 24.539 25.0722 25.1477C24.4553 25.7564 23.6511 26.1393 22.7897 26.2347C18.2773 26.7349 13.7235 26.7349 9.21107 26.2347C8.34965 26.1393 7.54554 25.7564 6.92861 25.1477C6.31168 24.539 5.91796 23.74 5.81107 22.88C5.27646 18.3089 5.27646 13.6911 5.81107 9.11999C5.91796 8.25994 6.31168 7.46103 6.92861 6.85233C7.54554 6.24363 8.34965 5.85934 9.21107 5.76399Z" />
  </symbol>

  <symbol id='language' viewBox="0 0 32 32" fill="none" xmlns="http://www.w3.org/2000/svg">
  <path d="M4.8 12H27.2M4.8 20H27.2M4 16C4 17.5759 4.31039 19.1363 4.91345 20.5922C5.5165 22.0481 6.40042 23.371 7.51472 24.4853C8.62902 25.5996 9.95189 26.4835 11.4078 27.0866C12.8637 27.6896 14.4241 28 16 28C17.5759 28 19.1363 27.6896 20.5922 27.0866C22.0481 26.4835 23.371 25.5996 24.4853 24.4853C25.5996 23.371 26.4835 22.0481 27.0866 20.5922C27.6896 19.1363 28 17.5759 28 16C28 12.8174 26.7357 9.76516 24.4853 7.51472C22.2348 5.26428 19.1826 4 16 4C12.8174 4 9.76516 5.26428 7.51472 7.51472C5.26428 9.76516 4 12.8174 4 16Z"  stroke-width="2" stroke-linecap="round" stroke-linejoin="round"/>
  <path d="M15.3335 4C13.0873 7.59948 11.8965 11.7572 11.8965 16C11.8965 20.2428 13.0873 24.4005 15.3335 28M16.6669 4C18.9131 7.59948 20.1039 11.7572 20.1039 16C20.1039 20.2428 18.9131 24.4005 16.6669 28"  stroke-width="2" stroke-linecap="round" stroke-linejoin="round"/>
  </symbol>

  <symbol id='close' viewBox="0 0 44 44"  xmlns="http://www.w3.org/2000/svg">
  <path d="M10.4851 10.4867C10.7429 10.2292 11.0924 10.0845 11.4568 10.0845C11.8212 10.0845 12.1707 10.2292 12.4285 10.4867L21.9985 20.0567L31.5685 10.4867C31.7365 10.3057 31.9503 10.1733 32.1873 10.1036C32.4242 10.034 32.6756 10.0295 32.9149 10.0906C33.1542 10.1518 33.3725 10.2764 33.547 10.4513C33.7214 10.6262 33.8454 10.8449 33.906 11.0843C33.9672 11.3233 33.963 11.5745 33.8936 11.8113C33.8242 12.0481 33.6923 12.2618 33.5118 12.43L23.9418 22L33.5118 31.57C33.6928 31.738 33.8251 31.9518 33.8948 32.1888C33.9645 32.4257 33.969 32.6771 33.9078 32.9164C33.8466 33.1557 33.722 33.3741 33.5471 33.5485C33.3723 33.7229 33.1536 33.8469 32.9141 33.9075C32.6751 33.9688 32.424 33.9645 32.1872 33.8951C31.9504 33.8257 31.7367 33.6939 31.5685 33.5133L21.9985 23.9433L12.4285 33.5133C12.1677 33.7561 11.8229 33.8883 11.4666 33.8821C11.1104 33.8759 10.7704 33.7319 10.5181 33.4803C10.2665 33.228 10.1225 32.8881 10.1163 32.5318C10.1102 32.1756 10.2424 31.8308 10.4851 31.57L20.0551 22L10.4851 12.43C10.2276 12.1722 10.083 11.8227 10.083 11.4583C10.083 11.0939 10.2276 10.7445 10.4851 10.4867Z" />
  </symbol>

  <svg id="menu" viewBox="0 0 24 24"  xmlns="http://www.w3.org/2000/svg">
  <path d="M20 18C20.2549 18.0003 20.5 18.0979 20.6854 18.2728C20.8707 18.4478 20.9822 18.687 20.9972 18.9414C21.0121 19.1958 20.9293 19.4464 20.7657 19.6418C20.6021 19.8373 20.3701 19.9629 20.117 19.993L20 20H4C3.74512 19.9997 3.49997 19.9021 3.31463 19.7272C3.1293 19.5522 3.01777 19.313 3.00283 19.0586C2.98789 18.8042 3.07067 18.5536 3.23426 18.3582C3.39786 18.1627 3.6299 18.0371 3.883 18.007L4 18H20ZM20 11C20.2652 11 20.5196 11.1054 20.7071 11.2929C20.8946 11.4804 21 11.7348 21 12C21 12.2652 20.8946 12.5196 20.7071 12.7071C20.5196 12.8946 20.2652 13 20 13H4C3.73478 13 3.48043 12.8946 3.29289 12.7071C3.10536 12.5196 3 12.2652 3 12C3 11.7348 3.10536 11.4804 3.29289 11.2929C3.48043 11.1054 3.73478 11 4 11H20ZM20 4C20.2652 4 20.5196 4.10536 20.7071 4.29289C20.8946 4.48043 21 4.73478 21 5C21 5.26522 20.8946 5.51957 20.7071 5.70711C20.5196 5.89464 20.2652 6 20 6H4C3.73478 6 3.48043 5.89464 3.29289 5.70711C3.10536 5.51957 3 5.26522 3 5C3 4.73478 3.10536 4.48043 3.29289 4.29289C3.48043 4.10536 3.73478 4 4 4H20Z" />
  </svg>

  </defs>
</svg>
