<svg width="114" height="114" viewBox="0 0 114 114" fill="none" xmlns="http://www.w3.org/2000/svg">
<g clip-path="url(#clip0_1960_2408)">
<rect width="114" height="114" rx="57" fill="white"/>
<path d="M86.6691 64.1306C85.5793 64.5876 84.4153 64.9431 83.3294 65.2165C90.0166 60.4588 94.329 55.3536 94.329 55.3536L94.1649 55.2442C90.0987 59.6307 86.1574 62.9197 82.6927 65.3649C80.556 65.861 78.853 66.0329 78.853 66.0329C78.853 66.0329 70.8454 65.8141 69.6189 65.8688C68.3924 65.9235 66.1307 66.3297 66.1307 66.3297C66.1307 66.3297 68.0916 67.0641 72.154 67.693C76.2124 68.3179 79.1264 66.3571 79.1264 66.3571C74.7164 68.0484 72.8883 67.5836 72.3415 67.5016C71.7985 67.4195 67.4901 66.4391 67.4901 66.4391C71.361 65.7321 76.5874 66.6071 79.3373 66.1696C79.7748 66.0993 80.1888 66.0329 80.5795 65.9626C77.2514 67.8883 76.3257 67.9781 73.4274 68.564C71.5407 68.9468 67.869 69.0406 65.4433 69.0601C65.0917 68.9586 64.3613 68.6578 63.209 67.7477C61.5176 66.4118 58.7404 66.1383 58.7404 66.1383C58.7404 66.1383 57.7052 66.111 56.2873 65.2399C54.8733 64.3689 51.3266 64.4782 51.3266 64.4782C51.3266 64.4782 54.3538 64.7204 55.1702 65.1032C55.9866 65.486 57.2678 66.275 57.6467 66.3297C57.9005 66.3649 58.6388 66.9977 59.3732 67.5367C59.2208 67.4898 59.0529 67.4469 58.8732 67.4039C57.0568 66.0172 55.4202 66.6422 54.3538 66.5055C53.2757 66.3688 50.8383 66.3258 50.8383 66.3258C53.8772 66.4352 55.1428 67.1969 56.5061 68.0016C56.7873 68.1695 57.0646 68.2984 57.3263 68.4078C57.0295 68.3687 56.7287 68.3609 56.4279 68.3804C55.4553 67.4156 52.889 67.15 50.4282 67.3102C48.0962 67.4625 43.9206 66.1188 43.444 65.9665C44.6705 66.4899 47.5884 67.3961 49.229 67.6383C50.7563 67.8609 52.7562 69.1148 53.0765 69.3218C52.6156 69.5406 52.3343 69.7085 52.3343 69.7085L51.0258 69.9507C50.3422 70.0913 49.7368 70.271 49.2094 70.4663C45.4439 70.6929 36.8388 67.9586 35.2529 66.193C35.2529 66.193 41.7058 66.4079 45.2096 67.0485C44.6471 66.9235 40.8308 66.1227 36.1513 65.9469C36.1513 65.9469 34.7334 65.7829 33.9443 65.5095C33.9443 65.5095 35.8544 67.2828 37.9247 68.0992C39.6746 68.7906 43.7604 70.5718 48.6704 70.6772C47.3501 71.2358 46.6275 71.8335 46.5416 71.9077C47.3189 71.3686 48.2251 70.9663 49.1157 70.6811C49.8735 70.6811 50.6508 70.6421 51.4359 70.5522C51.4359 70.5522 52.8929 70.5015 55.0217 71.3608C54.5882 71.6772 54.2522 71.9233 54.0804 71.9975C53.4241 72.2827 49.4477 72.5834 49.4477 72.5834C49.4477 72.5834 53.1546 72.4467 55.2522 72.2163C56.8342 72.0444 57.8966 71.5717 58.3224 71.353C58.2443 71.4389 58.174 71.5092 58.1115 71.5639C57.7287 71.8999 56.2795 72.8842 55.7795 73.2162C56.135 72.9858 57.0373 72.4428 58.3849 71.853C63.873 73.5404 69.8533 71.9741 69.8533 71.9741C63.0176 72.8061 59.3341 71.8178 58.8263 71.6655C59.2208 71.5053 59.6427 71.3413 60.0997 71.185C60.3419 71.0991 60.5645 71.0171 60.7676 70.935C66.2792 72.6498 69.3611 71.8139 69.3611 71.8139C65.0683 72.0249 61.8262 71.0639 61.0606 70.81C62.9043 69.9937 62.8223 69.3335 62.8223 69.3335C62.8223 69.3335 63.7207 69.2515 70.5876 69.1148C76.5913 68.9976 80.2631 66.4977 81.0873 65.8766C81.5169 65.7985 81.9153 65.7204 82.2942 65.6423C77.0679 69.271 72.9782 70.9663 71.2673 71.5796C72.8844 71.0327 74.4508 70.3726 75.9546 69.6382C74.1266 70.7632 71.611 72.5561 70.6423 73.7748C69.3025 75.4661 65.6386 78.6848 65.5253 78.7824C69.9392 76.9856 74.107 73.3373 75.0562 71.9467C75.814 70.8452 77.4585 69.1656 78.1069 68.5133C79.8061 67.5719 81.4115 66.5524 82.9036 65.5095C86.4972 64.7048 87.8292 63.8572 90.9697 62.5447C94.7001 60.9862 103.473 53.5997 104.54 52.6935C93.7782 61.5174 90.1651 62.658 86.6652 64.1267L86.6691 64.1306ZM56.9318 67.9195C56.4006 67.4938 54.846 66.8024 54.846 66.8024C54.846 66.8024 55.2952 66.736 56.4553 66.736C57.6154 66.736 58.5646 67.318 58.6544 67.3688C57.467 67.1422 55.967 67.0836 55.967 67.0836C55.967 67.0836 57.2013 67.3922 58.5646 68.5523C58.6036 68.5875 58.6466 68.6187 58.6896 68.6539C58.3185 68.5484 57.3576 68.2555 56.9357 67.9195H56.9318ZM50.3227 67.6148C54.1468 67.1891 55.6545 68.1695 55.9748 68.4273C54.9632 68.5562 53.9983 68.9156 53.3148 69.2203L50.3188 67.6148H50.3227ZM57.8302 68.5992C58.3419 68.7593 58.7638 68.8257 59.0021 68.8531C59.1232 68.9195 59.2521 68.9742 59.3849 69.0289C58.5958 69.0953 57.6115 69.6109 56.7014 70.1968C55.51 70.3608 52.6937 69.7984 52.6937 69.7984C55.2327 68.4508 57.2131 68.5289 57.8302 68.5992ZM50.4594 70.3374C51.5062 70.1187 52.3734 70.0757 52.7249 70.1499C53.3655 70.2905 55.6311 70.4077 56.3303 70.4429C55.8616 70.7593 55.4202 71.0835 55.0491 71.353C54.7092 71.1186 53.0921 70.1265 50.4633 70.3374H50.4594ZM55.135 71.7983C55.8303 71.0522 56.5373 70.5093 57.1857 70.1187C57.3224 70.0874 57.4201 70.064 57.217 70.0991C58.4318 69.3726 59.4161 69.1656 59.6622 69.1265C60.0763 69.2554 60.5098 69.3257 60.9239 69.3609C60.8575 69.3765 60.7872 69.3921 60.7051 69.4156C60.0919 69.5835 59.4864 70.1265 58.9943 70.6421C57.2287 71.9233 55.1311 71.8022 55.1311 71.8022L55.135 71.7983ZM62.584 69.3609C62.584 69.3609 61.959 70.0679 61.084 70.5054C60.2403 70.9272 58.424 71.6303 58.3107 71.6733C58.381 71.5991 59.2286 70.7241 59.8028 70.1226C60.3028 69.6031 61.0879 69.4312 61.3418 69.3882C61.9082 69.4078 62.3848 69.3726 62.6035 69.3492L62.584 69.3609ZM62.8418 69.2007C61.502 69.3374 59.3692 68.9625 58.9044 68.5328C58.4318 68.0953 57.0881 67.3336 57.0881 67.3336C58.0998 67.3649 59.1935 67.6734 59.8966 67.9117C60.088 68.0328 60.2677 68.1422 60.4278 68.2164C61.2481 68.5914 62.6387 69.0992 62.8691 69.1812L62.8379 69.2007H62.8418ZM63.1074 69.064C62.502 68.8726 60.9551 68.3179 59.5099 67.318C58.1466 66.3766 57.8771 66.2008 57.8263 66.1735C57.9669 66.1891 60.4434 66.4664 61.6895 67.1774C62.7558 67.7906 64.2714 68.814 65.205 69.064C64.0761 69.0679 63.2676 69.0601 63.1074 69.0601V69.064ZM71.7673 74.7552C69.8064 76.3919 66.5877 78.1067 66.5877 78.1067C66.5877 78.1067 69.4236 75.4622 71.3845 73.474C72.9469 71.892 76.0288 69.7866 77.2202 68.9976C77.4077 68.9 77.5952 68.7984 77.7827 68.6968C76.1499 70.0835 73.4899 73.3178 71.7673 74.7552Z" fill="url(#paint0_linear_1960_2408)"/>
<path d="M70.9702 71.6851C70.7827 71.7476 70.5952 71.8101 70.4038 71.8687C70.4038 71.8687 70.5991 71.814 70.9702 71.6851Z" fill="url(#paint1_linear_1960_2408)"/>
<path d="M55.7407 73.2514C55.6587 73.3061 55.6118 73.3373 55.6118 73.3373C55.6118 73.3373 55.6626 73.3022 55.7407 73.2514Z" fill="url(#paint2_linear_1960_2408)"/>
<path d="M22.7963 65.8844C21.6479 65.1032 20.7456 64.572 20.7456 64.572C20.7456 64.572 21.6557 65.1813 22.7963 65.8844Z" fill="url(#paint3_linear_1960_2408)"/>
<path d="M13.5156 63.4041C12.582 62.9549 12.4805 62.9197 12.4805 62.9197C12.4805 62.9197 12.8867 63.115 13.5156 63.4041Z" fill="url(#paint4_linear_1960_2408)"/>
<path d="M11.6992 63.6267C10.832 63.2517 10.1172 62.9548 10.1172 62.9548C10.1172 62.9548 10.8086 63.2556 11.6992 63.6267Z" fill="url(#paint5_linear_1960_2408)"/>
<path d="M28.0932 71.1616C28.0932 71.1616 28.1088 71.1655 28.1166 71.1655C28.1166 71.1655 28.1088 71.1655 28.0932 71.1616ZM28.0932 71.1616C28.0932 71.1616 28.1088 71.1655 28.1166 71.1655C28.1166 71.1655 28.1088 71.1655 28.0932 71.1616ZM28.0932 71.1616C28.0932 71.1616 28.1088 71.1655 28.1166 71.1655C28.1166 71.1655 28.1088 71.1655 28.0932 71.1616ZM58.8656 74.8255C58.0609 74.8919 58.6624 74.8529 56.3071 76.2395C53.9478 77.6301 47.9831 77.5637 47.9831 77.5637L52.6041 75.3294C52.6041 75.3294 54.5767 74.6615 55.8891 74.6459C57.1977 74.6341 58.0687 74.6459 58.0687 74.6459C58.0687 74.6459 55.9711 74.3334 54.9087 74.3607C54.1821 74.3763 53.3697 74.6615 52.5416 75.0599C51.1549 75.1888 48.9675 75.2474 46.1902 74.8372C46.1902 74.8372 47.0613 73.6381 45.2645 72.8764C43.4677 72.1108 42.4599 71.9233 41.4521 70.8569C40.4404 69.7945 38.4014 68.7593 35.5109 68.5132C35.5109 68.5132 39.2178 69.0562 40.7685 70.7202C40.7685 70.7202 41.5849 71.4819 41.8583 71.6733L42.4286 72.6264C42.4286 72.6264 42.5185 72.8178 42.6943 73.0951C41.9599 72.392 40.5264 71.2475 38.4796 70.6538C35.4093 69.7632 36.1007 69.3843 33.6477 68.7281C31.1946 68.0719 30.5775 68.1851 30.5775 68.1851C30.5775 68.1851 34.7726 69.0562 35.3 69.5484C35.8273 70.0366 37.6632 70.7475 37.6632 70.7475C37.6632 70.7475 37.7022 70.814 37.7804 70.9272C36.6866 70.6733 30.0111 69.0523 28.1283 67.1578C28.3158 67.3609 29.2182 68.2554 31.3392 69.1695C32.2571 69.5601 32.8626 69.9624 33.3079 70.353C32.6126 70.0679 30.8665 69.3531 29.6127 68.8414C28.0307 68.1929 25.8706 66.5836 24.5933 65.2438C24.8042 65.4782 25.9839 66.8141 27.1401 67.8023C27.476 68.0914 27.7299 68.2828 27.9526 68.4508C27.558 68.2281 27.0737 68.0016 26.5034 67.8219C25.5972 67.5367 24.0582 66.6539 22.7965 65.8805C23.3824 66.279 24.0308 66.7477 24.6558 67.2399C23.7652 66.8492 22.0582 66.1266 21.1051 65.8766C20.0271 65.5954 16.699 63.9314 15.496 63.322C16.4647 63.8337 18.7927 65.0798 19.8122 65.7555C18.5232 65.6344 15.2108 64.1736 13.5156 63.3962C13.9413 63.6033 14.5429 63.8962 15.3866 64.3142C16.0584 64.6462 16.5545 64.9274 16.9529 65.1891C16.6014 65.1657 15.91 65.0837 14.9843 64.8415C14.2187 64.6423 12.8046 64.0837 11.6953 63.6228C12.9687 64.1697 14.5663 64.8923 14.7304 65.0954C14.953 65.3766 16.2655 66.6852 17.117 67.1461C15.7499 67.1188 13.5859 66.3805 13.0507 66.193C13.539 66.3883 15.4296 67.1149 16.6717 67.3649C16.6717 67.3649 17.2693 67.525 18.0349 68.3062C18.6677 68.9585 19.9294 69.6538 21.0036 69.8843C20.4177 69.8491 19.9958 69.7984 19.9958 69.7984C18.1092 68.5562 16.6873 68.6929 16.5545 68.7086C16.6795 68.7086 18.1638 68.7437 20.2146 70.2554C21.8395 71.4546 23.3277 71.6577 23.9527 71.6889C23.0348 71.8569 22.359 71.978 22.1207 71.8374C21.6247 71.5405 17.7693 70.4624 17.0701 70.271C17.5506 70.4233 19.5779 71.0718 21.3005 71.8061C26.2143 74.4662 28.8588 75.1966 30.1908 75.3529C28.6947 75.4739 27.3901 75.3997 27.3901 75.3997C27.3901 75.3997 25.2886 75.1654 23.7105 75.9974C23.8082 75.97 25.4956 75.4974 26.976 75.5794C28.558 75.6693 28.7924 75.3997 30.972 76.0521C32.8391 76.6145 34.8391 76.6653 36.2335 76.2122C36.0656 76.3294 35.9679 76.3997 35.9679 76.3997C35.9679 76.3997 35.3312 76.6731 34.2766 77.1262C33.2219 77.5793 31.7884 77.7786 31.7884 77.7786C33.55 77.7239 34.0774 77.3801 35.0578 77.1067C36.0382 76.8333 36.5656 76.927 36.5656 76.927C38.5967 76.9778 39.917 76.595 40.5107 76.3763C39.3076 77.2122 34.6945 78.2004 34.6945 78.2004C34.6945 78.2004 31.6243 78.5637 34.7687 78.2356C37.9132 77.9114 40.8545 76.3997 40.8545 76.3997C45.0574 76.4856 45.6316 75.22 45.6941 75.013C45.7996 75.013 45.909 75.013 46.0184 75.0013C46.0184 75.0013 44.5497 74.974 43.5927 73.8568C42.6396 72.7397 42.3115 71.978 42.3115 71.978C42.3115 71.978 44.9832 72.7123 45.5027 73.2592C46.0184 73.8021 45.9637 74.8099 45.9637 74.8099C45.9637 74.8099 47.9206 75.8411 52.276 75.1849C51.9752 75.3372 51.6705 75.5091 51.3697 75.6849C50.1588 76.3919 46.491 77.9973 46.491 77.9973C46.491 77.9973 52.6627 77.6457 54.7173 77.1926C56.7758 76.7434 58.4632 75.1888 58.4632 75.1888C58.4632 75.1888 59.1038 75.0794 63.1779 74.4115C67.2481 73.7435 69.334 72.2475 69.334 72.2475C64.5255 74.2357 59.6624 74.7513 58.8578 74.8216L58.8656 74.8255ZM33.2571 69.9702C33.2571 69.9702 37.1632 70.7905 38.1124 71.4272C38.6358 72.1459 39.5655 73.267 40.6787 73.9506C40.2998 73.9896 37.5226 74.2201 35.964 72.7475C34.2922 71.1655 33.2571 69.9663 33.2571 69.9663V69.9702ZM33.9211 70.9975C34.2453 71.396 34.4719 71.7631 34.7687 72.0756C35.1125 72.435 35.5773 73.0365 36.4093 73.5092C35.9484 73.5014 34.4172 73.4115 33.3196 72.7123C32.011 71.8764 29.1791 68.9859 29.1791 68.9859C29.1791 68.9859 32.6204 70.1577 33.925 70.9975H33.9211ZM18.2381 65.6266C18.863 65.9274 19.8669 66.1422 20.3903 66.2399C20.9606 66.8219 22.7067 68.5015 24.7066 69.7515C22.5621 69.3648 20.3708 68.0875 19.7302 67.318C19.074 66.5368 17.4959 65.3024 17.4959 65.3024C17.4959 65.3024 17.367 65.2126 18.242 65.6266H18.2381ZM15.8749 65.9001C15.0975 65.1696 14.9999 65.0798 14.9882 65.0681C15.0429 65.0759 16.8045 65.4157 17.3279 65.4626C18.0662 66.0133 18.4841 66.5368 19.3786 67.3492C19.1677 67.2906 18.6951 67.1852 17.9256 67.1578C17.41 66.9274 16.4881 66.4743 15.8749 65.9001ZM18.9997 68.6968C17.8201 67.7867 17.3279 67.4234 17.3279 67.4234C17.3279 67.4234 18.9763 67.3844 19.6677 67.6031C19.7966 67.7203 19.9372 67.8375 20.0896 67.9664C21.7223 69.3374 23.398 69.6616 24.1011 69.7398C23.8394 69.7398 23.5465 69.7671 23.2144 69.8179C22.7613 69.8921 22.2496 69.9116 21.7653 69.9077C21.238 69.7788 19.9255 69.3999 18.9997 68.689V68.6968ZM28.226 71.3296C27.0268 71.2241 25.8042 71.3764 24.7613 71.5522C22.566 71.642 20.488 70.0952 20.488 70.0952C20.488 70.0952 22.0348 70.1694 23.4137 69.9663C24.2925 69.8374 24.8589 69.9312 25.1558 70.0171C26.1284 70.5796 27.1401 71.0171 28.0932 71.1616C27.8627 71.103 25.9565 70.5796 23.5191 68.607C20.9216 66.5016 20.5231 65.9196 20.5231 65.9196C20.5231 65.9196 24.1324 67.1188 25.5933 68.025C26.0425 68.4234 26.4448 68.8296 26.7729 69.2242C28.4643 71.2749 29.7767 72.7358 31.7884 72.7553C31.1204 72.9076 30.3705 73.2748 30.3705 73.2748C28.3705 74.3295 22.8668 72.1694 22.8668 72.1694C23.7183 71.6616 28.226 71.3335 28.226 71.3335V71.3296ZM24.2457 73.017C26.4018 73.681 29.101 74.1029 30.0072 73.6576C30.9837 73.1772 31.679 72.8608 31.9173 72.7553C31.9837 72.7553 32.0462 72.7553 32.1165 72.7514C32.1165 72.7514 32.0696 72.7436 31.9798 72.7279C31.9876 72.724 31.9954 72.7201 32.0032 72.7201C31.9876 72.7201 31.9759 72.7201 31.9602 72.7279C31.3899 72.6186 29.4017 72.1264 28.0151 70.4468C26.3784 68.4664 26.1792 68.1969 25.6714 67.8102C25.6714 67.8102 27.9526 68.6382 29.1049 69.3999C29.3822 69.6695 29.7181 70.021 30.1712 70.5366C31.6438 72.2006 33.6789 73.6615 35.8742 73.7201C35.2843 73.8412 34.4719 74.0873 33.5305 74.5873C32.9758 74.8802 32.2493 75.0755 31.4915 75.2005C29.2338 75.3333 25.7066 73.7357 24.2457 73.017ZM35.0773 76.2005C33.5149 76.3255 30.8978 75.763 30.8978 75.763C30.8978 75.763 32.6594 75.3802 33.3313 74.9818C33.9524 74.6146 35.6046 73.6889 36.9991 73.7904C37.7374 74.0834 38.7061 74.2591 39.999 74.1732C39.0694 74.4505 37.8975 75.1263 37.0577 75.6653C36.5695 75.888 35.8781 76.1341 35.0773 76.2005ZM39.9248 76.345C38.4717 76.8333 36.1476 76.6341 36.1476 76.6341C36.1476 76.6341 36.8195 76.2708 38.3467 75.2201C39.5733 74.3724 40.7607 74.2396 41.1826 74.2201C41.6318 74.431 42.1005 74.5521 42.581 74.5443C42.0966 74.8763 41.581 75.3958 41.0888 75.8607C40.8623 75.9857 40.5029 76.1458 39.9287 76.3411L39.9248 76.345ZM44.0184 74.4857C44.4325 74.7591 44.9285 74.9622 45.5067 75.0052C44.7332 76.3802 41.0498 76.1614 41.0498 76.1614C41.0498 76.1614 42.4286 74.9115 43.1747 74.5834C43.5692 74.4115 43.8426 74.431 44.0145 74.4857H44.0184ZM43.663 74.224C43.663 74.224 43.6552 74.224 43.6512 74.2201C43.413 74.1615 43.1513 74.2279 42.8817 74.3685C42.2255 74.2748 40.5459 73.9076 39.3819 72.5287C38.0928 71.0014 37.9366 70.814 37.9132 70.7866C38.0186 70.814 40.7099 71.5561 42.9911 73.5248C43.1708 73.7553 43.3934 73.9974 43.663 74.2201V74.224ZM28.0932 71.1616C28.0932 71.1616 28.1088 71.1655 28.1166 71.1655C28.1166 71.1655 28.1088 71.1655 28.0932 71.1616ZM28.0932 71.1616C28.0932 71.1616 28.1088 71.1655 28.1166 71.1655C28.1166 71.1655 28.1088 71.1655 28.0932 71.1616ZM28.0932 71.1616C28.0932 71.1616 28.1088 71.1655 28.1166 71.1655C28.1166 71.1655 28.1088 71.1655 28.0932 71.1616Z" fill="url(#paint6_linear_1960_2408)"/>
<path d="M56.998 0C25.5187 0 0 25.5187 0 56.998C0 88.4774 25.5187 113.996 56.998 113.996C88.4774 113.996 114 88.4774 114 56.998C114 25.5187 88.4813 0 56.998 0ZM56.998 113.273C25.921 113.273 0.726538 88.079 0.726538 56.998C0.726538 25.9171 25.921 0.726538 56.998 0.726538C88.0751 0.726538 113.273 25.9171 113.273 56.998C113.273 88.079 88.079 113.273 56.998 113.273Z" fill="url(#paint7_linear_1960_2408)"/>
<path d="M21.1369 45.8182H22.3698V52.5597C22.3698 53.2557 22.2058 53.8771 21.8777 54.424C21.5528 54.9676 21.0938 55.3968 20.5005 55.7116C19.9072 56.0232 19.2112 56.179 18.4125 56.179C17.6137 56.179 16.9177 56.0232 16.3244 55.7116C15.7311 55.3968 15.2704 54.9676 14.9423 54.424C14.6175 53.8771 14.4551 53.2557 14.4551 52.5597V45.8182H15.688V52.4602C15.688 52.9574 15.7974 53.3999 16.0161 53.7876C16.2349 54.1721 16.5464 54.4754 16.9508 54.6974C17.3585 54.9162 17.8457 55.0256 18.4125 55.0256C18.9792 55.0256 19.4664 54.9162 19.8741 54.6974C20.2818 54.4754 20.5933 54.1721 20.8088 53.7876C21.0275 53.3999 21.1369 52.9574 21.1369 52.4602V45.8182ZM29.312 56V45.8182H30.545V50.8693H30.6643L35.2382 45.8182H36.849L32.5734 50.4119L36.849 56H35.3575L31.8177 51.267L30.545 52.6989V56H29.312ZM42.9248 56V45.8182H46.3652C47.1606 45.8182 47.8136 45.9541 48.324 46.2259C48.8344 46.4943 49.2122 46.8639 49.4575 47.3345C49.7028 47.8052 49.8254 48.3404 49.8254 48.9403C49.8254 49.5402 49.7028 50.0722 49.4575 50.5362C49.2122 51.0002 48.8361 51.3648 48.3289 51.63C47.8218 51.8918 47.1739 52.0227 46.3851 52.0227H43.601V50.9091H46.3453C46.8888 50.9091 47.3263 50.8295 47.6578 50.6705C47.9925 50.5114 48.2345 50.286 48.3836 49.9943C48.5361 49.6993 48.6123 49.348 48.6123 48.9403C48.6123 48.5327 48.5361 48.1764 48.3836 47.8714C48.2312 47.5665 47.9876 47.3312 47.6528 47.1655C47.3181 46.9964 46.8756 46.9119 46.3254 46.9119H44.1578V56H42.9248ZM47.7174 51.4261L50.2231 56H48.7913L46.3254 51.4261H47.7174ZM56.7775 56H55.4849L59.2235 45.8182H60.4963L64.2349 56H62.9423L59.8997 47.429H59.8201L56.7775 56ZM57.2548 52.0227H62.465V53.1165H57.2548V52.0227ZM71.5338 45.8182V56H70.3008V45.8182H71.5338ZM81.628 56H78.4859V45.8182H81.7672C82.7549 45.8182 83.6 46.022 84.3027 46.4297C85.0053 46.834 85.5439 47.4157 85.9185 48.1747C86.293 48.9304 86.4802 49.8352 86.4802 50.8892C86.4802 51.9498 86.2913 52.8629 85.9135 53.6286C85.5356 54.3909 84.9855 54.9775 84.2629 55.3885C83.5404 55.7962 82.6621 56 81.628 56ZM79.7189 54.9062H81.5484C82.3903 54.9062 83.088 54.7438 83.6415 54.419C84.195 54.0942 84.6076 53.6319 84.8794 53.032C85.1512 52.4321 85.2871 51.7178 85.2871 50.8892C85.2871 50.0672 85.1528 49.3596 84.8844 48.7663C84.6159 48.1697 84.2149 47.7124 83.6812 47.3942C83.1476 47.0727 82.4831 46.9119 81.6876 46.9119H79.7189V54.9062ZM92.9675 56H91.6749L95.4135 45.8182H96.6863L100.425 56H99.1323L96.0897 47.429H96.0101L92.9675 56ZM93.4448 52.0227H98.655V53.1165H93.4448V52.0227Z" fill="#221F25"/>
</g>
<defs>
<linearGradient id="paint0_linear_1960_2408" x1="83.6926" y1="73.5521" x2="54.803" y2="44.6625" gradientUnits="userSpaceOnUse">
<stop offset="0.01" stop-color="#2F2228"/>
<stop offset="0.03" stop-color="#2F2C37"/>
<stop offset="0.09" stop-color="#314A67"/>
<stop offset="0.16" stop-color="#336490"/>
<stop offset="0.22" stop-color="#3579B1"/>
<stop offset="0.29" stop-color="#368ACB"/>
<stop offset="0.35" stop-color="#3795DD"/>
<stop offset="0.42" stop-color="#379CE8"/>
<stop offset="0.5" stop-color="#389FEC"/>
<stop offset="0.66" stop-color="#78B3A7"/>
<stop offset="0.89" stop-color="#D4D142"/>
<stop offset="1" stop-color="#FADE1B"/>
</linearGradient>
<linearGradient id="paint1_linear_1960_2408" x1="70.7827" y1="71.8726" x2="70.5913" y2="71.6812" gradientUnits="userSpaceOnUse">
<stop offset="0.01" stop-color="#2F2228"/>
<stop offset="0.03" stop-color="#2F2C37"/>
<stop offset="0.09" stop-color="#314A67"/>
<stop offset="0.16" stop-color="#336490"/>
<stop offset="0.22" stop-color="#3579B1"/>
<stop offset="0.29" stop-color="#368ACB"/>
<stop offset="0.35" stop-color="#3795DD"/>
<stop offset="0.42" stop-color="#379CE8"/>
<stop offset="0.5" stop-color="#389FEC"/>
<stop offset="0.66" stop-color="#78B3A7"/>
<stop offset="0.89" stop-color="#D4D142"/>
<stop offset="1" stop-color="#FADE1B"/>
</linearGradient>
<linearGradient id="paint2_linear_1960_2408" x1="55.686" y1="73.3061" x2="55.6626" y2="73.2866" gradientUnits="userSpaceOnUse">
<stop offset="0.01" stop-color="#2F2228"/>
<stop offset="0.03" stop-color="#2F2C37"/>
<stop offset="0.09" stop-color="#314A67"/>
<stop offset="0.16" stop-color="#336490"/>
<stop offset="0.22" stop-color="#3579B1"/>
<stop offset="0.29" stop-color="#368ACB"/>
<stop offset="0.35" stop-color="#3795DD"/>
<stop offset="0.42" stop-color="#379CE8"/>
<stop offset="0.5" stop-color="#389FEC"/>
<stop offset="0.66" stop-color="#78B3A7"/>
<stop offset="0.89" stop-color="#D4D142"/>
<stop offset="1" stop-color="#FADE1B"/>
</linearGradient>
<linearGradient id="paint3_linear_1960_2408" x1="22.6088" y1="66.0719" x2="20.9292" y2="64.3884" gradientUnits="userSpaceOnUse">
<stop offset="0.01" stop-color="#2F2228"/>
<stop offset="0.03" stop-color="#2F2C37"/>
<stop offset="0.09" stop-color="#314A67"/>
<stop offset="0.16" stop-color="#336490"/>
<stop offset="0.22" stop-color="#3579B1"/>
<stop offset="0.29" stop-color="#368ACB"/>
<stop offset="0.35" stop-color="#3795DD"/>
<stop offset="0.42" stop-color="#379CE8"/>
<stop offset="0.5" stop-color="#389FEC"/>
<stop offset="0.66" stop-color="#78B3A7"/>
<stop offset="0.89" stop-color="#D4D142"/>
<stop offset="1" stop-color="#FADE1B"/>
</linearGradient>
<linearGradient id="paint4_linear_1960_2408" x1="13.375" y1="63.5447" x2="12.6172" y2="62.783" gradientUnits="userSpaceOnUse">
<stop offset="0.01" stop-color="#2F2228"/>
<stop offset="0.03" stop-color="#2F2C37"/>
<stop offset="0.09" stop-color="#314A67"/>
<stop offset="0.16" stop-color="#336490"/>
<stop offset="0.22" stop-color="#3579B1"/>
<stop offset="0.29" stop-color="#368ACB"/>
<stop offset="0.35" stop-color="#3795DD"/>
<stop offset="0.42" stop-color="#379CE8"/>
<stop offset="0.5" stop-color="#389FEC"/>
<stop offset="0.66" stop-color="#78B3A7"/>
<stop offset="0.89" stop-color="#D4D142"/>
<stop offset="1" stop-color="#FADE1B"/>
</linearGradient>
<linearGradient id="paint5_linear_1960_2408" x1="11.4726" y1="63.8571" x2="10.3437" y2="62.7322" gradientUnits="userSpaceOnUse">
<stop offset="0.01" stop-color="#2F2228"/>
<stop offset="0.03" stop-color="#2F2C37"/>
<stop offset="0.09" stop-color="#314A67"/>
<stop offset="0.16" stop-color="#336490"/>
<stop offset="0.22" stop-color="#3579B1"/>
<stop offset="0.29" stop-color="#368ACB"/>
<stop offset="0.35" stop-color="#3795DD"/>
<stop offset="0.42" stop-color="#379CE8"/>
<stop offset="0.5" stop-color="#389FEC"/>
<stop offset="0.66" stop-color="#78B3A7"/>
<stop offset="0.89" stop-color="#D4D142"/>
<stop offset="1" stop-color="#FADE1B"/>
</linearGradient>
<linearGradient id="paint6_linear_1960_2408" x1="56.768" y1="84.8213" x2="23.6363" y2="51.6896" gradientUnits="userSpaceOnUse">
<stop offset="0.01" stop-color="#2F2228"/>
<stop offset="0.03" stop-color="#2F2C37"/>
<stop offset="0.09" stop-color="#314A67"/>
<stop offset="0.16" stop-color="#336490"/>
<stop offset="0.22" stop-color="#3579B1"/>
<stop offset="0.29" stop-color="#368ACB"/>
<stop offset="0.35" stop-color="#3795DD"/>
<stop offset="0.42" stop-color="#379CE8"/>
<stop offset="0.5" stop-color="#389FEC"/>
<stop offset="0.66" stop-color="#78B3A7"/>
<stop offset="0.89" stop-color="#D4D142"/>
<stop offset="1" stop-color="#FADE1B"/>
</linearGradient>
<linearGradient id="paint7_linear_1960_2408" x1="28.4951" y1="7.62864" x2="85.5049" y2="106.371" gradientUnits="userSpaceOnUse">
<stop stop-color="#389FEC"/>
<stop offset="0.18" stop-color="#379DEA"/>
<stop offset="0.25" stop-color="#3799E3"/>
<stop offset="0.3" stop-color="#3792D7"/>
<stop offset="0.34" stop-color="#3787C6"/>
<stop offset="0.37" stop-color="#3679B0"/>
<stop offset="0.4" stop-color="#356895"/>
<stop offset="0.42" stop-color="#345374"/>
<stop offset="0.45" stop-color="#343C50"/>
<stop offset="0.47" stop-color="#382725"/>
<stop offset="0.5" stop-color="#605023"/>
<stop offset="0.52" stop-color="#857521"/>
<stop offset="0.55" stop-color="#A5961F"/>
<stop offset="0.59" stop-color="#BFB11E"/>
<stop offset="0.62" stop-color="#D5C71D"/>
<stop offset="0.67" stop-color="#E5D81C"/>
<stop offset="0.72" stop-color="#F1E41B"/>
<stop offset="0.79" stop-color="#F8EB1B"/>
<stop offset="1" stop-color="#FAED1B"/>
</linearGradient>
<clipPath id="clip0_1960_2408">
<rect width="114" height="114" rx="57" fill="white"/>
</clipPath>
</defs>
</svg>
