<svg aria-hidden="true" style="position: absolute; width: 0; height: 0; overflow: hidden;" version="1.1" xmlns="http://www.w3.org/2000/svg" xmlns:xlink="http://www.w3.org/1999/xlink">
<defs>
<symbol id="icon-copy" viewBox="0 0 32 32">
<path d="M27 4h-16c-0.265 0-0.52 0.105-0.707 0.293s-0.293 0.442-0.293 0.707v5h-5c-0.265 0-0.52 0.105-0.707 0.293s-0.293 0.442-0.293 0.707v16c0 0.265 0.105 0.52 0.293 0.707s0.442 0.293 0.707 0.293h16c0.265 0 0.52-0.105 0.707-0.293s0.293-0.442 0.293-0.707v-5h5c0.265 0 0.52-0.105 0.707-0.293s0.293-0.442 0.293-0.707v-16c0-0.265-0.105-0.52-0.293-0.707s-0.442-0.293-0.707-0.293zM20 26h-14v-14h14v14zM26 20h-4v-9c0-0.265-0.105-0.52-0.293-0.707s-0.442-0.293-0.707-0.293h-9v-4h14v14z"></path>
</symbol>
<symbol id="icon-copy-success" viewBox="0 0 32 32">
<path fill="#64c642" style="fill: var(--color1, #64c642)" d="M22.16 8.28c-0.138-0.109-0.296-0.19-0.466-0.238s-0.347-0.062-0.521-0.040-0.344 0.077-0.497 0.163c-0.153 0.087-0.288 0.203-0.396 0.342l-9.333 12-4.573-5.573c-0.107-0.143-0.242-0.263-0.397-0.352s-0.325-0.147-0.503-0.17c-0.177-0.022-0.357-0.009-0.529 0.040s-0.332 0.131-0.472 0.243c-0.139 0.112-0.255 0.25-0.34 0.407s-0.137 0.33-0.154 0.508c-0.017 0.178 0.002 0.357 0.056 0.528s0.141 0.328 0.257 0.464l5.56 6.907c0.126 0.155 0.284 0.279 0.464 0.365s0.377 0.129 0.576 0.129c0.211 0.009 0.422-0.032 0.614-0.12s0.361-0.221 0.492-0.387l10.44-13.333c0.106-0.141 0.184-0.302 0.227-0.474s0.053-0.35 0.027-0.525c-0.026-0.175-0.087-0.343-0.178-0.494s-0.212-0.283-0.355-0.387zM28.827 8.28c-0.138-0.109-0.296-0.19-0.466-0.238s-0.347-0.062-0.521-0.040-0.344 0.077-0.497 0.163c-0.153 0.087-0.288 0.203-0.396 0.342l-9.333 12-0.813-1-1.68 2.16 1.467 1.827c0.125 0.155 0.284 0.279 0.464 0.365s0.377 0.129 0.576 0.129c0.2-0.001 0.398-0.047 0.578-0.135s0.338-0.215 0.462-0.372l10.44-13.333c0.104-0.141 0.18-0.301 0.222-0.471s0.051-0.347 0.025-0.52c-0.026-0.173-0.086-0.34-0.176-0.49s-0.21-0.281-0.351-0.385z"></path>
<path fill="#64c642" style="fill: var(--color1, #64c642)" d="M11.613 17.413l1.72-2.16-0.267-0.32c-0.105-0.146-0.239-0.269-0.393-0.362s-0.325-0.154-0.503-0.178c-0.178-0.025-0.36-0.014-0.533 0.034s-0.336 0.129-0.477 0.24c-0.137 0.11-0.251 0.246-0.335 0.4s-0.137 0.323-0.156 0.498-0.002 0.351 0.047 0.52c0.050 0.169 0.133 0.325 0.243 0.462l0.653 0.867z"></path>
</symbol>
<symbol id="icon-close" viewBox="0 0 32 32">
<path d="M7.625 7.627c0.188-0.187 0.442-0.292 0.707-0.292s0.519 0.105 0.707 0.293l6.96 6.96 6.96-6.96c0.122-0.132 0.278-0.228 0.45-0.279s0.355-0.054 0.529-0.009c0.174 0.045 0.333 0.135 0.46 0.262s0.217 0.286 0.261 0.46c0.045 0.174 0.041 0.357-0.009 0.529s-0.146 0.328-0.278 0.45l-6.96 6.96 6.96 6.96c0.132 0.122 0.228 0.278 0.279 0.45s0.054 0.355 0.009 0.529-0.135 0.333-0.262 0.46c-0.127 0.127-0.286 0.217-0.46 0.261s-0.357 0.041-0.529-0.009-0.328-0.146-0.45-0.278l-6.96-6.96-6.96 6.96c-0.19 0.177-0.44 0.273-0.7 0.268s-0.506-0.109-0.69-0.292c-0.183-0.183-0.288-0.431-0.292-0.69s0.092-0.51 0.268-0.7l6.96-6.96-6.96-6.96c-0.187-0.188-0.292-0.442-0.292-0.707s0.105-0.519 0.293-0.707z"></path>
</symbol>
</defs>
</svg>
