<svg aria-hidden="true" style="position: absolute; width: 0; height: 0; overflow: hidden;" version="1.1" xmlns="http://www.w3.org/2000/svg" xmlns:xlink="http://www.w3.org/1999/xlink">
<defs>
<symbol id="icon-close" viewBox="0 0 32 32">
<path d="M0.539 0.587c0.346-0.345 0.814-0.538 1.303-0.538s0.957 0.194 1.303 0.538l12.831 12.812 12.831-12.812c0.225-0.242 0.512-0.419 0.83-0.513s0.655-0.099 0.975-0.017c0.321 0.082 0.614 0.249 0.847 0.483s0.4 0.527 0.481 0.847c0.082 0.32 0.076 0.656-0.017 0.973s-0.27 0.603-0.512 0.828l-12.831 12.812 12.831 12.812c0.243 0.225 0.42 0.511 0.513 0.828s0.099 0.654 0.017 0.974c-0.082 0.32-0.249 0.613-0.484 0.846s-0.528 0.399-0.849 0.481c-0.321 0.082-0.657 0.076-0.975-0.017s-0.604-0.269-0.829-0.511l-12.831-12.812-12.831 12.812c-0.35 0.325-0.812 0.502-1.29 0.494s-0.933-0.201-1.272-0.538c-0.337-0.338-0.53-0.793-0.539-1.27s0.169-0.938 0.494-1.288l12.831-12.812-12.831-12.812c-0.345-0.345-0.539-0.813-0.539-1.301s0.194-0.956 0.539-1.301z"></path>
</symbol>
<symbol id="icon-copy" viewBox="0 0 32 32">
<path d="M27 4h-16c-0.265 0-0.52 0.105-0.707 0.293s-0.293 0.442-0.293 0.707v5h-5c-0.265 0-0.52 0.105-0.707 0.293s-0.293 0.442-0.293 0.707v16c0 0.265 0.105 0.52 0.293 0.707s0.442 0.293 0.707 0.293h16c0.265 0 0.52-0.105 0.707-0.293s0.293-0.442 0.293-0.707v-5h5c0.265 0 0.52-0.105 0.707-0.293s0.293-0.442 0.293-0.707v-16c0-0.265-0.105-0.52-0.293-0.707s-0.442-0.293-0.707-0.293zM20 26h-14v-14h14v14zM26 20h-4v-9c0-0.265-0.105-0.52-0.293-0.707s-0.442-0.293-0.707-0.293h-9v-4h14v14z"></path>
</symbol>
<symbol id="icon-copy-success" viewBox="0 0 32 32">
<path d="M22.16 8.28c-0.138-0.109-0.296-0.19-0.466-0.238s-0.347-0.062-0.521-0.040-0.344 0.077-0.497 0.163c-0.153 0.087-0.288 0.203-0.396 0.342l-9.333 12-4.573-5.573c-0.107-0.143-0.242-0.263-0.397-0.352s-0.325-0.147-0.503-0.17c-0.177-0.022-0.357-0.009-0.529 0.040s-0.332 0.131-0.472 0.243c-0.139 0.112-0.255 0.25-0.34 0.407s-0.137 0.33-0.154 0.508c-0.017 0.178 0.002 0.357 0.056 0.528s0.141 0.328 0.257 0.464l5.56 6.907c0.126 0.155 0.284 0.279 0.464 0.365s0.377 0.129 0.576 0.129c0.211 0.009 0.422-0.032 0.614-0.12s0.361-0.221 0.492-0.387l10.44-13.333c0.106-0.141 0.184-0.302 0.227-0.474s0.053-0.35 0.027-0.525c-0.026-0.175-0.087-0.343-0.178-0.494s-0.212-0.283-0.355-0.387zM28.827 8.28c-0.138-0.109-0.296-0.19-0.466-0.238s-0.347-0.062-0.521-0.040-0.344 0.077-0.497 0.163c-0.153 0.087-0.288 0.203-0.396 0.342l-9.333 12-0.813-1-1.68 2.16 1.467 1.827c0.125 0.155 0.284 0.279 0.464 0.365s0.377 0.129 0.576 0.129c0.2-0.001 0.398-0.047 0.578-0.135s0.338-0.215 0.462-0.372l10.44-13.333c0.104-0.141 0.18-0.301 0.222-0.471s0.051-0.347 0.025-0.52c-0.026-0.173-0.086-0.34-0.176-0.49s-0.21-0.281-0.351-0.385z"></path>
<path d="M11.613 17.413l1.72-2.16-0.267-0.32c-0.105-0.146-0.239-0.269-0.393-0.362s-0.325-0.154-0.503-0.178c-0.178-0.025-0.36-0.014-0.533 0.034s-0.336 0.129-0.477 0.24c-0.137 0.11-0.251 0.246-0.335 0.4s-0.137 0.323-0.156 0.498-0.002 0.351 0.047 0.52c0.050 0.169 0.133 0.325 0.243 0.462l0.653 0.867z"></path>
</symbol>
<symbol id="icon-report" viewBox="0 0 32 32">
<path fill="#90caf9" style="fill: var(--color1, #90caf9)" d="M26.667 30h-21.333v-28h14.667l6.667 6.667v21.333z"></path>
<path fill="#e1f5fe" style="fill: var(--color2, #e1f5fe)" d="M25.667 9.333h-6.333v-6.333l6.333 6.333z"></path>
<path fill="#1976d2" style="fill: var(--color3, #1976d2)" d="M10.666 14h11.333v1.333h-11.333v-1.333zM10.666 16.667h8.667v1.333h-8.667v-1.333zM10.666 19.333h11.333v1.333h-11.333v-1.333zM10.666 22h8.667v1.333h-8.667v-1.333z"></path>
</symbol>
<symbol id="icon-receipt" viewBox="0 0 32 32">
<path fill="#fff" style="fill: var(--color4, #fff)" d="M26.537 3.585l-1.622-1.975-1.623 1.975-1.622-1.975-1.622 1.975-1.622-1.975-1.622 1.975-1.623-1.975-1.623 1.975-1.623-1.975-1.623 1.975-1.623-1.975-1.623 1.975-1.697-2.065h-0.167l0.027 29.010 19.77 0.030c4.17 0 3.335-8.702 3.335-8.702l0.005-20.34h-0.095l-1.708 2.067z"></path>
<path fill="#94d1e0" style="fill: var(--color5, #94d1e0)" d="M16.4 9.808c1.105 0 2-0.895 2-2s-0.895-2-2-2c-1.105 0-2 0.895-2 2s0.895 2 2 2z"></path>
<path fill="#6fbff0" style="fill: var(--color6, #6fbff0)" d="M28.78 0.76h-0.062c-0.020 0-0.373 0.007-0.925 0.6l-1.253 1.525-1.625-1.975-1.623 1.975-1.625-1.975-1.622 1.975-1.625-1.975-1.622 1.975-1.623-1.975-1.623 1.975-1.623-1.975-1.623 1.975-1.623-1.975-1.623 1.972-0.845-1.085c-0.86-1.032-1.397-0.935-1.42-0.932l-0.050 0.010 0.025 25.77-1.348 1.467-1.44-1.727c0 0-0.87 1.257 0.252 2.957 0.897 1.363 3.763 1.223 4.933 1.223l16.992 0.015c2.887-0.017 3.675-0.628 4.235-3.215 0.385-1.783 0.382-4.41 0.382-5.4v-21.205zM17.672 26.387l-1.582 1.727-1.582-1.727-1.582 1.727-1.582-1.727-1.582 1.727-1.582-1.727-1.582 1.727-0.923-1.008-0.022-24.543 1.415 1.72 1.622-1.975 1.623 1.975 1.623-1.975 1.623 1.975 1.623-1.975 1.623 1.975 1.622-1.975 1.625 1.975 1.623-1.975 1.625 1.975 1.622-1.975 1.625 1.975 1.342-1.635-0.005 19.19v0.225c0.002 1.045 0.013 3.495-0.362 5.11-0.385 1.672-0.993 2.348-2.238 2.493-0.37 0.042-2.313 0.090-4.113-3.275-0.030-0.058-0.078-0.045-0.087-0.043-0.003 0-0.005 0.002-0.008 0.002-0.017-0.075-0.027-0.12-0.027-0.12l-1.788 1.88-1.585-1.725z"></path>
</symbol>
<symbol id="icon-instagram" viewBox="0 0 32 32">
<path d="M10.41 2h12.18c4.64 0 8.41 3.77 8.41 8.41v12.18c0 2.23-0.886 4.37-2.463 5.947s-3.716 2.463-5.947 2.463h-12.18c-4.64 0-8.41-3.77-8.41-8.41v-12.18c0-2.23 0.886-4.37 2.463-5.947s3.716-2.463 5.947-2.463zM10.12 4.9c-1.384 0-2.712 0.55-3.691 1.529s-1.529 2.307-1.529 3.691v12.76c0 2.886 2.335 5.22 5.22 5.22h12.76c1.384 0 2.712-0.55 3.691-1.529s1.529-2.307 1.529-3.691v-12.76c0-2.886-2.334-5.22-5.22-5.22h-12.76zM24.113 7.075c0.481 0 0.942 0.191 1.282 0.531s0.531 0.801 0.531 1.282c0 0.481-0.191 0.942-0.531 1.282s-0.801 0.531-1.282 0.531c-0.481 0-0.942-0.191-1.282-0.531s-0.531-0.801-0.531-1.282c0-0.481 0.191-0.942 0.531-1.282s0.801-0.531 1.282-0.531zM16.5 9.25c1.923 0 3.767 0.764 5.127 2.123s2.123 3.204 2.123 5.127-0.764 3.767-2.123 5.127c-1.36 1.36-3.204 2.123-5.127 2.123s-3.767-0.764-5.127-2.123c-1.36-1.36-2.123-3.204-2.123-5.127s0.764-3.767 2.123-5.127c1.36-1.36 3.204-2.123 5.127-2.123zM16.5 12.15c-1.154 0-2.26 0.458-3.076 1.274s-1.274 1.922-1.274 3.076c0 1.154 0.458 2.26 1.274 3.076s1.922 1.274 3.076 1.274c1.154 0 2.26-0.458 3.076-1.274s1.274-1.922 1.274-3.076c0-1.154-0.458-2.26-1.274-3.076s-1.922-1.274-3.076-1.274z"></path>
</symbol>
<symbol id="icon-email" viewBox="0 0 31 32">
<path d="M29.091 8.393c0-1.416-1.222-2.575-2.715-2.575h-21.721c-1.493 0-2.715 1.159-2.715 2.575v15.449c0 1.416 1.222 2.575 2.715 2.575h21.721c1.493 0 2.715-1.159 2.715-2.575v-15.449zM26.376 8.393l-10.861 6.437-10.861-6.437h21.721zM26.376 23.843h-21.721v-12.874l10.861 6.437 10.861-6.437v12.874z"></path>
</symbol>
<symbol id="icon-facebook" viewBox="0 0 32 32">
<path d="M17.846 31h-4.923c-0.326 0-0.639-0.153-0.87-0.425s-0.361-0.641-0.361-1.025v-8.988h-2.462c-0.326 0-0.639-0.153-0.87-0.425s-0.36-0.641-0.36-1.025v-5.219c0-0.384 0.13-0.753 0.36-1.025s0.544-0.425 0.87-0.425h2.462v-2.464c0.086-2.209 0.912-4.287 2.295-5.782s3.214-2.282 5.089-2.192h3.692c0.326 0 0.639 0.153 0.87 0.425s0.36 0.641 0.36 1.025v5.219c0 0.384-0.13 0.753-0.36 1.025s-0.544 0.425-0.87 0.425h-3.692v2.319h3.692c0.19-0.002 0.378 0.049 0.549 0.146s0.32 0.242 0.436 0.419c0.115 0.18 0.192 0.389 0.226 0.61s0.024 0.449-0.029 0.665l-1.231 5.219c-0.074 0.314-0.236 0.588-0.46 0.78s-0.495 0.29-0.771 0.278h-2.412v8.988c0 0.384-0.13 0.753-0.36 1.025s-0.544 0.425-0.87 0.425zM14.154 28.101h2.462v-8.988c0-0.384 0.13-0.753 0.36-1.025s0.544-0.425 0.87-0.425h2.757l0.541-2.319h-3.298c-0.326 0-0.639-0.153-0.87-0.425s-0.36-0.641-0.36-1.025v-3.914c0.032-0.744 0.305-1.444 0.763-1.957s1.066-0.798 1.698-0.797h2.462v-2.319h-2.462c-1.222-0.088-2.425 0.396-3.346 1.346s-1.488 2.289-1.577 3.728v3.914c0 0.384-0.13 0.753-0.36 1.025s-0.544 0.425-0.87 0.425h-2.462v2.319h2.462c0.326 0 0.639 0.153 0.87 0.425s0.36 0.641 0.36 1.025v8.988z"></path>
</symbol>
<symbol id="icon-twitter" viewBox="0 0 31 32">
<path d="M23.005 3.879h4.102l-8.961 10.268 10.543 13.975h-8.254l-6.47-8.474-7.394 8.474h-4.106l9.584-10.986-10.109-13.255h8.464l5.839 7.744 6.762-7.746zM21.562 25.661h2.274l-14.674-19.449h-2.438l14.838 19.449z"></path>
</symbol>
</defs>
</svg>
