<svg aria-hidden="true" style="position: absolute; width: 0; height: 0; overflow: hidden;" version="1.1"
    xmlns="http://www.w3.org/2000/svg"
    xmlns:xlink="http://www.w3.org/1999/xlink">
    <defs>
        <symbol id="icon-menu" viewBox="0 0 32 32"
            xmlns="http://www.w3.org/2000/svg">
            <path d="M26.667 23.636c0.34 0 0.667 0.131 0.914 0.364s0.396 0.552 0.416 0.891-0.090 0.673-0.309 0.934c-0.218 0.261-0.527 0.428-0.865 0.468l-0.156 0.009h-21.333c-0.34-0-0.667-0.131-0.914-0.364s-0.396-0.552-0.416-0.891 0.090-0.673 0.309-0.934c0.218-0.261 0.527-0.428 0.865-0.468l0.156-0.009h21.333zM26.667 14.303c0.354 0 0.693 0.14 0.943 0.39s0.391 0.589 0.391 0.943-0.14 0.693-0.391 0.943c-0.25 0.25-0.589 0.39-0.943 0.39h-21.333c-0.354 0-0.693-0.14-0.943-0.39s-0.391-0.589-0.391-0.943c0-0.354 0.14-0.693 0.391-0.943s0.589-0.39 0.943-0.39h21.333zM26.667 4.97c0.354 0 0.693 0.14 0.943 0.391s0.391 0.589 0.391 0.943c0 0.354-0.14 0.693-0.391 0.943s-0.589 0.391-0.943 0.391h-21.333c-0.354 0-0.693-0.14-0.943-0.391s-0.391-0.589-0.391-0.943c0-0.354 0.14-0.693 0.391-0.943s0.589-0.391 0.943-0.391h21.333z"></path>
        </symbol>
        <symbol id="icon-close" viewBox="0 0 32 32">
            <path d="M7.626 7.627c0.188-0.187 0.442-0.292 0.707-0.292s0.519 0.105 0.707 0.293l6.96 6.96 6.96-6.96c0.122-0.132 0.278-0.228 0.45-0.279s0.355-0.054 0.529-0.009c0.174 0.045 0.333 0.135 0.46 0.262s0.217 0.286 0.261 0.46c0.044 0.174 0.041 0.357-0.009 0.529s-0.146 0.328-0.278 0.45l-6.96 6.96 6.96 6.96c0.132 0.122 0.228 0.278 0.279 0.45s0.054 0.355 0.009 0.529-0.135 0.333-0.262 0.46c-0.127 0.127-0.286 0.217-0.46 0.261s-0.356 0.041-0.529-0.009-0.328-0.146-0.45-0.278l-6.96-6.96-6.96 6.96c-0.19 0.177-0.44 0.273-0.7 0.268s-0.506-0.109-0.69-0.292c-0.183-0.183-0.288-0.431-0.292-0.69s0.092-0.51 0.268-0.7l6.96-6.96-6.96-6.96c-0.187-0.188-0.292-0.442-0.292-0.707s0.105-0.519 0.292-0.707z"></path>
        </symbol>
        <symbol id="icon-close1" viewBox="0 0 32 32">
            <path d="M0.539 0.587c0.346-0.345 0.814-0.538 1.303-0.538s0.957 0.194 1.303 0.538l12.831 12.812 12.831-12.812c0.225-0.242 0.512-0.419 0.83-0.513s0.655-0.099 0.975-0.017c0.321 0.082 0.614 0.249 0.847 0.483s0.4 0.527 0.481 0.847c0.082 0.32 0.076 0.656-0.017 0.973s-0.27 0.603-0.512 0.828l-12.831 12.812 12.831 12.812c0.243 0.225 0.42 0.511 0.513 0.828s0.099 0.654 0.017 0.974c-0.082 0.32-0.249 0.613-0.484 0.846s-0.528 0.399-0.849 0.481c-0.321 0.082-0.657 0.076-0.975-0.017s-0.604-0.269-0.829-0.511l-12.831-12.812-12.831 12.812c-0.35 0.325-0.812 0.502-1.29 0.494s-0.933-0.201-1.272-0.538c-0.337-0.338-0.53-0.793-0.539-1.27s0.169-0.938 0.494-1.288l12.831-12.812-12.831-12.812c-0.345-0.345-0.539-0.813-0.539-1.301s0.194-0.956 0.539-1.301z"></path>
        </symbol>
        <symbol id="icon-copy" viewBox="0 0 32 32">
            <path d="M27 4h-16c-0.265 0-0.52 0.105-0.707 0.293s-0.293 0.442-0.293 0.707v5h-5c-0.265 0-0.52 0.105-0.707 0.293s-0.293 0.442-0.293 0.707v16c0 0.265 0.105 0.52 0.293 0.707s0.442 0.293 0.707 0.293h16c0.265 0 0.52-0.105 0.707-0.293s0.293-0.442 0.293-0.707v-5h5c0.265 0 0.52-0.105 0.707-0.293s0.293-0.442 0.293-0.707v-16c0-0.265-0.105-0.52-0.293-0.707s-0.442-0.293-0.707-0.293zM20 26h-14v-14h14v14zM26 20h-4v-9c0-0.265-0.105-0.52-0.293-0.707s-0.442-0.293-0.707-0.293h-9v-4h14v14z"></path>
        </symbol>
        <symbol id="icon-icon-copy-success" viewBox="0 0 32 32">
            <path fill="#64c642" style="fill: var(--color1, #64c642)" d="M22.16 8.28c-0.138-0.109-0.296-0.19-0.466-0.238s-0.347-0.062-0.521-0.040-0.344 0.077-0.497 0.163c-0.153 0.087-0.288 0.203-0.396 0.342l-9.333 12-4.573-5.573c-0.107-0.143-0.242-0.263-0.397-0.352s-0.325-0.147-0.503-0.17c-0.177-0.022-0.357-0.009-0.529 0.040s-0.332 0.131-0.472 0.243c-0.139 0.112-0.255 0.25-0.34 0.407s-0.137 0.33-0.154 0.508c-0.017 0.178 0.002 0.357 0.056 0.528s0.141 0.328 0.257 0.464l5.56 6.907c0.126 0.155 0.284 0.279 0.464 0.365s0.377 0.129 0.576 0.129c0.211 0.009 0.422-0.032 0.614-0.12s0.361-0.221 0.492-0.387l10.44-13.333c0.106-0.141 0.184-0.302 0.227-0.474s0.053-0.35 0.027-0.525c-0.026-0.175-0.087-0.343-0.178-0.494s-0.212-0.283-0.355-0.387zM28.827 8.28c-0.138-0.109-0.296-0.19-0.466-0.238s-0.347-0.062-0.521-0.040-0.344 0.077-0.497 0.163c-0.153 0.087-0.288 0.203-0.396 0.342l-9.333 12-0.813-1-1.68 2.16 1.467 1.827c0.125 0.155 0.284 0.279 0.464 0.365s0.377 0.129 0.576 0.129c0.2-0.001 0.398-0.047 0.578-0.135s0.338-0.215 0.462-0.372l10.44-13.333c0.104-0.141 0.18-0.301 0.222-0.471s0.051-0.347 0.025-0.52c-0.026-0.173-0.086-0.34-0.176-0.49s-0.21-0.281-0.351-0.385z"></path>
            <path fill="#64c642" style="fill: var(--color1, #64c642)" d="M11.613 17.413l1.72-2.16-0.267-0.32c-0.105-0.146-0.239-0.269-0.393-0.362s-0.325-0.154-0.503-0.178c-0.178-0.025-0.36-0.014-0.533 0.034s-0.336 0.129-0.477 0.24c-0.137 0.11-0.251 0.246-0.335 0.4s-0.137 0.323-0.156 0.498-0.002 0.351 0.047 0.52c0.050 0.169 0.133 0.325 0.243 0.462l0.653 0.867z"></path>
        </symbol>
        <symbol id="icon-report" viewBox="0 0 32 32">
            <path fill="#90caf9" style="fill: var(--color2, #90caf9)" d="M26.667 30h-21.333v-28h14.667l6.667 6.667v21.333z"></path>
            <path fill="#e1f5fe" style="fill: var(--color3, #e1f5fe)" d="M25.667 9.333h-6.333v-6.333l6.333 6.333z"></path>
            <path fill="#1976d2" style="fill: var(--color4, #1976d2)" d="M10.666 14h11.333v1.333h-11.333v-1.333zM10.666 16.667h8.667v1.333h-8.667v-1.333zM10.666 19.333h11.333v1.333h-11.333v-1.333zM10.666 22h8.667v1.333h-8.667v-1.333z"></path>
        </symbol>
        <symbol id="icon-receipt" viewBox="0 0 32 32">
            <path fill="#fff" style="fill: var(--color5, #fff)" d="M26.537 3.585l-1.622-1.975-1.623 1.975-1.622-1.975-1.622 1.975-1.622-1.975-1.622 1.975-1.623-1.975-1.623 1.975-1.623-1.975-1.623 1.975-1.623-1.975-1.623 1.975-1.697-2.065h-0.167l0.027 29.010 19.77 0.030c4.17 0 3.335-8.702 3.335-8.702l0.005-20.34h-0.095l-1.708 2.067z"></path>
            <path fill="#94d1e0" style="fill: var(--color6, #94d1e0)" d="M16.4 9.808c1.105 0 2-0.895 2-2s-0.895-2-2-2c-1.105 0-2 0.895-2 2s0.895 2 2 2z"></path>
            <path fill="#6fbff0" style="fill: var(--color7, #6fbff0)" d="M28.78 0.76h-0.062c-0.020 0-0.373 0.007-0.925 0.6l-1.253 1.525-1.625-1.975-1.623 1.975-1.625-1.975-1.622 1.975-1.625-1.975-1.622 1.975-1.623-1.975-1.623 1.975-1.623-1.975-1.623 1.975-1.623-1.975-1.623 1.972-0.845-1.085c-0.86-1.032-1.397-0.935-1.42-0.932l-0.050 0.010 0.025 25.77-1.348 1.467-1.44-1.727c0 0-0.87 1.257 0.252 2.957 0.897 1.363 3.763 1.223 4.933 1.223l16.992 0.015c2.887-0.017 3.675-0.628 4.235-3.215 0.385-1.783 0.382-4.41 0.382-5.4v-21.205zM17.672 26.387l-1.582 1.727-1.582-1.727-1.582 1.727-1.582-1.727-1.582 1.727-1.582-1.727-1.582 1.727-0.923-1.008-0.022-24.543 1.415 1.72 1.622-1.975 1.623 1.975 1.623-1.975 1.623 1.975 1.623-1.975 1.623 1.975 1.622-1.975 1.625 1.975 1.623-1.975 1.625 1.975 1.622-1.975 1.625 1.975 1.342-1.635-0.005 19.19v0.225c0.002 1.045 0.013 3.495-0.362 5.11-0.385 1.672-0.993 2.348-2.238 2.493-0.37 0.042-2.313 0.090-4.113-3.275-0.030-0.058-0.078-0.045-0.087-0.043-0.003 0-0.005 0.002-0.008 0.002-0.017-0.075-0.027-0.12-0.027-0.12l-1.788 1.88-1.585-1.725z"></path>
        </symbol>
        <symbol id="icon-email" viewBox="0 0 32 32">
            <path d="M29.334 8c0-1.467-1.2-2.667-2.667-2.667h-21.333c-1.467 0-2.667 1.2-2.667 2.667v16c0 1.467 1.2 2.667 2.667 2.667h21.333c1.467 0 2.667-1.2 2.667-2.667v-16zM26.667 8l-10.667 6.667-10.667-6.667h21.333zM26.667 24h-21.333v-13.333l10.667 6.667 10.667-6.667v13.333z"></path>
        </symbol>
        <symbol id="icon-instagram" viewBox="0 0 32 32">
            <path d="M10.4 2.667h11.2c4.267 0 7.733 3.467 7.733 7.733v11.2c0 2.051-0.815 4.018-2.265 5.468s-3.417 2.265-5.468 2.265h-11.2c-4.267 0-7.733-3.467-7.733-7.733v-11.2c0-2.051 0.815-4.018 2.265-5.468s3.417-2.265 5.468-2.265zM10.133 5.333c-1.273 0-2.494 0.506-3.394 1.406s-1.406 2.121-1.406 3.394v11.733c0 2.653 2.147 4.8 4.8 4.8h11.733c1.273 0 2.494-0.506 3.394-1.406s1.406-2.121 1.406-3.394v-11.733c0-2.653-2.147-4.8-4.8-4.8h-11.733zM23 7.333c0.442 0 0.866 0.176 1.179 0.488s0.488 0.736 0.488 1.178c0 0.442-0.176 0.866-0.488 1.178s-0.737 0.488-1.179 0.488c-0.442 0-0.866-0.176-1.179-0.488s-0.488-0.736-0.488-1.178c0-0.442 0.176-0.866 0.488-1.178s0.737-0.488 1.179-0.488zM16 9.333c1.768 0 3.464 0.702 4.714 1.953s1.953 2.946 1.953 4.714-0.702 3.464-1.953 4.714c-1.25 1.25-2.946 1.953-4.714 1.953s-3.464-0.702-4.714-1.953c-1.25-1.25-1.953-2.946-1.953-4.714s0.702-3.464 1.953-4.714c1.25-1.25 2.946-1.953 4.714-1.953zM16 12c-1.061 0-2.078 0.421-2.828 1.172s-1.172 1.768-1.172 2.828c0 1.061 0.421 2.078 1.172 2.828s1.768 1.172 2.828 1.172c1.061 0 2.078-0.421 2.828-1.172s1.172-1.768 1.172-2.828c0-1.061-0.421-2.078-1.172-2.828s-1.768-1.172-2.828-1.172z"></path>
        </symbol>
        <symbol id="icon-facebook" viewBox="0 0 32 32">
            <path d="M17.846 31h-4.923c-0.326 0-0.639-0.153-0.87-0.425s-0.361-0.641-0.361-1.025v-8.988h-2.462c-0.326 0-0.639-0.153-0.87-0.425s-0.36-0.641-0.36-1.025v-5.219c0-0.384 0.13-0.753 0.36-1.025s0.544-0.425 0.87-0.425h2.462v-2.464c0.086-2.209 0.912-4.287 2.295-5.782s3.214-2.282 5.089-2.192h3.692c0.326 0 0.639 0.153 0.87 0.425s0.36 0.641 0.36 1.025v5.219c0 0.384-0.13 0.753-0.36 1.025s-0.544 0.425-0.87 0.425h-3.692v2.319h3.692c0.19-0.002 0.378 0.049 0.549 0.146s0.32 0.242 0.436 0.419c0.115 0.18 0.192 0.389 0.226 0.61s0.024 0.449-0.029 0.665l-1.231 5.219c-0.074 0.314-0.236 0.588-0.46 0.78s-0.495 0.29-0.771 0.278h-2.412v8.988c0 0.384-0.13 0.753-0.36 1.025s-0.544 0.425-0.87 0.425zM14.154 28.101h2.462v-8.988c0-0.384 0.13-0.753 0.36-1.025s0.544-0.425 0.87-0.425h2.757l0.541-2.319h-3.298c-0.326 0-0.639-0.153-0.87-0.425s-0.36-0.641-0.36-1.025v-3.914c0.032-0.744 0.305-1.444 0.763-1.957s1.066-0.798 1.698-0.797h2.462v-2.319h-2.462c-1.222-0.088-2.425 0.396-3.346 1.346s-1.488 2.289-1.577 3.728v3.914c0 0.384-0.13 0.753-0.36 1.025s-0.544 0.425-0.87 0.425h-2.462v2.319h2.462c0.326 0 0.639 0.153 0.87 0.425s0.36 0.641 0.36 1.025v8.988z"></path>
        </symbol>
        <symbol id="icon-twitter" viewBox="0 0 31 32">
            <path d="M23.005 3.879h4.102l-8.961 10.268 10.543 13.975h-8.254l-6.47-8.474-7.394 8.474h-4.106l9.584-10.986-10.109-13.255h8.464l5.839 7.744 6.762-7.746zM21.562 25.661h2.274l-14.674-19.449h-2.438l14.838 19.449z"></path>
        </symbol>
        <symbol id="icon-whatsapp" viewBox="0 0 32 32">
            <path d="M16.053 2.667c-7.28 0-13.213 5.933-13.213 13.213 0 2.333 0.613 4.6 1.76 6.6l-1.867 6.853 7-1.84c1.933 1.053 4.107 1.613 6.32 1.613 7.28 0 13.213-5.933 13.213-13.213 0-3.533-1.373-6.853-3.867-9.347-1.222-1.235-2.678-2.214-4.283-2.88s-3.326-1.006-5.064-1zM16.067 4.893c2.933 0 5.68 1.147 7.76 3.227 1.021 1.020 1.83 2.232 2.382 3.566s0.834 2.764 0.832 4.207c0 6.053-4.933 10.973-10.987 10.973-1.973 0-3.907-0.52-5.587-1.533l-0.4-0.227-4.16 1.093 1.107-4.053-0.267-0.427c-1.101-1.748-1.684-3.774-1.68-5.84 0.013-6.053 4.933-10.987 11-10.987zM11.373 9.773c-0.213 0-0.573 0.080-0.88 0.413-0.293 0.333-1.16 1.147-1.16 2.76 0 1.627 1.187 3.187 1.333 3.413 0.187 0.227 2.347 3.56 5.667 4.973 0.787 0.36 1.4 0.56 1.88 0.707 0.787 0.253 1.507 0.213 2.080 0.133 0.64-0.093 1.947-0.8 2.227-1.573s0.28-1.427 0.2-1.573c-0.093-0.133-0.307-0.213-0.64-0.36-0.333-0.187-1.96-0.987-2.253-1.093-0.307-0.107-0.493-0.16-0.747 0.16-0.213 0.333-0.853 1.080-1.040 1.293-0.2 0.227-0.387 0.253-0.707 0.093-0.347-0.173-1.413-0.52-2.667-1.64-0.987-0.88-1.64-1.96-1.84-2.293-0.16-0.32-0.013-0.52 0.147-0.667 0.147-0.147 0.36-0.387 0.493-0.587 0.173-0.187 0.227-0.333 0.333-0.547 0.107-0.227 0.053-0.413-0.027-0.573-0.080-0.147-0.747-1.8-1.027-2.453-0.267-0.64-0.533-0.56-0.747-0.573-0.187 0-0.4-0.013-0.627-0.013z"></path>
        </symbol>
        <symbol id="icon-location1" viewBox="0 0 32 32">
            <path d="M16 2.571c2.955 0 5.79 1.174 7.879 3.264s3.264 4.924 3.264 7.879c0 4.709-3.308 9.84-9.84 15.449-0.363 0.312-0.826 0.483-1.305 0.483s-0.941-0.173-1.304-0.485l-0.432-0.375c-6.242-5.463-9.405-10.469-9.405-15.072 0-2.955 1.174-5.79 3.264-7.879s4.924-3.264 7.879-3.264zM16 4.286c-2.501 0-4.899 0.993-6.667 2.762s-2.762 4.166-2.762 6.667c0 4.002 2.912 8.614 8.816 13.779l0.426 0.369c0.052 0.045 0.118 0.069 0.186 0.069s0.134-0.024 0.186-0.069c6.19-5.317 9.242-10.051 9.242-14.149 0-1.238-0.244-2.464-0.718-3.608s-1.168-2.183-2.044-3.059-1.915-1.57-3.059-2.044c-1.144-0.474-2.37-0.718-3.608-0.718zM16 9.429c1.137 0 2.227 0.452 3.030 1.255s1.255 1.894 1.255 3.030c0 1.137-0.451 2.227-1.255 3.030s-1.894 1.255-3.030 1.255c-1.137 0-2.227-0.451-3.030-1.255s-1.255-1.894-1.255-3.030c0-1.137 0.451-2.227 1.255-3.030s1.894-1.255 3.030-1.255zM16 11.143c-0.682 0-1.336 0.271-1.818 0.753s-0.753 1.136-0.753 1.818c0 0.682 0.271 1.336 0.753 1.818s1.136 0.753 1.818 0.753 1.336-0.271 1.818-0.753c0.482-0.482 0.753-1.136 0.753-1.818s-0.271-1.336-0.753-1.818c-0.482-0.482-1.136-0.753-1.818-0.753z"></path>
        </symbol>
        <symbol id="icon-location-blue" viewBox="0 0 32 32">
            <path fill="#1c59a6" style="fill: var(--color8, #1c59a6)" d="M16.444 1.778c3.065 0 6.004 1.233 8.171 3.429s3.385 5.173 3.385 8.278c0 4.947-3.431 10.338-10.204 16.231-0.377 0.328-0.857 0.508-1.353 0.507s-0.976-0.181-1.352-0.51l-0.448-0.394c-6.473-5.739-9.753-10.998-9.753-15.834 0-3.105 1.217-6.082 3.385-8.278s5.106-3.429 8.171-3.429zM16.444 3.579c-2.593 0-5.080 1.044-6.914 2.901s-2.864 4.377-2.864 7.004c0 4.205 3.020 9.049 9.143 14.476l0.442 0.388c0.054 0.047 0.122 0.073 0.193 0.073s0.139-0.026 0.193-0.073c6.419-5.585 9.585-10.56 9.585-14.864 0-1.301-0.253-2.589-0.744-3.791s-1.212-2.294-2.12-3.214c-0.908-0.92-1.986-1.649-3.172-2.147s-2.458-0.754-3.742-0.754zM16.444 8.982c1.179 0 2.309 0.474 3.143 1.319s1.302 1.99 1.302 3.184-0.468 2.339-1.302 3.184c-0.833 0.844-1.964 1.319-3.143 1.319s-2.309-0.474-3.143-1.319c-0.834-0.844-1.302-1.99-1.302-3.184s0.468-2.339 1.302-3.184c0.833-0.844 1.964-1.319 3.143-1.319zM16.444 10.783c-0.707 0-1.386 0.285-1.886 0.791s-0.781 1.194-0.781 1.91c0 0.717 0.281 1.404 0.781 1.91s1.178 0.791 1.886 0.791 1.386-0.285 1.886-0.791c0.5-0.507 0.781-1.194 0.781-1.91s-0.281-1.404-0.781-1.91c-0.5-0.507-1.178-0.791-1.886-0.791z"></path>
        </symbol>
        <symbol id="icon-calendar" viewBox="0 0 32 32">
            <path fill="none" stroke="#221f25" style="stroke: var(--color9, #221f25)" stroke-linejoin="round" stroke-linecap="butt" stroke-miterlimit="4" stroke-width="1.5" d="M26 5h-20c-1.657 0-3 1.343-3 3v18c0 1.657 1.343 3 3 3h20c1.657 0 3-1.343 3-3v-18c0-1.657-1.343-3-3-3z"></path>
            <path d="M18.5 16c0.828 0 1.5-0.672 1.5-1.5s-0.672-1.5-1.5-1.5c-0.828 0-1.5 0.672-1.5 1.5s0.672 1.5 1.5 1.5z"></path>
            <path d="M23.5 16c0.828 0 1.5-0.672 1.5-1.5s-0.672-1.5-1.5-1.5c-0.828 0-1.5 0.672-1.5 1.5s0.672 1.5 1.5 1.5z"></path>
            <path d="M18.5 21c0.828 0 1.5-0.672 1.5-1.5s-0.672-1.5-1.5-1.5c-0.828 0-1.5 0.672-1.5 1.5s0.672 1.5 1.5 1.5z"></path>
            <path d="M23.5 21c0.828 0 1.5-0.672 1.5-1.5s-0.672-1.5-1.5-1.5c-0.828 0-1.5 0.672-1.5 1.5s0.672 1.5 1.5 1.5z"></path>
            <path d="M8.5 21c0.828 0 1.5-0.672 1.5-1.5s-0.672-1.5-1.5-1.5c-0.828 0-1.5 0.672-1.5 1.5s0.672 1.5 1.5 1.5z"></path>
            <path d="M13.5 21c0.828 0 1.5-0.672 1.5-1.5s-0.672-1.5-1.5-1.5c-0.828 0-1.5 0.672-1.5 1.5s0.672 1.5 1.5 1.5z"></path>
            <path d="M8.5 26c0.828 0 1.5-0.672 1.5-1.5s-0.672-1.5-1.5-1.5c-0.828 0-1.5 0.672-1.5 1.5s0.672 1.5 1.5 1.5z"></path>
            <path d="M13.5 26c0.828 0 1.5-0.672 1.5-1.5s-0.672-1.5-1.5-1.5c-0.828 0-1.5 0.672-1.5 1.5s0.672 1.5 1.5 1.5z"></path>
            <path d="M18.5 26c0.828 0 1.5-0.672 1.5-1.5s-0.672-1.5-1.5-1.5c-0.828 0-1.5 0.672-1.5 1.5s0.672 1.5 1.5 1.5z"></path>
            <path fill="none" stroke="#221f25" style="stroke: var(--color9, #221f25)" stroke-linejoin="round" stroke-linecap="round" stroke-miterlimit="4" stroke-width="1.5" d="M8 3v2M24 3v2"></path>
            <path fill="none" stroke="#221f25" style="stroke: var(--color9, #221f25)" stroke-linejoin="round" stroke-linecap="butt" stroke-miterlimit="4" stroke-width="1.5" d="M29 10h-26"></path>
        </symbol>
        <symbol id="icon-calendar-blue" viewBox="0 0 32 32">
            <path fill="none" stroke="#1c59a6" style="stroke: var(--color8, #1c59a6)" stroke-linejoin="round" stroke-linecap="butt" stroke-miterlimit="4" stroke-width="1.7778" d="M26.701 3.556h-20.513c-1.699 0-3.077 1.443-3.077 3.222v19.333c0 1.78 1.378 3.222 3.077 3.222h20.513c1.699 0 3.077-1.443 3.077-3.222v-19.333c0-1.78-1.378-3.222-3.077-3.222z"></path>
            <path fill="#1c59a6" style="fill: var(--color8, #1c59a6)" d="M20 16.889c0.982 0 1.778-0.796 1.778-1.778s-0.796-1.778-1.778-1.778c-0.982 0-1.778 0.796-1.778 1.778s0.796 1.778 1.778 1.778z"></path>
            <path fill="#1c59a6" style="fill: var(--color8, #1c59a6)" d="M25.333 16.889c0.982 0 1.778-0.796 1.778-1.778s-0.796-1.778-1.778-1.778c-0.982 0-1.778 0.796-1.778 1.778s0.796 1.778 1.778 1.778z"></path>
            <path fill="#1c59a6" style="fill: var(--color8, #1c59a6)" d="M20 22.222c0.982 0 1.778-0.796 1.778-1.778s-0.796-1.778-1.778-1.778c-0.982 0-1.778 0.796-1.778 1.778s0.796 1.778 1.778 1.778z"></path>
            <path fill="#1c59a6" style="fill: var(--color8, #1c59a6)" d="M25.333 22.222c0.982 0 1.778-0.796 1.778-1.778s-0.796-1.778-1.778-1.778c-0.982 0-1.778 0.796-1.778 1.778s0.796 1.778 1.778 1.778z"></path>
            <path fill="#1c59a6" style="fill: var(--color8, #1c59a6)" d="M9.333 22.222c0.982 0 1.778-0.796 1.778-1.778s-0.796-1.778-1.778-1.778c-0.982 0-1.778 0.796-1.778 1.778s0.796 1.778 1.778 1.778z"></path>
            <path fill="#1c59a6" style="fill: var(--color8, #1c59a6)" d="M14.667 22.222c0.982 0 1.778-0.796 1.778-1.778s-0.796-1.778-1.778-1.778c-0.982 0-1.778 0.796-1.778 1.778s0.796 1.778 1.778 1.778z"></path>
            <path fill="#1c59a6" style="fill: var(--color8, #1c59a6)" d="M9.333 27.556c0.982 0 1.778-0.796 1.778-1.778s-0.796-1.778-1.778-1.778c-0.982 0-1.778 0.796-1.778 1.778s0.796 1.778 1.778 1.778z"></path>
            <path fill="#1c59a6" style="fill: var(--color8, #1c59a6)" d="M14.667 27.556c0.982 0 1.778-0.796 1.778-1.778s-0.796-1.778-1.778-1.778c-0.982 0-1.778 0.796-1.778 1.778s0.796 1.778 1.778 1.778z"></path>
            <path fill="#1c59a6" style="fill: var(--color8, #1c59a6)" d="M20 27.556c0.982 0 1.778-0.796 1.778-1.778s-0.796-1.778-1.778-1.778c-0.982 0-1.778 0.796-1.778 1.778s0.796 1.778 1.778 1.778z"></path>
            <path fill="none" stroke="#1c59a6" style="stroke: var(--color8, #1c59a6)" stroke-linejoin="round" stroke-linecap="round" stroke-miterlimit="4" stroke-width="1.7778" d="M8.444 1.778v1.778M24.444 1.778v1.778"></path>
            <path fill="none" stroke="#1c59a6" style="stroke: var(--color8, #1c59a6)" stroke-linejoin="round" stroke-linecap="butt" stroke-miterlimit="4" stroke-width="1.7778" d="M29.778 10.667h-26.667"></path>
        </symbol>
        <symbol id="icon-clock-blue" viewBox="0 0 32 32">
            <path fill="#1c59a6" style="fill: var(--color8, #1c59a6)" d="M15.782 9.324c0-0.219-0.094-0.428-0.261-0.583s-0.394-0.241-0.63-0.241c-0.236 0-0.463 0.087-0.63 0.241s-0.261 0.364-0.261 0.583v9.065c0 0.145 0.042 0.288 0.12 0.413s0.192 0.23 0.329 0.302l6.236 3.296c0.205 0.102 0.444 0.127 0.668 0.067s0.414-0.197 0.529-0.384c0.115-0.187 0.147-0.408 0.089-0.616s-0.203-0.387-0.402-0.498l-5.787-3.059v-8.587z"></path>
            <path fill="#1c59a6" style="fill: var(--color8, #1c59a6)" d="M15.5 29.5c3.58 0 7.014-1.422 9.546-3.954s3.954-5.965 3.954-9.546-1.422-7.014-3.954-9.546c-2.532-2.532-5.965-3.954-9.546-3.954s-7.014 1.422-9.546 3.954c-2.532 2.532-3.954 5.966-3.954 9.546s1.422 7.014 3.954 9.546c2.532 2.532 5.966 3.954 9.546 3.954zM27.313 16c0 3.133-1.244 6.137-3.46 8.353s-5.22 3.46-8.353 3.46c-3.133 0-6.137-1.244-8.353-3.46s-3.46-5.22-3.46-8.353c0-3.133 1.245-6.137 3.46-8.353s5.22-3.46 8.353-3.46c3.133 0 6.137 1.245 8.353 3.46s3.46 5.22 3.46 8.353z"></path>
        </symbol>
        <symbol id="icon-magnifying-glass" viewBox="0 0 31 32">
            <path stroke-linejoin="round" stroke-linecap="round" stroke-miterlimit="4" stroke-width="2.88" d="M21.6 22.24l5.76 5.76"></path>
            <path stroke-linejoin="round" stroke-linecap="round" stroke-miterlimit="4" stroke-width="2.88" d="M14.4 24.16c5.037 0 9.12-4.083 9.12-9.12s-4.083-9.12-9.12-9.12c-5.037 0-9.12 4.083-9.12 9.12s4.083 9.12 9.12 9.12z"></path>
        </symbol>
        <symbol id="icon-arrow-left" viewBox="0 0 32 32">
            <path d="M21.944 9.775v11.227c0.001 0.443-0.124 0.878-0.36 1.253s-0.573 0.676-0.973 0.867c-0.474 0.224-1.002 0.31-1.523 0.249s-1.014-0.268-1.424-0.596l-6.8-5.613c-0.254-0.22-0.458-0.493-0.598-0.799s-0.212-0.638-0.212-0.975c0-0.336 0.072-0.669 0.212-0.975s0.344-0.578 0.598-0.799l6.8-5.613c0.409-0.328 0.903-0.534 1.424-0.596s1.049 0.025 1.523 0.249c0.4 0.191 0.737 0.492 0.973 0.867s0.361 0.81 0.36 1.253z"></path>
        </symbol>
        <symbol id="icon-arrow-right" viewBox="0 0 31 32">
            <path d="M9.751 20.85v-10.886c-0.001-0.43 0.12-0.851 0.349-1.215s0.556-0.655 0.944-0.841c0.46-0.217 0.972-0.301 1.477-0.242s0.984 0.26 1.381 0.578l6.594 5.443c0.246 0.214 0.444 0.478 0.58 0.774s0.206 0.619 0.206 0.945c0 0.326-0.070 0.648-0.206 0.945s-0.333 0.561-0.58 0.774l-6.594 5.443c-0.397 0.318-0.875 0.518-1.381 0.578s-1.017-0.024-1.477-0.242c-0.388-0.186-0.715-0.477-0.944-0.841s-0.35-0.785-0.349-1.215z"></path>
        </symbol>
    </defs>
</svg>
