<svg aria-hidden="true" style="position: absolute; width: 0; height: 0; overflow: hidden;" version="1.1" xmlns="http://www.w3.org/2000/svg" xmlns:xlink="http://www.w3.org/1999/xlink">
<defs>
<symbol id="icon-menu" viewBox="0 0 32 32">
<path d="M26.667 23.636c0.34 0 0.667 0.131 0.914 0.364s0.396 0.552 0.416 0.891-0.090 0.673-0.309 0.934c-0.218 0.261-0.527 0.428-0.865 0.468l-0.156 0.009h-21.333c-0.34-0-0.667-0.131-0.914-0.364s-0.396-0.552-0.416-0.891 0.090-0.673 0.309-0.934c0.218-0.261 0.527-0.428 0.865-0.468l0.156-0.009h21.333zM26.667 14.303c0.354 0 0.693 0.14 0.943 0.39s0.391 0.589 0.391 0.943-0.14 0.693-0.391 0.943c-0.25 0.25-0.589 0.39-0.943 0.39h-21.333c-0.354 0-0.693-0.14-0.943-0.39s-0.391-0.589-0.391-0.943c0-0.354 0.14-0.693 0.391-0.943s0.589-0.39 0.943-0.39h21.333zM26.667 4.97c0.354 0 0.693 0.14 0.943 0.391s0.391 0.589 0.391 0.943c0 0.354-0.14 0.693-0.391 0.943s-0.589 0.391-0.943 0.391h-21.333c-0.354 0-0.693-0.14-0.943-0.391s-0.391-0.589-0.391-0.943c0-0.354 0.14-0.693 0.391-0.943s0.589-0.391 0.943-0.391h21.333z"></path>
</symbol>
<symbol id="icon-close" viewBox="0 0 32 32">
<path d="M7.626 7.627c0.188-0.187 0.442-0.292 0.707-0.292s0.519 0.105 0.707 0.293l6.96 6.96 6.96-6.96c0.122-0.132 0.278-0.228 0.45-0.279s0.355-0.054 0.529-0.009c0.174 0.045 0.333 0.135 0.46 0.262s0.217 0.286 0.261 0.46c0.044 0.174 0.041 0.357-0.009 0.529s-0.146 0.328-0.278 0.45l-6.96 6.96 6.96 6.96c0.132 0.122 0.228 0.278 0.279 0.45s0.054 0.355 0.009 0.529-0.135 0.333-0.262 0.46c-0.127 0.127-0.286 0.217-0.46 0.261s-0.356 0.041-0.529-0.009-0.328-0.146-0.45-0.278l-6.96-6.96-6.96 6.96c-0.19 0.177-0.44 0.273-0.7 0.268s-0.506-0.109-0.69-0.292c-0.183-0.183-0.288-0.431-0.292-0.69s0.092-0.51 0.268-0.7l6.96-6.96-6.96-6.96c-0.187-0.188-0.292-0.442-0.292-0.707s0.105-0.519 0.292-0.707z"></path>
</symbol>
<symbol id="icon-copy" viewBox="0 0 32 32">
<path d="M27 4h-16c-0.265 0-0.52 0.105-0.707 0.293s-0.293 0.442-0.293 0.707v5h-5c-0.265 0-0.52 0.105-0.707 0.293s-0.293 0.442-0.293 0.707v16c0 0.265 0.105 0.52 0.293 0.707s0.442 0.293 0.707 0.293h16c0.265 0 0.52-0.105 0.707-0.293s0.293-0.442 0.293-0.707v-5h5c0.265 0 0.52-0.105 0.707-0.293s0.293-0.442 0.293-0.707v-16c0-0.265-0.105-0.52-0.293-0.707s-0.442-0.293-0.707-0.293zM20 26h-14v-14h14v14zM26 20h-4v-9c0-0.265-0.105-0.52-0.293-0.707s-0.442-0.293-0.707-0.293h-9v-4h14v14z"></path>
</symbol>
<symbol id="icon-copy-success" viewBox="0 0 32 32">
<path fill="#64c642" style="fill: var(--color1, #64c642)" d="M22.16 8.28c-0.138-0.109-0.296-0.19-0.466-0.238s-0.347-0.062-0.521-0.040-0.344 0.077-0.497 0.163c-0.153 0.087-0.288 0.203-0.396 0.342l-9.333 12-4.573-5.573c-0.107-0.143-0.242-0.263-0.397-0.352s-0.325-0.147-0.503-0.17c-0.177-0.022-0.357-0.009-0.529 0.040s-0.332 0.131-0.472 0.243c-0.139 0.112-0.255 0.25-0.34 0.407s-0.137 0.33-0.154 0.508c-0.017 0.178 0.002 0.357 0.056 0.528s0.141 0.328 0.257 0.464l5.56 6.907c0.126 0.155 0.284 0.279 0.464 0.365s0.377 0.129 0.576 0.129c0.211 0.009 0.422-0.032 0.614-0.12s0.361-0.221 0.492-0.387l10.44-13.333c0.106-0.141 0.184-0.302 0.227-0.474s0.053-0.35 0.027-0.525c-0.026-0.175-0.087-0.343-0.178-0.494s-0.212-0.283-0.355-0.387zM28.827 8.28c-0.138-0.109-0.296-0.19-0.466-0.238s-0.347-0.062-0.521-0.040-0.344 0.077-0.497 0.163c-0.153 0.087-0.288 0.203-0.396 0.342l-9.333 12-0.813-1-1.68 2.16 1.467 1.827c0.125 0.155 0.284 0.279 0.464 0.365s0.377 0.129 0.576 0.129c0.2-0.001 0.398-0.047 0.578-0.135s0.338-0.215 0.462-0.372l10.44-13.333c0.104-0.141 0.18-0.301 0.222-0.471s0.051-0.347 0.025-0.52c-0.026-0.173-0.086-0.34-0.176-0.49s-0.21-0.281-0.351-0.385z"></path>
<path fill="#64c642" style="fill: var(--color1, #64c642)" d="M11.613 17.413l1.72-2.16-0.267-0.32c-0.105-0.146-0.239-0.269-0.393-0.362s-0.325-0.154-0.503-0.178c-0.178-0.025-0.36-0.014-0.533 0.034s-0.336 0.129-0.477 0.24c-0.137 0.11-0.251 0.246-0.335 0.4s-0.137 0.323-0.156 0.498-0.002 0.351 0.047 0.52c0.050 0.169 0.133 0.325 0.243 0.462l0.653 0.867z"></path>
</symbol>
<symbol id="icon-report" viewBox="0 0 32 32">
<path fill="#90caf9" style="fill: var(--color1, #90caf9)" d="M26.667 30h-21.333v-28h14.667l6.667 6.667v21.333z"></path>
<path fill="#e1f5fe" style="fill: var(--color2, #e1f5fe)" d="M25.667 9.333h-6.333v-6.333l6.333 6.333z"></path>
<path fill="#1976d2" style="fill: var(--color3, #1976d2)" d="M10.666 14h11.333v1.333h-11.333v-1.333zM10.666 16.667h8.667v1.333h-8.667v-1.333zM10.666 19.333h11.333v1.333h-11.333v-1.333zM10.666 22h8.667v1.333h-8.667v-1.333z"></path>
</symbol>
<symbol id="icon-receipt" viewBox="0 0 32 32">
<path fill="#fff" style="fill: var(--color4, #fff)" d="M26.537 3.585l-1.622-1.975-1.623 1.975-1.622-1.975-1.622 1.975-1.622-1.975-1.622 1.975-1.623-1.975-1.623 1.975-1.623-1.975-1.623 1.975-1.623-1.975-1.623 1.975-1.697-2.065h-0.167l0.027 29.010 19.77 0.030c4.17 0 3.335-8.702 3.335-8.702l0.005-20.34h-0.095l-1.708 2.067z"></path>
<path fill="#94d1e0" style="fill: var(--color5, #94d1e0)" d="M16.4 9.808c1.105 0 2-0.895 2-2s-0.895-2-2-2c-1.105 0-2 0.895-2 2s0.895 2 2 2z"></path>
<path fill="#6fbff0" style="fill: var(--color6, #6fbff0)" d="M28.78 0.76h-0.062c-0.020 0-0.373 0.007-0.925 0.6l-1.253 1.525-1.625-1.975-1.623 1.975-1.625-1.975-1.622 1.975-1.625-1.975-1.622 1.975-1.623-1.975-1.623 1.975-1.623-1.975-1.623 1.975-1.623-1.975-1.623 1.972-0.845-1.085c-0.86-1.032-1.397-0.935-1.42-0.932l-0.050 0.010 0.025 25.77-1.348 1.467-1.44-1.727c0 0-0.87 1.257 0.252 2.957 0.897 1.363 3.763 1.223 4.933 1.223l16.992 0.015c2.887-0.017 3.675-0.628 4.235-3.215 0.385-1.783 0.382-4.41 0.382-5.4v-21.205zM17.672 26.387l-1.582 1.727-1.582-1.727-1.582 1.727-1.582-1.727-1.582 1.727-1.582-1.727-1.582 1.727-0.923-1.008-0.022-24.543 1.415 1.72 1.622-1.975 1.623 1.975 1.623-1.975 1.623 1.975 1.623-1.975 1.623 1.975 1.622-1.975 1.625 1.975 1.623-1.975 1.625 1.975 1.622-1.975 1.625 1.975 1.342-1.635-0.005 19.19v0.225c0.002 1.045 0.013 3.495-0.362 5.11-0.385 1.672-0.993 2.348-2.238 2.493-0.37 0.042-2.313 0.090-4.113-3.275-0.030-0.058-0.078-0.045-0.087-0.043-0.003 0-0.005 0.002-0.008 0.002-0.017-0.075-0.027-0.12-0.027-0.12l-1.788 1.88-1.585-1.725z"></path>
</symbol>
<symbol id="icon-phone" viewBox="0 0 32 32">
<path d="M22.172 18.521l0.608-0.604-1.412-1.419-0.605 0.604 1.409 1.419zM24.819 17.664l2.548 1.385 0.953-1.757-2.547-1.384-0.955 1.756zM27.856 21.801l-1.893 1.884 1.409 1.417 1.893-1.883-1.409-1.419zM24.808 24.291c-1.933 0.181-6.933 0.020-12.349-5.364l-1.411 1.417c5.909 5.876 11.535 6.164 13.947 5.939l-0.187-1.992zM12.459 18.927c-5.161-5.133-6.017-9.449-6.124-11.323l-1.997 0.113c0.133 2.357 1.193 7.141 6.711 12.627l1.411-1.417zM14.292 10.687l0.383-0.381-1.408-1.417-0.383 0.38 1.408 1.419zM14.979 5.459l-1.68-2.245-1.601 1.2 1.68 2.244 1.601-1.199zM7.644 2.724l-2.093 2.080 1.411 1.419 2.092-2.080-1.409-1.419zM13.588 9.977c-0.707-0.709-0.707-0.709-0.707-0.707h-0.003l-0.004 0.005c-0.063 0.064-0.12 0.134-0.169 0.209-0.072 0.107-0.151 0.247-0.217 0.424-0.162 0.458-0.203 0.95-0.117 1.428 0.179 1.153 0.973 2.677 3.008 4.701l1.411-1.419c-1.905-1.893-2.359-3.045-2.443-3.589-0.040-0.259 0.001-0.387 0.013-0.416 0.007-0.019 0.009-0.020 0-0.008-0.012 0.018-0.025 0.036-0.040 0.052l-0.013 0.013c-0.004 0.004-0.009 0.008-0.013 0.012l-0.705-0.707zM15.379 16.039c2.036 2.024 3.568 2.813 4.723 2.989 0.591 0.091 1.067 0.019 1.428-0.116 0.202-0.075 0.391-0.181 0.56-0.315 0.023-0.019 0.045-0.039 0.067-0.060l0.009-0.008 0.004-0.004 0.001-0.003c0 0 0.001-0.001-0.704-0.711-0.707-0.709-0.703-0.711-0.703-0.711l0.003-0.003 0.003-0.003 0.008-0.007 0.013-0.013c0.016-0.014 0.033-0.028 0.051-0.040 0.013-0.009 0.009-0.005-0.009 0.003-0.033 0.012-0.164 0.053-0.427 0.013-0.552-0.085-1.712-0.539-3.616-2.432l-1.411 1.419zM13.299 3.212c-1.36-1.813-4.032-2.101-5.655-0.488l1.409 1.419c0.709-0.705 1.968-0.632 2.644 0.271l1.601-1.201zM6.336 7.605c-0.027-0.461 0.185-0.944 0.625-1.381l-1.412-1.419c-0.716 0.712-1.28 1.72-1.212 2.912l1.999-0.112zM25.963 23.685c-0.365 0.365-0.76 0.571-1.153 0.607l0.185 1.991c0.98-0.092 1.781-0.585 2.379-1.179l-1.411-1.419zM14.675 10.305c1.313-1.305 1.411-3.368 0.305-4.845l-1.601 1.199c0.537 0.719 0.457 1.661-0.113 2.231l1.409 1.416zM27.368 19.051c1.089 0.592 1.259 1.987 0.489 2.752l1.411 1.417c1.787-1.777 1.236-4.741-0.947-5.927l-0.953 1.757zM22.78 17.919c0.512-0.509 1.336-0.635 2.040-0.253l0.955-1.756c-1.445-0.787-3.237-0.569-4.405 0.591l1.411 1.419z"></path>
</symbol>
<symbol id="icon-email" viewBox="0 0 32 32">
<path d="M29.334 8c0-1.467-1.2-2.667-2.667-2.667h-21.333c-1.467 0-2.667 1.2-2.667 2.667v16c0 1.467 1.2 2.667 2.667 2.667h21.333c1.467 0 2.667-1.2 2.667-2.667v-16zM26.667 8l-10.667 6.667-10.667-6.667h21.333zM26.667 24h-21.333v-13.333l10.667 6.667 10.667-6.667v13.333z"></path>
</symbol>
<symbol id="icon-instagram" viewBox="0 0 32 32">
<path d="M10.41 2h12.18c4.64 0 8.41 3.77 8.41 8.41v12.18c0 2.23-0.886 4.37-2.463 5.947s-3.716 2.463-5.947 2.463h-12.18c-4.64 0-8.41-3.77-8.41-8.41v-12.18c0-2.23 0.886-4.37 2.463-5.947s3.716-2.463 5.947-2.463zM10.12 4.9c-1.384 0-2.712 0.55-3.691 1.529s-1.529 2.307-1.529 3.691v12.76c0 2.886 2.335 5.22 5.22 5.22h12.76c1.384 0 2.712-0.55 3.691-1.529s1.529-2.307 1.529-3.691v-12.76c0-2.886-2.334-5.22-5.22-5.22h-12.76zM24.113 7.075c0.481 0 0.942 0.191 1.282 0.531s0.531 0.801 0.531 1.282c0 0.481-0.191 0.942-0.531 1.282s-0.801 0.531-1.282 0.531c-0.481 0-0.942-0.191-1.282-0.531s-0.531-0.801-0.531-1.282c0-0.481 0.191-0.942 0.531-1.282s0.801-0.531 1.282-0.531zM16.5 9.25c1.923 0 3.767 0.764 5.127 2.123s2.123 3.204 2.123 5.127-0.764 3.767-2.123 5.127c-1.36 1.36-3.204 2.123-5.127 2.123s-3.767-0.764-5.127-2.123c-1.36-1.36-2.123-3.204-2.123-5.127s0.764-3.767 2.123-5.127c1.36-1.36 3.204-2.123 5.127-2.123zM16.5 12.15c-1.154 0-2.26 0.458-3.076 1.274s-1.274 1.922-1.274 3.076c0 1.154 0.458 2.26 1.274 3.076s1.922 1.274 3.076 1.274c1.154 0 2.26-0.458 3.076-1.274s1.274-1.922 1.274-3.076c0-1.154-0.458-2.26-1.274-3.076s-1.922-1.274-3.076-1.274z"></path>
</symbol>
<symbol id="icon-facebook" viewBox="0 0 32 32">
<path d="M17.846 31h-4.923c-0.326 0-0.639-0.153-0.87-0.425s-0.361-0.641-0.361-1.025v-8.988h-2.462c-0.326 0-0.639-0.153-0.87-0.425s-0.36-0.641-0.36-1.025v-5.219c0-0.384 0.13-0.753 0.36-1.025s0.544-0.425 0.87-0.425h2.462v-2.464c0.086-2.209 0.912-4.287 2.295-5.782s3.214-2.282 5.089-2.192h3.692c0.326 0 0.639 0.153 0.87 0.425s0.36 0.641 0.36 1.025v5.219c0 0.384-0.13 0.753-0.36 1.025s-0.544 0.425-0.87 0.425h-3.692v2.319h3.692c0.19-0.002 0.378 0.049 0.549 0.146s0.32 0.242 0.436 0.419c0.115 0.18 0.192 0.389 0.226 0.61s0.024 0.449-0.029 0.665l-1.231 5.219c-0.074 0.314-0.236 0.588-0.46 0.78s-0.495 0.29-0.771 0.278h-2.412v8.988c0 0.384-0.13 0.753-0.36 1.025s-0.544 0.425-0.87 0.425zM14.154 28.101h2.462v-8.988c0-0.384 0.13-0.753 0.36-1.025s0.544-0.425 0.87-0.425h2.757l0.541-2.319h-3.298c-0.326 0-0.639-0.153-0.87-0.425s-0.36-0.641-0.36-1.025v-3.914c0.032-0.744 0.305-1.444 0.763-1.957s1.066-0.798 1.698-0.797h2.462v-2.319h-2.462c-1.222-0.088-2.425 0.396-3.346 1.346s-1.488 2.289-1.577 3.728v3.914c0 0.384-0.13 0.753-0.36 1.025s-0.544 0.425-0.87 0.425h-2.462v2.319h2.462c0.326 0 0.639 0.153 0.87 0.425s0.36 0.641 0.36 1.025v8.988z"></path>
</symbol>
<symbol id="icon-twitter" viewBox="0 0 31 32">
<path d="M23.005 3.879h4.102l-8.961 10.268 10.543 13.975h-8.254l-6.47-8.474-7.394 8.474h-4.106l9.584-10.986-10.109-13.255h8.464l5.839 7.744 6.762-7.746zM21.562 25.661h2.274l-14.674-19.449h-2.438l14.838 19.449z"></path>
</symbol>
<symbol id="icon-whatsapp" viewBox="0 0 32 32">
<path d="M16.053 2.667c-7.28 0-13.213 5.933-13.213 13.213 0 2.333 0.613 4.6 1.76 6.6l-1.867 6.853 7-1.84c1.933 1.053 4.107 1.613 6.32 1.613 7.28 0 13.213-5.933 13.213-13.213 0-3.533-1.373-6.853-3.867-9.347-1.222-1.235-2.678-2.214-4.283-2.88s-3.326-1.006-5.064-1zM16.067 4.893c2.933 0 5.68 1.147 7.76 3.227 1.021 1.020 1.83 2.232 2.382 3.566s0.834 2.764 0.832 4.207c0 6.053-4.933 10.973-10.987 10.973-1.973 0-3.907-0.52-5.587-1.533l-0.4-0.227-4.16 1.093 1.107-4.053-0.267-0.427c-1.101-1.748-1.684-3.774-1.68-5.84 0.013-6.053 4.933-10.987 11-10.987zM11.373 9.773c-0.213 0-0.573 0.080-0.88 0.413-0.293 0.333-1.16 1.147-1.16 2.76 0 1.627 1.187 3.187 1.333 3.413 0.187 0.227 2.347 3.56 5.667 4.973 0.787 0.36 1.4 0.56 1.88 0.707 0.787 0.253 1.507 0.213 2.080 0.133 0.64-0.093 1.947-0.8 2.227-1.573s0.28-1.427 0.2-1.573c-0.093-0.133-0.307-0.213-0.64-0.36-0.333-0.187-1.96-0.987-2.253-1.093-0.307-0.107-0.493-0.16-0.747 0.16-0.213 0.333-0.853 1.080-1.040 1.293-0.2 0.227-0.387 0.253-0.707 0.093-0.347-0.173-1.413-0.52-2.667-1.64-0.987-0.88-1.64-1.96-1.84-2.293-0.16-0.32-0.013-0.52 0.147-0.667 0.147-0.147 0.36-0.387 0.493-0.587 0.173-0.187 0.227-0.333 0.333-0.547 0.107-0.227 0.053-0.413-0.027-0.573-0.080-0.147-0.747-1.8-1.027-2.453-0.267-0.64-0.533-0.56-0.747-0.573-0.187 0-0.4-0.013-0.627-0.013z"></path>
</symbol>
<symbol id="icon-location" viewBox="0 0 32 32">
<path d="M16 2.571c2.955 0 5.79 1.174 7.879 3.264s3.264 4.924 3.264 7.879c0 4.709-3.308 9.84-9.84 15.449-0.363 0.312-0.826 0.483-1.305 0.483s-0.941-0.173-1.304-0.485l-0.432-0.375c-6.242-5.463-9.405-10.469-9.405-15.072 0-2.955 1.174-5.79 3.264-7.879s4.924-3.264 7.879-3.264zM16 4.286c-2.501 0-4.899 0.993-6.667 2.762s-2.762 4.166-2.762 6.667c0 4.002 2.912 8.614 8.816 13.779l0.426 0.369c0.052 0.045 0.118 0.069 0.186 0.069s0.134-0.024 0.186-0.069c6.19-5.317 9.242-10.051 9.242-14.149 0-1.238-0.244-2.464-0.718-3.608s-1.168-2.183-2.044-3.059-1.915-1.57-3.059-2.044c-1.144-0.474-2.37-0.718-3.608-0.718zM16 9.429c1.137 0 2.227 0.452 3.030 1.255s1.255 1.894 1.255 3.030c0 1.137-0.451 2.227-1.255 3.030s-1.894 1.255-3.030 1.255c-1.137 0-2.227-0.451-3.030-1.255s-1.255-1.894-1.255-3.030c0-1.137 0.451-2.227 1.255-3.030s1.894-1.255 3.030-1.255zM16 11.143c-0.682 0-1.336 0.271-1.818 0.753s-0.753 1.136-0.753 1.818c0 0.682 0.271 1.336 0.753 1.818s1.136 0.753 1.818 0.753 1.336-0.271 1.818-0.753c0.482-0.482 0.753-1.136 0.753-1.818s-0.271-1.336-0.753-1.818c-0.482-0.482-1.136-0.753-1.818-0.753z"></path>
</symbol>
<symbol id="icon-arrow-prev" viewBox="0 0 10 12">
<path d="M9.08826 1.71984L9.08826 9.43817C9.0887 9.74289 9.00284 10.0415 8.84062 10.2994C8.67839 10.5574 8.44643 10.7641 8.1716 10.8957C7.8455 11.0497 7.48269 11.109 7.12452 11.0669C6.76634 11.0248 6.42721 10.8828 6.14576 10.6573L1.47076 6.79817C1.29602 6.64673 1.15587 6.45948 1.05982 6.24914C0.963772 6.03879 0.914062 5.81025 0.914062 5.57901C0.914062 5.34777 0.963772 5.11923 1.05982 4.90888C1.15587 4.69853 1.29602 4.51129 1.47076 4.35984L6.14576 0.500673C6.42721 0.275168 6.76634 0.13326 7.12452 0.0911224C7.48269 0.0489842 7.8455 0.108311 8.17159 0.262341C8.44643 0.393922 8.67839 0.600645 8.84062 0.858583C9.00284 1.11652 9.0887 1.41513 9.08826 1.71984Z"/>
</symbol>
<symbol id="icon-arrow-next" viewBox="0 0 10 12">
<path d="M0.911738 9.43836L0.911738 1.72003C0.911298 1.41532 0.997158 1.11671 1.15938 0.858771C1.32161 0.600832 1.55357 0.394108 1.8284 0.262528C2.1545 0.108499 2.51731 0.0491728 2.87548 0.0913109C3.23366 0.133449 3.57279 0.275357 3.85424 0.500862L8.52924 4.36003C8.70398 4.51148 8.84413 4.69872 8.94018 4.90907C9.03623 5.11942 9.08594 5.34796 9.08594 5.5792C9.08594 5.81044 9.03623 6.03897 8.94018 6.24932C8.84413 6.45967 8.70398 6.64691 8.52924 6.79836L3.85424 10.6575C3.57279 10.883 3.23366 11.0249 2.87548 11.0671C2.51731 11.1092 2.1545 11.0499 1.8284 10.8959C1.55357 10.7643 1.32161 10.5576 1.15938 10.2996C0.997158 10.0417 0.911297 9.74307 0.911738 9.43836Z"/>
</symbol>
<symbol id="icon-calendar" viewBox="0 0 32 33">
<path d="M26 5H6C4.34315 5 3 6.34315 3 8V26C3 27.6569 4.34315 29 6 29H26C27.6569 29 29 27.6569 29 26V8C29 6.34315 27.6569 5 26 5Z" stroke-width="1.5" stroke-linejoin="round"/>
<path d="M18.5 16C19.3284 16 20 15.3284 20 14.5C20 13.6716 19.3284 13 18.5 13C17.6716 13 17 13.6716 17 14.5C17 15.3284 17.6716 16 18.5 16Z" />
<path d="M23.5 16C24.3284 16 25 15.3284 25 14.5C25 13.6716 24.3284 13 23.5 13C22.6716 13 22 13.6716 22 14.5C22 15.3284 22.6716 16 23.5 16Z" />
<path d="M18.5 21C19.3284 21 20 20.3284 20 19.5C20 18.6716 19.3284 18 18.5 18C17.6716 18 17 18.6716 17 19.5C17 20.3284 17.6716 21 18.5 21Z" />
<path d="M23.5 21C24.3284 21 25 20.3284 25 19.5C25 18.6716 24.3284 18 23.5 18C22.6716 18 22 18.6716 22 19.5C22 20.3284 22.6716 21 23.5 21Z" />
<path d="M8.5 21C9.32843 21 10 20.3284 10 19.5C10 18.6716 9.32843 18 8.5 18C7.67157 18 7 18.6716 7 19.5C7 20.3284 7.67157 21 8.5 21Z" />
<path d="M13.5 21C14.3284 21 15 20.3284 15 19.5C15 18.6716 14.3284 18 13.5 18C12.6716 18 12 18.6716 12 19.5C12 20.3284 12.6716 21 13.5 21Z" />
<path d="M8.5 26C9.32843 26 10 25.3284 10 24.5C10 23.6716 9.32843 23 8.5 23C7.67157 23 7 23.6716 7 24.5C7 25.3284 7.67157 26 8.5 26Z" />
<path d="M13.5 26C14.3284 26 15 25.3284 15 24.5C15 23.6716 14.3284 23 13.5 23C12.6716 23 12 23.6716 12 24.5C12 25.3284 12.6716 26 13.5 26Z" />
<path d="M18.5 26C19.3284 26 20 25.3284 20 24.5C20 23.6716 19.3284 23 18.5 23C17.6716 23 17 23.6716 17 24.5C17 25.3284 17.6716 26 18.5 26Z" />
<path d="M8 3V5M24 3V5" stroke-width="1.5" stroke-linecap="round" stroke-linejoin="round"/>
<path d="M29 10H3" stroke-width="1.5" stroke-linejoin="round"/>
</symbol>
<symbol id="icon-arrow-left" viewBox="0 0 32 32">
<path d="M21.944 9.775v11.227c0.001 0.443-0.124 0.878-0.36 1.253s-0.573 0.676-0.973 0.867c-0.474 0.224-1.002 0.31-1.523 0.249s-1.014-0.268-1.424-0.596l-6.8-5.613c-0.254-0.22-0.458-0.493-0.598-0.799s-0.212-0.638-0.212-0.975c0-0.336 0.072-0.669 0.212-0.975s0.344-0.578 0.598-0.799l6.8-5.613c0.409-0.328 0.903-0.534 1.424-0.596s1.049 0.025 1.523 0.249c0.4 0.191 0.737 0.492 0.973 0.867s0.361 0.81 0.36 1.253z"></path>
</symbol>
<symbol id="icon-arrow-right" viewBox="0 0 31 32">
<path d="M9.751 20.85v-10.886c-0.001-0.43 0.12-0.851 0.349-1.215s0.556-0.655 0.944-0.841c0.46-0.217 0.972-0.301 1.477-0.242s0.984 0.26 1.381 0.578l6.594 5.443c0.246 0.214 0.444 0.478 0.58 0.774s0.206 0.619 0.206 0.945c0 0.326-0.070 0.648-0.206 0.945s-0.333 0.561-0.58 0.774l-6.594 5.443c-0.397 0.318-0.875 0.518-1.381 0.578s-1.017-0.024-1.477-0.242c-0.388-0.186-0.715-0.477-0.944-0.841s-0.35-0.785-0.349-1.215z"></path>
</symbol>
</defs>
</svg>
