<svg width="32" height="32" viewBox="0 0 32 32" fill="none" xmlns="http://www.w3.org/2000/svg">
<path d="M10.0546 21.0019L10.0546 9.77519C10.054 9.33197 10.1788 8.89763 10.4148 8.52245C10.6508 8.14726 10.9882 7.84658 11.3879 7.65519C11.8622 7.43114 12.39 7.34485 12.9109 7.40614C13.4319 7.46743 13.9252 7.67385 14.3346 8.00185L21.1346 13.6152C21.3888 13.8355 21.5926 14.1078 21.7323 14.4138C21.872 14.7198 21.9443 15.0522 21.9443 15.3885C21.9443 15.7249 21.872 16.0573 21.7323 16.3632C21.5926 16.6692 21.3888 16.9416 21.1346 17.1619L14.3346 22.7752C13.9252 23.1032 13.4319 23.3096 12.9109 23.3709C12.39 23.4322 11.8622 23.3459 11.3879 23.1219C10.9882 22.9305 10.6508 22.6298 10.4148 22.2546C10.1788 21.8794 10.054 21.4451 10.0546 21.0019Z" fill="#221F25"/>
</svg>
