<svg width="24" height="24" viewBox="0 0 24 24" fill="none" xmlns="http://www.w3.org/2000/svg">
<path d="M7.79079 7.08269L16.2108 7.08269C16.5432 7.08221 16.869 7.17588 17.1503 7.35285C17.4317 7.52982 17.6572 7.78287 17.8008 8.08269C17.9688 8.43843 18.0335 8.83422 17.9876 9.22496C17.9416 9.6157 17.7868 9.98566 17.5408 10.2927L13.3308 15.3927C13.1656 15.5833 12.9613 15.7362 12.7318 15.841C12.5024 15.9458 12.253 16 12.0008 16C11.7485 16 11.4992 15.9458 11.2697 15.841C11.0403 15.7362 10.836 15.5833 10.6708 15.3927L6.46078 10.2927C6.21478 9.98566 6.05997 9.61569 6.014 9.22496C5.96803 8.83422 6.03275 8.43843 6.20079 8.08269C6.34433 7.78287 6.56984 7.52982 6.85123 7.35285C7.13262 7.17588 7.45837 7.08221 7.79079 7.08269Z" fill="#221F25"/>
</svg>
