<svg width="124" height="117" viewBox="0 0 124 117" fill="none" xmlns="http://www.w3.org/2000/svg">
<path fill-rule="evenodd" clip-rule="evenodd" d="M66.9748 100.734H88.9062C90.668 98.98 92.5998 97.1559 94.5618 95.3018C98.6758 91.4031 102.97 87.3341 107.384 82.2428C112.429 76.4198 112.97 74.4053 114.501 68.7027C114.791 67.6303 115.112 66.4276 115.532 64.9343L118.155 55.7038L118.185 55.6036C119.586 51.4944 119.696 48.7784 119.116 47.2149C118.936 46.7338 118.705 46.4131 118.435 46.2428C118.225 46.1024 117.945 46.0523 117.654 46.0824C116.974 46.1526 116.203 46.5835 115.502 47.3552L107.715 65.9265C107.645 66.0969 107.544 66.2572 107.434 66.3975C106.974 67.2294 106.353 68.0412 105.552 68.8129L91.739 84.2372C90.9883 85.0791 89.697 85.1492 88.8662 84.3975C88.0254 83.6459 87.9553 82.353 88.706 81.5212L102.53 66.0969C102.59 66.0267 102.65 65.9566 102.72 65.8964C104.151 64.5334 104.602 63.0601 104.351 61.9877C104.271 61.657 104.131 61.3764 103.931 61.186C103.741 61.0156 103.49 60.8953 103.18 60.8652C101.949 60.735 100.137 61.647 97.925 64.2628C97.865 64.333 97.7949 64.4031 97.7248 64.4733L92.3696 69.2038L92.3396 69.2339C86.5439 74.7261 84.0515 76.029 79.5071 78.4042C78.5561 78.9053 77.5151 79.4465 76.2239 80.1481C75.7134 80.4287 75.2129 80.7695 74.7224 81.1403C74.2019 81.5412 73.7014 81.9521 73.2309 82.353C70.8286 84.3775 69.5674 86.0212 68.8467 87.8352C68.0959 89.7194 67.8257 92.0145 67.4553 95.1615C67.3052 96.4343 67.1951 97.6871 67.105 98.9399C67.0349 99.5412 67.0049 100.143 66.9748 100.734ZM22.2412 48.2773C22.2412 31.0891 38.447 40.6102 39.6882 30.0668C39.8284 28.9142 37.1157 24.5445 36.5051 22.4499C35.1838 20.3352 34.7034 16.9777 36.1548 14.7327C36.7353 13.8408 36.4851 10.6036 36.4851 9.38084C36.4851 5.92316 38.1167 3.93875 40.3188 2.09465C41.1296 1.42316 41.2698 0.611353 42.4409 0.320707C48.2566 -1.09243 57.7759 2.11469 57.7759 9.38084C57.7759 10.9243 57.4255 13.7506 58.2563 14.9632C59.0671 16.1359 59.1672 17.8396 58.8769 19.4332C58.5566 19.6837 58.2463 19.9443 57.936 20.2149C57.2453 20.8263 56.5547 21.5178 55.874 22.2494C55.844 22.2795 55.8139 22.3096 55.7839 22.3396L55.7739 22.3497C55.4436 22.6704 55.2034 23.0913 55.0732 23.5624C54.803 24.5746 55.1433 25.6169 55.874 26.2784C55.0132 27.882 54.2424 29.3953 54.3725 30.0668C54.5827 31.1492 55.3835 32.1414 56.5347 33.0635V33.0835C56.5347 33.1436 56.5447 33.1938 56.5447 33.2539C56.5847 33.6448 56.6448 34.0256 56.7348 34.3563C56.8349 34.7272 56.9751 35.098 57.1553 35.4488C57.4555 36.0501 57.866 36.5713 58.3865 36.9922C58.6467 37.2027 58.927 37.3831 59.2273 37.5234C59.3074 37.6136 59.3874 37.7038 59.4575 37.794L59.5876 37.9443C57.2153 38.3953 55.5737 38.8263 54.1924 40.1993C52.6609 41.7227 52.0703 43.8575 52.0703 47.716C52.0703 47.9065 52.0903 48.0969 52.1203 48.2773H22.2412ZM72.0898 18.8419C75.0027 1.64365 91.789 2.05456 94.3115 20.0746C95.9731 31.941 103.07 31.51 91.9792 31.51H87.5549C87.5349 34.5267 87.0644 36.0701 90.1975 37.7739C93.3205 39.4677 101.759 40.3396 101.759 44.6292V47.3753C101.759 47.5958 101.579 47.7762 101.358 47.7762H81.8994V47.716C81.8994 43.8575 81.3088 41.7227 79.7773 40.1993C78.5661 38.9967 77.1648 38.5256 75.2429 38.1247C75.6233 37.9543 75.9836 37.7639 76.324 37.5635C79.0766 35.9098 78.6062 34.2561 78.5862 31.52H77.395C77.375 31.3797 77.355 31.2494 77.3249 31.1191C77.1948 30.5178 76.9846 29.9365 76.6743 29.4154C76.6243 29.3252 76.5642 29.235 76.5041 29.1448V28.7439C76.8745 27.3708 76.9646 25.8675 76.7344 24.4644C76.4641 22.8909 75.7834 21.4176 74.6123 20.3151C74.0117 19.7439 73.341 19.3229 72.6103 19.0323C72.4302 18.9521 72.26 18.892 72.0898 18.8419ZM57.6858 24.2639C61.8498 19.6637 66.6545 17.1681 70.258 21.2572C71.199 21.2973 72.0498 21.618 72.7505 22.2795C74.2319 23.6726 74.4621 26.2884 73.7815 28.353V30.167C74.2419 30.4677 74.5322 31.039 74.6723 31.6804C74.7624 32.0913 74.7825 32.5523 74.7424 32.9933C74.7024 33.4443 74.5823 33.8753 74.4021 34.2361C74.1418 34.7472 73.7514 35.108 73.2209 35.1782C72.7004 35.7294 72.1899 36.3307 71.7395 36.902C71.239 37.5334 70.8186 38.1247 70.5183 38.6058C70.2881 38.9766 70.3581 39.2272 70.4482 39.5078C70.4883 39.6481 70.5283 39.7984 70.5583 39.9488C71.4692 40.1492 72.29 40.2995 73.0307 40.4399C77.7253 41.3218 79.1868 41.5924 79.1868 47.706C79.1868 48.0167 78.9365 48.2673 78.6262 48.2673H55.3535C55.0432 48.2673 54.793 48.0167 54.793 47.706C54.793 41.5924 56.2444 41.3118 60.949 40.4399C61.6897 40.2995 62.5305 40.1392 63.4414 39.9488C63.4714 39.8285 63.5115 39.7183 63.5515 39.598C63.6516 39.3274 63.7417 39.0568 63.4614 38.6058C63.1611 38.1147 62.7407 37.5234 62.2402 36.902C61.7898 36.3307 61.2793 35.7394 60.7588 35.1782C60.2283 35.098 59.8379 34.7372 59.5776 34.2361C59.3974 33.8853 59.2873 33.4443 59.2373 32.9933C59.1973 32.5523 59.2173 32.1013 59.3074 31.6804C59.4375 31.039 59.7278 30.4777 60.1882 30.1771L59.5776 29.8163C59.4075 28.0022 59.8879 24.8652 57.6858 24.2639ZM57.0251 100.734H35.0837C33.322 98.98 31.3901 97.1559 29.4282 95.3018C25.3142 91.4031 21.02 87.3341 16.6057 82.2428C11.5608 76.4198 11.0202 74.4053 9.48875 68.7027C9.19847 67.6303 8.87816 66.4276 8.45775 64.9343L5.83519 55.7038L5.80516 55.6036C4.40379 51.4944 4.29368 48.7784 4.87425 47.2149C5.05443 46.7338 5.28465 46.4131 5.55491 46.2428C5.76512 46.1024 6.04539 46.0523 6.33568 46.0824C7.01634 46.1526 7.78709 46.5835 8.48778 47.3552L16.2754 65.9265C16.3454 66.0969 16.4455 66.2572 16.5556 66.3975C17.0161 67.2294 17.6367 68.0412 18.4375 68.8129L32.251 84.2372C33.0017 85.0791 34.293 85.1492 35.1238 84.3975C35.9546 83.6459 36.0347 82.353 35.2839 81.5212L21.4804 66.0768C21.4204 66.0067 21.3603 65.9365 21.2903 65.8764C19.8589 64.5134 19.4084 63.0401 19.6587 61.9677C19.7388 61.637 19.8789 61.3563 20.0791 61.1659C20.2693 60.9955 20.5195 60.8753 20.8298 60.8452C22.061 60.7149 23.8828 61.6269 26.0849 64.2428C26.0849 64.2428 26.2751 64.4332 26.2951 64.4532L31.6504 69.1837L31.6804 69.2138C37.4761 74.706 39.9685 76.0089 44.5129 78.3842C45.4639 78.8853 46.5049 79.4265 47.7961 80.1281C48.3066 80.4087 48.8071 80.7494 49.2976 81.1203C49.8181 81.5212 50.3186 81.9321 50.789 82.333C53.1914 84.3575 54.4526 86.0011 55.1733 87.8151C55.9241 89.6993 56.1943 91.9944 56.5647 95.1414C56.7148 96.4143 56.8249 97.667 56.915 98.9198C56.9651 99.5412 56.9951 100.143 57.0251 100.734ZM29.9787 101.435C29.6684 101.796 29.4783 102.267 29.4783 102.778V114.945C29.4783 116.078 30.3992 116.99 31.5202 116.99H59.1272C60.2583 116.99 61.1692 116.068 61.1692 114.945V102.658C61.1692 101.355 61.0891 99.9521 60.999 98.6492C60.9089 97.3163 60.7888 95.9933 60.6387 94.6804C60.2383 91.2428 59.938 88.7272 58.977 86.3118C57.9861 83.8363 56.3945 81.7016 53.4416 79.206C52.9011 78.745 52.3506 78.284 51.77 77.853C51.1594 77.392 50.4988 76.951 49.758 76.5401C48.5569 75.8886 47.4358 75.2973 46.4148 74.7561C42.2107 72.5512 39.9084 71.3485 34.4931 66.2171C34.4531 66.1771 34.4031 66.137 34.363 66.1069L29.1379 61.4866C25.9448 57.7483 22.8218 56.5056 20.4294 56.7661H20.4194C19.2483 56.8864 18.2473 57.3474 17.4465 58.049L12.1714 45.461H12.1614C12.0813 45.2806 11.9812 45.1102 11.8511 44.9499C10.3896 43.196 8.53782 42.1737 6.7661 41.9933C5.55491 41.873 4.38377 42.1336 3.36278 42.7951C2.39183 43.4265 1.59105 44.4087 1.09056 45.7617C0.209699 48.1169 0.229719 51.775 1.9514 56.8363L4.55394 66.0067C4.93431 67.3296 5.26463 68.6024 5.57493 69.7249C7.27659 76.0891 7.87718 78.3441 13.5527 84.8786C18.0471 90.0601 22.4414 94.2294 26.6655 98.2283C27.7566 99.3107 28.8576 100.363 29.9787 101.435ZM33.8825 104.823C34.1528 104.883 34.4331 104.883 34.7134 104.823H57.0752V112.901H33.5622V104.823H33.8825ZM94.0212 101.435C94.3315 101.796 94.5217 102.267 94.5217 102.778V114.945C94.5217 116.078 93.6108 116.99 92.4797 116.99H64.8828C63.7517 116.99 62.8408 116.068 62.8408 114.945V102.658C62.8408 102.588 62.8408 102.508 62.8508 102.438C62.8808 101.125 62.9309 99.8519 63.011 98.6492C63.1011 97.3163 63.2212 95.9933 63.3713 94.6804C63.7717 91.2428 64.072 88.7272 65.0329 86.3118C66.0239 83.8363 67.6155 81.7016 70.5683 79.206C71.1089 78.745 71.6594 78.284 72.24 77.853C72.8506 77.392 73.5112 76.951 74.2519 76.5401C75.4531 75.8886 76.5742 75.2973 77.5952 74.7561C81.7993 72.5512 84.1015 71.3485 89.5168 66.2171C89.5569 66.1771 89.6069 66.137 89.647 66.1069L94.8721 61.4866C98.0652 57.7483 101.188 56.5056 103.581 56.7661H103.591C104.762 56.8864 105.763 57.3474 106.563 58.049L111.839 45.461H111.849C111.929 45.2806 112.029 45.1102 112.159 44.9499C113.62 43.196 115.472 42.1737 117.244 41.9933C118.455 41.873 119.626 42.1336 120.647 42.7951C121.618 43.4265 122.419 44.4087 122.919 45.7617C123.8 48.1169 123.78 51.775 122.059 56.8363L119.456 66.0067C119.076 67.3296 118.745 68.6024 118.435 69.7249C116.733 76.0891 116.133 78.3441 110.457 84.8786C105.963 90.0601 101.569 94.2294 97.3445 98.2283C96.2434 99.3107 95.1423 100.363 94.0212 101.435ZM90.1174 104.823C89.8472 104.883 89.5669 104.883 89.2866 104.823H66.9248V112.901H90.4377V104.823H90.1174Z" fill="black"/>
</svg>
