<svg width="124" height="109" viewBox="0 0 124 109" fill="none" xmlns="http://www.w3.org/2000/svg">
<path fill-rule="evenodd" clip-rule="evenodd" d="M61.3894 17.2688C69.3972 8.88577 75.0227 1.61843 87.4148 0.181044C110.607 -2.47259 131.888 21.3699 120.187 44.8405C116.854 51.5248 110.067 59.4757 102.56 67.2757C96.4937 73.5781 89.9573 79.79 84.3819 85.1677V89.4597C84.3893 94.5357 82.3998 99.4092 78.8464 103.019C72.6404 109.332 56.0342 110.578 47.8162 107.281C42.0505 104.939 32.8916 94.8273 27.8267 89.3793C26.2342 87.8259 24.7398 86.1743 23.3523 84.4339C22.6508 83.4526 22.1604 82.3355 21.9123 81.1536C21.6641 79.9716 21.6637 78.7508 21.9109 77.5686C22.1835 76.4242 22.7376 75.3666 23.5225 74.4928C23.9353 74.0398 24.4066 73.6443 24.9238 73.3168C12.3516 60.7623 1.1006 46.4186 0.500009 30.0947C-0.130606 11.8007 14.2434 0.0905794 30.7796 0.301664C45.554 0.502697 51.8001 7.87055 61.3894 17.2688ZM81.2288 76.0508V89.4597C81.2216 93.6977 79.5489 97.7615 76.5742 100.768C71.2891 106.135 55.9041 107.1 48.8972 104.306C44.1626 102.416 35.5642 93.1889 30.7195 87.962C29.8186 86.9569 26.4353 83.6097 25.7146 82.3834C24.9424 81.1966 24.6622 79.7539 24.9338 78.3627C25.0736 77.7306 25.3736 77.1455 25.8047 76.664C26.2166 76.2022 26.7409 75.8559 27.3262 75.6588C28.8176 75.1864 30.8096 75.6588 32.8115 77.6691C33.272 78.1315 34.4832 79.3578 35.6743 80.4836C36.5949 81.4076 37.6004 82.2422 38.6773 82.9764C38.9358 83.1472 39.2386 83.2381 39.5481 83.2378L40.7893 82.6246L41.2297 76.3926C41.2297 64.7528 41.3098 55.455 41.3098 43.7851C41.3098 38.7592 48.8572 38.7592 48.8572 43.7851V64.2904H52.1104V37.5531C52.1104 32.5272 59.6577 32.5272 59.6577 37.5531V64.2703H62.981V45.8356C62.981 40.8098 70.5283 40.8098 70.5283 45.8356V64.2703H73.6814V52.6205C73.6814 47.5946 81.2288 47.5946 81.2288 52.6205V76.0508Z" fill="black"/>
</svg>
