<svg width="124" height="92" viewBox="0 0 124 92" fill="none" xmlns="http://www.w3.org/2000/svg">
<path fill-rule="evenodd" clip-rule="evenodd" d="M45.6741 35.2938H45.634C38.6172 34.5037 29.198 35.3038 24.8337 35.2938C17.5566 35.6039 9.97925 41.9146 5.52491 51.3056C2.91236 56.8162 2.22169 60.9666 1.79127 66.8573C0.920416 72.7979 0.469976 78.6786 0.500006 84.4792C1.9314 93.5102 13.3926 90.8299 14.3635 84.4792L15.7549 66.2772C15.9651 63.5269 16.1553 61.6667 17.2664 59.0464C17.7869 57.8163 18.4175 56.7662 19.1582 55.8961L19.8489 89.1497L19.4585 91.93H50.9793L50.5588 88.8297L51.1694 52.1557C54.3726 50.8655 57.1353 50.2655 59.5676 50.1655C59.4475 50.4155 59.3174 50.6655 59.1973 50.9155C56.5847 56.4261 55.894 60.5766 55.4636 66.4672C54.6028 72.3979 54.1423 78.2785 54.1724 84.0791C55.6038 93.1101 67.0649 90.4298 68.0359 84.0791L69.4273 65.8772C69.6375 63.1269 69.8277 61.2667 70.9387 58.6464C71.4592 57.4162 72.0899 56.3661 72.8306 55.496L73.5212 88.7496L73.0608 91.99H104.712L104.231 88.4396L104.722 59.8165V60.3766L104.822 55.506C105.563 56.3761 106.183 57.4262 106.714 58.6564C107.835 61.2767 108.015 63.1369 108.225 65.8872L109.616 84.0891C110.958 92.7701 123.48 92.9401 123.48 84.0891C123.51 78.2785 123.06 72.4079 122.189 66.4772C121.758 60.5866 121.068 56.4361 118.455 50.9255C113.881 41.2745 107.965 36.1639 98.9861 35.1138C93.4507 34.6638 84.1516 35.1738 78.6062 35.0138C77.2249 35.2038 75.8635 35.4839 74.5422 35.8839C71.0889 35.4039 66.5244 34.8138 61.97 34.7938C55.3135 34.7738 48.697 35.9139 45.6741 35.2938ZM88.8862 0C97.905 0 105.222 7.31079 105.222 16.3218C105.222 25.3328 97.905 32.6435 88.8862 32.6435C79.8674 32.6435 72.5503 25.3328 72.5503 16.3218C72.5503 7.31079 79.8674 0 88.8862 0ZM35.0938 0C44.1126 0 51.4297 7.31079 51.4297 16.3218C51.4297 25.3328 44.1126 32.6435 35.0938 32.6435C26.075 32.6435 18.7578 25.3328 18.7578 16.3218C18.7578 7.31079 26.075 0 35.0938 0Z" fill="black"/>
</svg>
