<svg width="1081" height="904" viewBox="0 0 1081 904" fill="none" xmlns="http://www.w3.org/2000/svg">
<g opacity="0.75" filter="url(#filter0_f_2439_4940)">
<rect width="632.752" height="225.629" transform="matrix(0.804207 -0.594349 0.718089 0.695951 242.841 634.522)" fill="#FFF573"/>
</g>
<g opacity="0.75" filter="url(#filter1_f_2439_4940)">
<rect width="617.957" height="199.934" transform="matrix(0.8043 -0.594223 0.718496 0.695531 123.603 490.992)" fill="#55A9EF"/>
</g>
<path d="M160.182 202.455H165.818V233.273C165.818 236.455 165.068 239.295 163.568 241.795C162.083 244.28 159.985 246.242 157.273 247.682C154.561 249.106 151.379 249.818 147.727 249.818C144.076 249.818 140.894 249.106 138.182 247.682C135.47 246.242 133.364 244.28 131.864 241.795C130.379 239.295 129.636 236.455 129.636 233.273V202.455H135.273V232.818C135.273 235.091 135.773 237.114 136.773 238.886C137.773 240.644 139.197 242.03 141.045 243.045C142.909 244.045 145.136 244.545 147.727 244.545C150.318 244.545 152.545 244.045 154.409 243.045C156.273 242.03 157.697 240.644 158.682 238.886C159.682 237.114 160.182 235.091 160.182 232.818V202.455ZM177.074 249V202.455H182.71V225.545H183.256L204.165 202.455H211.528L191.983 223.455L211.528 249H204.71L188.528 227.364L182.71 233.909V249H177.074ZM218.824 249V202.455H234.551C238.188 202.455 241.172 203.076 243.506 204.318C245.839 205.545 247.566 207.235 248.688 209.386C249.809 211.538 250.369 213.985 250.369 216.727C250.369 219.47 249.809 221.902 248.688 224.023C247.566 226.144 245.847 227.811 243.528 229.023C241.21 230.22 238.248 230.818 234.642 230.818H221.915V225.727H234.46C236.945 225.727 238.945 225.364 240.46 224.636C241.991 223.909 243.097 222.879 243.778 221.545C244.475 220.197 244.824 218.591 244.824 216.727C244.824 214.864 244.475 213.235 243.778 211.841C243.081 210.447 241.968 209.371 240.438 208.614C238.907 207.841 236.884 207.455 234.369 207.455H224.46V249H218.824ZM240.733 228.091L252.188 249H245.642L234.369 228.091H240.733ZM261.67 249H255.761L272.852 202.455H278.67L295.761 249H289.852L275.943 209.818H275.58L261.67 249ZM263.852 230.818H287.67V235.818H263.852V230.818ZM308.648 202.455V249H303.011V202.455H308.648ZM356.858 202.455V249H351.403L326.04 212.455H325.585V249H319.949V202.455H325.403L350.858 239.091H351.312V202.455H356.858ZM368.136 249V202.455H396.227V207.455H373.773V223.182H394.773V228.182H373.773V244H396.591V249H368.136Z" fill="url(#paint0_linear_2439_4940)"/>
<path d="M686 264H671.636V217.455H686.636C691.152 217.455 695.015 218.386 698.227 220.25C701.439 222.098 703.902 224.758 705.614 228.227C707.326 231.682 708.182 235.818 708.182 240.636C708.182 245.485 707.318 249.659 705.591 253.159C703.864 256.644 701.348 259.326 698.045 261.205C694.742 263.068 690.727 264 686 264ZM677.273 259H685.636C689.485 259 692.674 258.258 695.205 256.773C697.735 255.288 699.621 253.174 700.864 250.432C702.106 247.689 702.727 244.424 702.727 240.636C702.727 236.879 702.114 233.644 700.886 230.932C699.659 228.205 697.826 226.114 695.386 224.659C692.947 223.189 689.909 222.455 686.273 222.455H677.273V259ZM717.358 264H711.449L728.54 217.455H734.358L751.449 264H745.54L731.631 224.818H731.267L717.358 264ZM719.54 245.818H743.358V250.818H719.54V245.818ZM758.699 264V217.455H774.426C778.063 217.455 781.047 218.076 783.381 219.318C785.714 220.545 787.441 222.235 788.562 224.386C789.684 226.538 790.244 228.985 790.244 231.727C790.244 234.47 789.684 236.902 788.562 239.023C787.441 241.144 785.722 242.811 783.403 244.023C781.085 245.22 778.123 245.818 774.517 245.818H761.79V240.727H774.335C776.82 240.727 778.82 240.364 780.335 239.636C781.866 238.909 782.972 237.879 783.653 236.545C784.35 235.197 784.699 233.591 784.699 231.727C784.699 229.864 784.35 228.235 783.653 226.841C782.956 225.447 781.843 224.371 780.312 223.614C778.782 222.841 776.759 222.455 774.244 222.455H764.335V264H758.699ZM780.608 243.091L792.062 264H785.517L774.244 243.091H780.608ZM799.636 217.455H806.364L822.182 256.091H822.727L838.545 217.455H845.273V264H840V228.636H839.545L825 264H819.909L805.364 228.636H804.909V264H799.636V217.455ZM882.028 229.091C881.756 226.788 880.65 225 878.71 223.727C876.771 222.455 874.392 221.818 871.574 221.818C869.513 221.818 867.71 222.152 866.165 222.818C864.634 223.485 863.438 224.402 862.574 225.568C861.725 226.735 861.301 228.061 861.301 229.545C861.301 230.788 861.597 231.856 862.188 232.75C862.794 233.629 863.566 234.364 864.506 234.955C865.445 235.53 866.43 236.008 867.46 236.386C868.491 236.75 869.438 237.045 870.301 237.273L875.028 238.545C876.241 238.864 877.589 239.303 879.074 239.864C880.574 240.424 882.006 241.189 883.369 242.159C884.748 243.114 885.884 244.341 886.778 245.841C887.672 247.341 888.119 249.182 888.119 251.364C888.119 253.879 887.46 256.152 886.142 258.182C884.839 260.212 882.93 261.826 880.415 263.023C877.915 264.22 874.877 264.818 871.301 264.818C867.968 264.818 865.081 264.28 862.642 263.205C860.218 262.129 858.309 260.629 856.915 258.705C855.536 256.78 854.756 254.545 854.574 252H860.392C860.544 253.758 861.134 255.212 862.165 256.364C863.21 257.5 864.528 258.348 866.119 258.909C867.725 259.455 869.453 259.727 871.301 259.727C873.453 259.727 875.384 259.379 877.097 258.682C878.809 257.97 880.165 256.985 881.165 255.727C882.165 254.455 882.665 252.97 882.665 251.273C882.665 249.727 882.233 248.47 881.369 247.5C880.506 246.53 879.369 245.742 877.96 245.136C876.551 244.53 875.028 244 873.392 243.545L867.665 241.909C864.028 240.864 861.15 239.371 859.028 237.432C856.907 235.492 855.847 232.955 855.847 229.818C855.847 227.212 856.551 224.939 857.96 223C859.384 221.045 861.294 219.53 863.688 218.455C866.097 217.364 868.786 216.818 871.756 216.818C874.756 216.818 877.422 217.356 879.756 218.432C882.089 219.492 883.938 220.947 885.301 222.795C886.68 224.644 887.407 226.742 887.483 229.091H882.028ZM894.841 222.455V217.455H929.75V222.455H915.114V264H909.477V222.455H894.841ZM934.92 264H929.011L946.102 217.455H951.92L969.011 264H963.102L949.193 224.818H948.83L934.92 264ZM937.102 245.818H960.92V250.818H937.102V245.818ZM990.625 264H976.261V217.455H991.261C995.777 217.455 999.64 218.386 1002.85 220.25C1006.06 222.098 1008.53 224.758 1010.24 228.227C1011.95 231.682 1012.81 235.818 1012.81 240.636C1012.81 245.485 1011.94 249.659 1010.22 253.159C1008.49 256.644 1005.97 259.326 1002.67 261.205C999.367 263.068 995.352 264 990.625 264ZM981.898 259H990.261C994.11 259 997.299 258.258 999.83 256.773C1002.36 255.288 1004.25 253.174 1005.49 250.432C1006.73 247.689 1007.35 244.424 1007.35 240.636C1007.35 236.879 1006.74 233.644 1005.51 230.932C1004.28 228.205 1002.45 226.114 1000.01 224.659C997.572 223.189 994.534 222.455 990.898 222.455H981.898V259ZM1017.78 222.455V217.455H1052.69V222.455H1038.05V264H1032.41V222.455H1017.78Z" fill="url(#paint1_linear_2439_4940)"/>
<path d="M165.5 675H152.932V634.273H166.057C170.008 634.273 173.388 635.088 176.199 636.719C179.009 638.336 181.164 640.663 182.662 643.699C184.16 646.722 184.909 650.341 184.909 654.557C184.909 658.799 184.153 662.452 182.642 665.514C181.131 668.564 178.93 670.91 176.04 672.554C173.15 674.185 169.636 675 165.5 675ZM157.864 670.625H165.182C168.549 670.625 171.34 669.975 173.554 668.676C175.768 667.377 177.419 665.528 178.506 663.128C179.593 660.728 180.136 657.871 180.136 654.557C180.136 651.269 179.599 648.439 178.526 646.065C177.452 643.679 175.848 641.849 173.713 640.577C171.579 639.291 168.92 638.648 165.739 638.648H157.864V670.625ZM192.938 675H187.768L202.722 634.273H207.813L222.768 675H217.597L205.427 640.716H205.109L192.938 675ZM194.847 659.091H215.688V663.466H194.847V659.091ZM261.407 634.273V675H256.634L234.441 643.023H234.043V675H229.112V634.273H233.884L256.157 666.33H256.555V634.273H261.407ZM271.276 675V634.273H276.207V654.477H276.685L294.98 634.273H301.423L284.321 652.648L301.423 675H295.457L281.298 656.068L276.207 661.796V675H271.276ZM307.807 675V634.273H332.386V638.648H312.739V652.409H331.114V656.784H312.739V670.625H332.705V675H307.807Z" fill="url(#paint2_linear_2439_4940)"/>
<path d="M516.602 729H511.432L526.386 688.273H531.477L546.432 729H541.261L529.091 694.716H528.773L516.602 729ZM518.511 713.091H539.352V717.466H518.511V713.091ZM557.707 688.273V729H552.776V688.273H557.707ZM580.164 729H567.596V688.273H580.721C584.672 688.273 588.052 689.088 590.863 690.719C593.674 692.336 595.828 694.663 597.326 697.699C598.824 700.722 599.573 704.341 599.573 708.557C599.573 712.799 598.817 716.452 597.306 719.514C595.795 722.563 593.594 724.91 590.704 726.554C587.814 728.185 584.3 729 580.164 729ZM572.528 724.625H579.846C583.213 724.625 586.004 723.975 588.218 722.676C590.432 721.377 592.083 719.527 593.17 717.128C594.257 714.728 594.8 711.871 594.8 708.557C594.8 705.269 594.263 702.438 593.19 700.065C592.116 697.679 590.512 695.849 588.377 694.577C586.243 693.291 583.585 692.648 580.403 692.648H572.528V724.625Z" fill="url(#paint3_linear_2439_4940)"/>
<path d="M727.19 477.801C718.603 481.269 709.431 483.967 700.875 486.042C753.567 449.935 787.546 411.188 787.546 411.188L786.253 410.358C754.213 443.65 723.158 468.611 695.858 487.169C679.022 490.934 665.603 492.238 665.603 492.238C665.603 492.238 602.508 490.578 592.843 490.993C583.179 491.408 565.358 494.491 565.358 494.491C565.358 494.491 580.809 500.065 612.818 504.837C644.797 509.581 667.757 494.699 667.757 494.699C633.009 507.535 618.605 504.007 614.296 503.385C610.017 502.762 576.069 495.321 576.069 495.321C606.57 489.956 647.751 496.596 669.419 493.276C672.866 492.742 676.129 492.238 679.207 491.705C652.984 506.32 645.689 507.001 622.852 511.448C607.986 514.353 579.055 515.065 559.941 515.213C557.171 514.442 551.416 512.16 542.336 505.252C529.009 495.114 507.126 493.039 507.126 493.039C507.126 493.039 498.97 492.831 487.798 486.22C476.656 479.609 448.709 480.439 448.709 480.439C448.709 480.439 472.562 482.277 478.995 485.183C485.428 488.088 495.523 494.076 498.508 494.491C500.509 494.758 506.326 499.561 512.112 503.652C510.912 503.296 509.588 502.97 508.173 502.644C493.861 492.12 480.965 496.863 472.562 495.825C464.068 494.788 444.862 494.462 444.862 494.462C468.807 495.292 478.78 501.072 489.521 507.179C491.737 508.454 493.922 509.432 495.984 510.262C493.645 509.966 491.275 509.907 488.906 510.055C481.242 502.733 461.021 500.717 441.63 501.932C423.256 503.088 390.354 492.89 386.599 491.734C396.263 495.707 419.255 502.584 432.181 504.422C444.216 506.112 459.974 515.628 462.498 517.199C458.866 518.86 456.65 520.134 456.65 520.134L446.339 521.972C440.953 523.04 436.183 524.403 432.028 525.885C402.357 527.605 334.553 506.853 322.057 493.454C322.057 493.454 372.903 495.084 400.511 499.946C396.079 498.997 366.008 492.92 329.136 491.586C329.136 491.586 317.964 490.341 311.747 488.266C311.747 488.266 326.797 501.725 343.109 507.92C356.898 513.168 389.092 526.686 427.78 527.486C417.377 531.726 411.683 536.261 411.006 536.825C417.131 532.733 424.271 529.68 431.289 527.516C437.26 527.516 443.385 527.219 449.571 526.538C449.571 526.538 461.051 526.152 477.825 532.674C474.409 535.075 471.762 536.943 470.408 537.506C465.237 539.67 433.905 541.953 433.905 541.953C433.905 541.953 463.113 540.916 479.641 539.167C492.106 537.862 500.478 534.275 503.833 532.615C503.217 533.267 502.663 533.801 502.171 534.216C499.155 536.765 487.736 544.236 483.796 546.756C486.597 545.007 493.707 540.886 504.325 536.409C547.569 549.216 594.69 537.328 594.69 537.328C540.828 543.643 511.804 536.143 507.803 534.987C510.912 533.771 514.236 532.526 517.837 531.34C519.745 530.688 521.5 530.065 523.1 529.443C566.528 542.457 590.812 536.113 590.812 536.113C556.987 537.714 531.441 530.421 525.408 528.494C539.936 522.298 539.289 517.288 539.289 517.288C539.289 517.288 546.368 516.666 600.476 515.628C647.782 514.739 676.714 495.766 683.208 491.052C686.593 490.459 689.733 489.867 692.718 489.274C651.537 516.814 619.312 529.68 605.832 534.334C618.574 530.184 630.916 525.174 642.765 519.601C628.361 528.138 608.54 541.746 600.907 550.995C590.35 563.831 561.48 588.259 560.588 589C595.367 575.363 628.207 547.675 635.686 537.121C641.657 528.761 654.615 516.014 659.724 511.063C673.113 503.918 685.762 496.181 697.52 488.266C725.836 482.159 736.331 475.726 761.077 465.765C790.47 453.937 859.597 397.878 868 391C783.206 457.968 754.736 466.625 727.159 477.771L727.19 477.801ZM492.876 506.557C488.69 503.326 476.44 498.078 476.44 498.078C476.44 498.078 479.98 497.574 489.121 497.574C498.262 497.574 505.741 501.991 506.449 502.377C497.093 500.657 485.274 500.213 485.274 500.213C485.274 500.213 495 502.555 505.741 511.359C506.049 511.626 506.387 511.863 506.726 512.13C503.802 511.33 496.231 509.106 492.907 506.557H492.876ZM440.799 504.245C470.931 501.013 482.811 508.454 485.335 510.411C477.364 511.389 469.762 514.116 464.375 516.429L440.769 504.245H440.799ZM499.955 511.715C503.987 512.931 507.311 513.435 509.188 513.642C510.142 514.146 511.158 514.561 512.205 514.976C505.987 515.48 498.231 519.393 491.06 523.84C481.673 525.085 459.482 520.816 459.482 520.816C479.487 510.589 495.092 511.181 499.955 511.715ZM441.877 524.907C450.125 523.247 456.958 522.921 459.728 523.484C464.775 524.551 482.627 525.441 488.136 525.708C484.443 528.109 480.965 530.569 478.041 532.615C475.363 530.836 462.621 523.306 441.907 524.907H441.877ZM478.718 535.994C484.196 530.332 489.767 526.212 494.876 523.247C495.954 523.01 496.723 522.832 495.123 523.099C504.695 517.585 512.451 516.014 514.39 515.717C517.652 516.695 521.069 517.229 524.331 517.496C523.808 517.614 523.254 517.733 522.608 517.911C517.775 519.186 513.005 523.306 509.127 527.22C495.215 536.943 478.687 536.024 478.687 536.024L478.718 535.994ZM537.412 517.496C537.412 517.496 532.487 522.862 525.593 526.182C518.945 529.384 504.633 534.72 503.741 535.046C504.295 534.483 510.973 527.842 515.498 523.277C519.437 519.334 525.624 518.029 527.624 517.703C532.087 517.852 535.842 517.585 537.566 517.407L537.412 517.496ZM539.443 516.28C528.886 517.318 512.081 514.472 508.419 511.211C504.695 507.891 494.107 502.11 494.107 502.11C502.079 502.347 510.696 504.689 516.236 506.498C517.745 507.417 519.16 508.247 520.422 508.81C526.886 511.656 537.843 515.51 539.659 516.132L539.412 516.28H539.443ZM541.536 515.243C536.766 513.79 524.577 509.581 513.189 501.991C502.448 494.847 500.324 493.513 499.924 493.305C501.032 493.424 520.545 495.529 530.364 500.924C538.766 505.579 550.708 513.346 558.064 515.243C549.169 515.272 542.798 515.213 541.536 515.213V515.243ZM609.771 558.436C594.321 570.857 568.959 583.871 568.959 583.871C568.959 583.871 591.304 563.802 606.755 548.712C619.066 536.706 643.35 520.727 652.738 514.739C654.215 513.998 655.692 513.227 657.17 512.456C644.304 522.98 623.344 547.526 609.771 558.436Z" fill="url(#paint4_linear_2439_4940)"/>
<path d="M603.492 535.135C602.014 535.609 600.537 536.083 599.029 536.528C599.029 536.528 600.568 536.113 603.492 535.135Z" fill="url(#paint5_linear_2439_4940)"/>
<path d="M483.489 547.022C482.843 547.437 482.474 547.675 482.474 547.675C482.474 547.675 482.874 547.408 483.489 547.022Z" fill="url(#paint6_linear_2439_4940)"/>
<path d="M223.906 491.112C214.857 485.183 207.748 481.151 207.748 481.151C207.748 481.151 214.919 485.776 223.906 491.112Z" fill="url(#paint7_linear_2439_4940)"/>
<path d="M150.776 472.287C143.42 468.878 142.62 468.611 142.62 468.611C142.62 468.611 145.821 470.093 150.776 472.287Z" fill="url(#paint8_linear_2439_4940)"/>
<path d="M136.465 473.977C129.632 471.131 124 468.878 124 468.878C124 468.878 129.448 471.161 136.465 473.977Z" fill="url(#paint9_linear_2439_4940)"/>
<path d="M265.641 531.162C265.641 531.162 265.764 531.192 265.826 531.192C265.826 531.192 265.764 531.192 265.641 531.162ZM265.641 531.162C265.641 531.162 265.764 531.192 265.826 531.192C265.826 531.192 265.764 531.192 265.641 531.162ZM265.641 531.162C265.641 531.162 265.764 531.192 265.826 531.192C265.826 531.192 265.764 531.192 265.641 531.162ZM508.111 558.969C501.771 559.473 506.511 559.177 487.952 569.701C469.362 580.255 422.363 579.751 422.363 579.751L458.774 562.794C458.774 562.794 474.317 557.724 484.658 557.606C494.969 557.517 501.833 557.606 501.833 557.606C501.833 557.606 485.305 555.234 476.933 555.442C471.208 555.56 464.806 557.724 458.282 560.748C447.355 561.726 430.12 562.171 408.236 559.058C408.236 559.058 415.1 549.957 400.942 544.176C386.784 538.366 378.843 536.943 370.902 528.85C362.931 520.786 346.865 512.93 324.089 511.063C324.089 511.063 353.297 515.184 365.516 527.812C365.516 527.812 371.949 533.593 374.103 535.046L378.597 542.279C378.597 542.279 379.305 543.732 380.69 545.837C374.904 540.5 363.608 531.814 347.48 527.308C323.289 520.549 328.736 517.674 309.408 512.693C290.079 507.713 285.216 508.573 285.216 508.573C285.216 508.573 318.272 515.184 322.427 518.919C326.582 522.624 341.048 528.02 341.048 528.02C341.048 528.02 341.355 528.524 341.971 529.384C333.353 527.457 280.753 515.154 265.918 500.776C267.396 502.317 274.505 509.106 291.218 516.043C298.451 519.008 303.221 522.061 306.73 525.026C301.251 522.862 287.494 517.437 277.614 513.553C265.149 508.632 248.128 496.418 238.064 486.25C239.726 488.029 249.021 498.167 258.131 505.667C260.778 507.861 262.779 509.314 264.533 510.589C261.425 508.899 257.608 507.179 253.114 505.816C245.974 503.652 233.847 496.952 223.906 491.082C228.523 494.106 233.632 497.663 238.556 501.399C231.539 498.434 218.089 492.95 210.579 491.052C202.084 488.918 175.861 476.289 166.382 471.664C174.015 475.548 192.358 485.005 200.392 490.133C190.235 489.214 164.135 478.127 150.777 472.228C154.132 473.799 158.872 476.022 165.52 479.194C170.814 481.714 174.723 483.849 177.862 485.835C175.092 485.657 169.644 485.034 162.35 483.196C156.317 481.684 145.176 477.445 136.435 473.947C146.468 478.097 159.056 483.582 160.349 485.123C162.104 487.258 172.445 497.189 179.155 500.687C168.382 500.479 151.331 494.877 147.115 493.454C150.962 494.936 165.858 500.45 175.646 502.347C175.646 502.347 180.355 503.563 186.387 509.492C191.374 514.442 201.315 519.719 209.779 521.468C205.162 521.201 201.838 520.816 201.838 520.816C186.972 511.389 175.769 512.426 174.723 512.545C175.707 512.545 187.403 512.812 203.562 524.285C216.365 533.386 228.092 534.927 233.016 535.164C225.784 536.439 220.459 537.358 218.581 536.291C214.673 534.038 184.295 525.856 178.785 524.403C182.571 525.559 198.545 530.48 212.118 536.054C250.837 556.242 271.674 561.786 282.169 562.972C270.381 563.891 260.101 563.327 260.101 563.327C260.101 563.327 243.542 561.549 231.108 567.863C231.878 567.655 245.174 564.068 256.839 564.691C269.304 565.373 271.15 563.327 288.325 568.278C303.037 572.547 318.795 572.932 329.783 569.493C328.459 570.383 327.69 570.916 327.69 570.916C327.69 570.916 322.673 572.992 314.363 576.43C306.053 579.869 294.757 581.381 294.757 581.381C308.638 580.966 312.793 578.357 320.519 576.282C328.244 574.207 332.399 574.919 332.399 574.919C348.404 575.304 358.807 572.399 363.485 570.739C354.005 577.083 317.656 584.583 317.656 584.583C317.656 584.583 293.465 587.34 318.241 584.85C343.017 582.389 366.193 570.916 366.193 570.916C399.311 571.569 403.835 561.964 404.327 560.392C405.158 560.392 406.02 560.392 406.882 560.303C406.882 560.303 395.309 560.096 387.769 551.617C380.259 543.139 377.674 537.358 377.674 537.358C377.674 537.358 398.726 542.931 402.819 547.082C406.882 551.202 406.451 558.851 406.451 558.851C406.451 558.851 421.871 566.677 456.189 561.697C453.819 562.853 451.418 564.157 449.048 565.491C439.507 570.857 410.606 583.041 410.606 583.041C410.606 583.041 459.236 580.373 475.425 576.934C491.645 573.525 504.941 561.726 504.941 561.726C504.941 561.726 509.989 560.896 542.09 555.827C574.161 550.758 590.597 539.404 590.597 539.404C552.709 554.493 514.39 558.406 508.05 558.94L508.111 558.969ZM306.33 522.12C306.33 522.12 337.108 528.346 344.587 533.178C348.711 538.633 356.037 547.141 364.808 552.329C361.823 552.625 339.94 554.374 327.659 543.198C314.486 531.192 306.33 522.091 306.33 522.091V522.12ZM311.562 529.917C314.117 532.941 315.902 535.728 318.241 538.099C320.949 540.827 324.612 545.392 331.168 548.979C327.536 548.92 315.471 548.238 306.822 542.931C296.512 536.587 274.197 514.65 274.197 514.65C274.197 514.65 301.313 523.543 311.593 529.917H311.562ZM187.988 489.155C192.912 491.438 200.822 493.068 204.947 493.809C209.44 498.226 223.198 510.974 238.957 520.46C222.059 517.526 204.793 507.832 199.745 501.991C194.574 496.062 182.14 486.694 182.14 486.694C182.14 486.694 181.124 486.013 188.019 489.155H187.988ZM169.367 491.23C163.242 485.687 162.473 485.005 162.381 484.916C162.811 484.975 176.692 487.554 180.817 487.91C186.634 492.09 189.927 496.062 196.975 502.229C195.313 501.784 191.589 500.983 185.526 500.776C181.463 499.027 174.199 495.588 169.367 491.23ZM193.99 512.456C184.695 505.549 180.817 502.792 180.817 502.792C180.817 502.792 193.805 502.495 199.253 504.156C200.268 505.045 201.376 505.934 202.577 506.913C215.442 517.318 228.646 519.778 234.186 520.371C232.124 520.371 229.815 520.579 227.199 520.964C223.629 521.528 219.597 521.676 215.781 521.646C211.626 520.668 201.284 517.792 193.99 512.397V512.456ZM266.688 532.437C257.239 531.637 247.605 532.793 239.387 534.127C222.09 534.809 205.716 523.069 205.716 523.069C205.716 523.069 217.904 523.632 228.769 522.091C235.694 521.113 240.157 521.824 242.496 522.476C250.16 526.745 258.131 530.065 265.641 531.162C263.825 530.718 248.806 526.745 229.6 511.774C209.133 495.796 205.993 491.378 205.993 491.378C205.993 491.378 234.432 500.479 245.943 507.357C249.483 510.381 252.653 513.464 255.238 516.458C268.565 532.022 278.907 543.109 294.757 543.257C289.494 544.414 283.585 547.2 283.585 547.2C267.826 555.204 224.46 538.811 224.46 538.811C231.17 534.957 266.688 532.467 266.688 532.467V532.437ZM235.325 545.244C252.314 550.283 273.582 553.485 280.722 550.106C288.417 546.459 293.896 544.058 295.773 543.257C296.296 543.257 296.789 543.257 297.343 543.228C297.343 543.228 296.973 543.169 296.265 543.05C296.327 543.02 296.389 542.991 296.45 542.991C296.327 542.991 296.235 542.991 296.112 543.05C291.618 542.22 275.952 538.485 265.026 525.737C252.13 510.707 250.56 508.662 246.559 505.727C246.559 505.727 264.533 512.011 273.613 517.792C275.798 519.838 278.445 522.506 282.015 526.419C293.618 539.048 309.654 550.135 326.951 550.58C322.304 551.499 315.902 553.366 308.484 557.161C304.114 559.384 298.389 560.867 292.418 561.815C274.628 562.823 246.836 550.698 235.325 545.244ZM320.673 569.405C308.361 570.353 287.74 566.084 287.74 566.084C287.74 566.084 301.621 563.179 306.915 560.155C311.808 557.369 324.828 550.343 335.815 551.113C341.632 553.337 349.265 554.671 359.453 554.019C352.128 556.123 342.894 561.252 336.277 565.343C332.43 567.033 326.982 568.901 320.673 569.405ZM358.868 570.501C347.419 574.207 329.106 572.695 329.106 572.695C329.106 572.695 334.4 569.938 346.434 561.964C356.098 555.531 365.455 554.523 368.779 554.374C372.318 555.975 376.012 556.894 379.797 556.835C375.981 559.355 371.918 563.298 368.04 566.825C366.255 567.774 363.423 568.989 358.899 570.472L358.868 570.501ZM391.124 556.39C394.386 558.465 398.295 560.007 402.85 560.333C396.756 570.768 367.732 569.108 367.732 569.108C367.732 569.108 378.597 559.622 384.476 557.131C387.584 555.827 389.739 555.975 391.093 556.39H391.124ZM388.323 554.404C388.323 554.404 388.261 554.404 388.23 554.374C386.353 553.93 384.291 554.434 382.167 555.501C376.996 554.789 363.762 552.003 354.59 541.538C344.433 529.947 343.202 528.524 343.017 528.316C343.848 528.524 365.055 534.156 383.029 549.098C384.445 550.847 386.199 552.685 388.323 554.374V554.404ZM265.641 531.162C265.641 531.162 265.764 531.192 265.826 531.192C265.826 531.192 265.764 531.192 265.641 531.162ZM265.641 531.162C265.641 531.162 265.764 531.192 265.826 531.192C265.826 531.192 265.764 531.192 265.641 531.162ZM265.641 531.162C265.641 531.162 265.764 531.192 265.826 531.192C265.826 531.192 265.764 531.192 265.641 531.162Z" fill="url(#paint10_linear_2439_4940)"/>
<path d="M259.403 389.727H268.034V436.918C268.034 441.79 266.886 446.14 264.589 449.968C262.315 453.773 259.102 456.777 254.949 458.982C250.796 461.162 245.924 462.253 240.332 462.253C234.741 462.253 229.869 461.162 225.716 458.982C221.563 456.777 218.338 453.773 216.041 449.968C213.768 446.14 212.631 441.79 212.631 436.918V389.727H221.261V436.222C221.261 439.702 222.027 442.799 223.558 445.513C225.089 448.205 227.27 450.328 230.101 451.882C232.955 453.413 236.365 454.179 240.332 454.179C244.3 454.179 247.71 453.413 250.564 451.882C253.418 450.328 255.598 448.205 257.107 445.513C258.638 442.799 259.403 439.702 259.403 436.222V389.727ZM309.769 461V389.727H318.4V425.085H319.235L351.252 389.727H362.528L332.599 421.884L362.528 461H352.088L327.309 427.869L318.4 437.892V461H309.769ZM398.199 461V389.727H422.281C427.85 389.727 432.42 390.679 435.993 392.581C439.566 394.46 442.211 397.047 443.928 400.342C445.645 403.636 446.503 407.383 446.503 411.582C446.503 415.782 445.645 419.505 443.928 422.754C442.211 426.002 439.578 428.554 436.028 430.41C432.478 432.243 427.942 433.159 422.421 433.159H402.932V425.364H422.142C425.947 425.364 429.01 424.807 431.33 423.693C433.673 422.58 435.367 421.002 436.411 418.96C437.478 416.895 438.012 414.436 438.012 411.582C438.012 408.729 437.478 406.235 436.411 404.1C435.343 401.966 433.638 400.318 431.295 399.158C428.952 397.975 425.854 397.384 422.003 397.384H406.83V461H398.199ZM431.747 428.983L449.287 461H439.264L422.003 428.983H431.747ZM488.308 461H479.26L505.43 389.727H514.339L540.51 461H531.461L510.163 401.003H509.606L488.308 461ZM491.649 433.159H528.12V440.815H491.649V433.159ZM584.742 389.727V461H576.111V389.727H584.742ZM648.541 461H626.547V389.727H649.515C656.429 389.727 662.345 391.154 667.264 394.008C672.183 396.838 675.953 400.91 678.574 406.223C681.196 411.513 682.507 417.847 682.507 425.224C682.507 432.649 681.184 439.04 678.54 444.4C675.895 449.736 672.043 453.843 666.986 456.719C661.928 459.573 655.78 461 648.541 461ZM635.177 453.344H647.984C653.877 453.344 658.761 452.207 662.635 449.933C666.51 447.66 669.398 444.423 671.301 440.224C673.203 436.024 674.155 431.025 674.155 425.224C674.155 419.471 673.215 414.517 671.336 410.364C669.457 406.188 666.649 402.987 662.914 400.759C659.179 398.509 654.527 397.384 648.959 397.384H635.177V453.344ZM721.058 461H712.01L738.18 389.727H747.089L773.26 461H764.211L742.913 401.003H742.356L721.058 461ZM724.399 433.159H760.87V440.815H724.399V433.159Z" fill="#2F2122"/>
<defs>
<filter id="filter0_f_2439_4940" x="130.841" y="146.447" width="894.886" height="757.102" filterUnits="userSpaceOnUse" color-interpolation-filters="sRGB">
<feFlood flood-opacity="0" result="BackgroundImageFix"/>
<feBlend mode="normal" in="SourceGraphic" in2="BackgroundImageFix" result="shape"/>
<feGaussianBlur stdDeviation="56" result="effect1_foregroundBlur_2439_4940"/>
</filter>
<filter id="filter1_f_2439_4940" x="0.602539" y="0.787231" width="886.675" height="752.265" filterUnits="userSpaceOnUse" color-interpolation-filters="sRGB">
<feFlood flood-opacity="0" result="BackgroundImageFix"/>
<feBlend mode="normal" in="SourceGraphic" in2="BackgroundImageFix" result="shape"/>
<feGaussianBlur stdDeviation="61.5" result="effect1_foregroundBlur_2439_4940"/>
</filter>
<linearGradient id="paint0_linear_2439_4940" x1="193.238" y1="192.153" x2="207.153" y2="278.849" gradientUnits="userSpaceOnUse">
<stop stop-color="#389FEC"/>
<stop offset="0.18" stop-color="#379DEA"/>
<stop offset="0.25" stop-color="#3799E3"/>
<stop offset="0.3" stop-color="#3792D7"/>
<stop offset="0.34" stop-color="#3787C6"/>
<stop offset="0.62" stop-color="#D5C71D"/>
<stop offset="0.67" stop-color="#E5D81C"/>
<stop offset="0.72" stop-color="#F1E41B"/>
<stop offset="0.79" stop-color="#F8EB1B"/>
<stop offset="1" stop-color="#FAED1B"/>
</linearGradient>
<linearGradient id="paint1_linear_2439_4940" x1="763.483" y1="207.153" x2="773.491" y2="294.942" gradientUnits="userSpaceOnUse">
<stop stop-color="#389FEC"/>
<stop offset="0.18" stop-color="#379DEA"/>
<stop offset="0.25" stop-color="#3799E3"/>
<stop offset="0.3" stop-color="#3792D7"/>
<stop offset="0.34" stop-color="#3787C6"/>
<stop offset="0.62" stop-color="#D5C71D"/>
<stop offset="0.67" stop-color="#E5D81C"/>
<stop offset="0.72" stop-color="#F1E41B"/>
<stop offset="0.79" stop-color="#F8EB1B"/>
<stop offset="1" stop-color="#FAED1B"/>
</linearGradient>
<linearGradient id="paint2_linear_2439_4940" x1="195.242" y1="625.551" x2="210.881" y2="700.837" gradientUnits="userSpaceOnUse">
<stop stop-color="#389FEC"/>
<stop offset="0.18" stop-color="#379DEA"/>
<stop offset="0.25" stop-color="#3799E3"/>
<stop offset="0.3" stop-color="#3792D7"/>
<stop offset="0.34" stop-color="#3787C6"/>
<stop offset="0.62" stop-color="#D5C71D"/>
<stop offset="0.67" stop-color="#E5D81C"/>
<stop offset="0.72" stop-color="#F1E41B"/>
<stop offset="0.79" stop-color="#F8EB1B"/>
<stop offset="1" stop-color="#FAED1B"/>
</linearGradient>
<linearGradient id="paint3_linear_2439_4940" x1="533.246" y1="679.551" x2="561.386" y2="746.206" gradientUnits="userSpaceOnUse">
<stop stop-color="#389FEC"/>
<stop offset="0.18" stop-color="#379DEA"/>
<stop offset="0.25" stop-color="#3799E3"/>
<stop offset="0.3" stop-color="#3792D7"/>
<stop offset="0.34" stop-color="#3787C6"/>
<stop offset="0.62" stop-color="#D5C71D"/>
<stop offset="0.67" stop-color="#E5D81C"/>
<stop offset="0.72" stop-color="#F1E41B"/>
<stop offset="0.79" stop-color="#F8EB1B"/>
<stop offset="1" stop-color="#FAED1B"/>
</linearGradient>
<linearGradient id="paint4_linear_2439_4940" x1="703.737" y1="549.305" x2="484.635" y2="321.83" gradientUnits="userSpaceOnUse">
<stop offset="0.01" stop-color="#2F2228"/>
<stop offset="0.03" stop-color="#2F2C37"/>
<stop offset="0.09" stop-color="#314A67"/>
<stop offset="0.16" stop-color="#336490"/>
<stop offset="0.22" stop-color="#3579B1"/>
<stop offset="0.29" stop-color="#368ACB"/>
<stop offset="0.35" stop-color="#3795DD"/>
<stop offset="0.42" stop-color="#379CE8"/>
<stop offset="0.5" stop-color="#389FEC"/>
<stop offset="0.66" stop-color="#78B3A7"/>
<stop offset="0.89" stop-color="#D4D142"/>
<stop offset="1" stop-color="#FADE1B"/>
</linearGradient>
<linearGradient id="paint5_linear_2439_4940" x1="602.014" y1="536.558" x2="600.563" y2="535.051" gradientUnits="userSpaceOnUse">
<stop offset="0.01" stop-color="#2F2228"/>
<stop offset="0.03" stop-color="#2F2C37"/>
<stop offset="0.09" stop-color="#314A67"/>
<stop offset="0.16" stop-color="#336490"/>
<stop offset="0.22" stop-color="#3579B1"/>
<stop offset="0.29" stop-color="#368ACB"/>
<stop offset="0.35" stop-color="#3795DD"/>
<stop offset="0.42" stop-color="#379CE8"/>
<stop offset="0.5" stop-color="#389FEC"/>
<stop offset="0.66" stop-color="#78B3A7"/>
<stop offset="0.89" stop-color="#D4D142"/>
<stop offset="1" stop-color="#FADE1B"/>
</linearGradient>
<linearGradient id="paint6_linear_2439_4940" x1="483.058" y1="547.437" x2="482.879" y2="547.283" gradientUnits="userSpaceOnUse">
<stop offset="0.01" stop-color="#2F2228"/>
<stop offset="0.03" stop-color="#2F2C37"/>
<stop offset="0.09" stop-color="#314A67"/>
<stop offset="0.16" stop-color="#336490"/>
<stop offset="0.22" stop-color="#3579B1"/>
<stop offset="0.29" stop-color="#368ACB"/>
<stop offset="0.35" stop-color="#3795DD"/>
<stop offset="0.42" stop-color="#379CE8"/>
<stop offset="0.5" stop-color="#389FEC"/>
<stop offset="0.66" stop-color="#78B3A7"/>
<stop offset="0.89" stop-color="#D4D142"/>
<stop offset="1" stop-color="#FADE1B"/>
</linearGradient>
<linearGradient id="paint7_linear_2439_4940" x1="222.429" y1="492.535" x2="209.691" y2="479.28" gradientUnits="userSpaceOnUse">
<stop offset="0.01" stop-color="#2F2228"/>
<stop offset="0.03" stop-color="#2F2C37"/>
<stop offset="0.09" stop-color="#314A67"/>
<stop offset="0.16" stop-color="#336490"/>
<stop offset="0.22" stop-color="#3579B1"/>
<stop offset="0.29" stop-color="#368ACB"/>
<stop offset="0.35" stop-color="#3795DD"/>
<stop offset="0.42" stop-color="#379CE8"/>
<stop offset="0.5" stop-color="#389FEC"/>
<stop offset="0.66" stop-color="#78B3A7"/>
<stop offset="0.89" stop-color="#D4D142"/>
<stop offset="1" stop-color="#FADE1B"/>
</linearGradient>
<linearGradient id="paint8_linear_2439_4940" x1="149.668" y1="473.354" x2="143.922" y2="467.358" gradientUnits="userSpaceOnUse">
<stop offset="0.01" stop-color="#2F2228"/>
<stop offset="0.03" stop-color="#2F2C37"/>
<stop offset="0.09" stop-color="#314A67"/>
<stop offset="0.16" stop-color="#336490"/>
<stop offset="0.22" stop-color="#3579B1"/>
<stop offset="0.29" stop-color="#368ACB"/>
<stop offset="0.35" stop-color="#3795DD"/>
<stop offset="0.42" stop-color="#379CE8"/>
<stop offset="0.5" stop-color="#389FEC"/>
<stop offset="0.66" stop-color="#78B3A7"/>
<stop offset="0.89" stop-color="#D4D142"/>
<stop offset="1" stop-color="#FADE1B"/>
</linearGradient>
<linearGradient id="paint9_linear_2439_4940" x1="134.68" y1="475.726" x2="126.117" y2="466.867" gradientUnits="userSpaceOnUse">
<stop offset="0.01" stop-color="#2F2228"/>
<stop offset="0.03" stop-color="#2F2C37"/>
<stop offset="0.09" stop-color="#314A67"/>
<stop offset="0.16" stop-color="#336490"/>
<stop offset="0.22" stop-color="#3579B1"/>
<stop offset="0.29" stop-color="#368ACB"/>
<stop offset="0.35" stop-color="#3795DD"/>
<stop offset="0.42" stop-color="#379CE8"/>
<stop offset="0.5" stop-color="#389FEC"/>
<stop offset="0.66" stop-color="#78B3A7"/>
<stop offset="0.89" stop-color="#D4D142"/>
<stop offset="1" stop-color="#FADE1B"/>
</linearGradient>
<linearGradient id="paint10_linear_2439_4940" x1="491.583" y1="634.831" x2="240.31" y2="373.955" gradientUnits="userSpaceOnUse">
<stop offset="0.01" stop-color="#2F2228"/>
<stop offset="0.03" stop-color="#2F2C37"/>
<stop offset="0.09" stop-color="#314A67"/>
<stop offset="0.16" stop-color="#336490"/>
<stop offset="0.22" stop-color="#3579B1"/>
<stop offset="0.29" stop-color="#368ACB"/>
<stop offset="0.35" stop-color="#3795DD"/>
<stop offset="0.42" stop-color="#379CE8"/>
<stop offset="0.5" stop-color="#389FEC"/>
<stop offset="0.66" stop-color="#78B3A7"/>
<stop offset="0.89" stop-color="#D4D142"/>
<stop offset="1" stop-color="#FADE1B"/>
</linearGradient>
</defs>
</svg>
