<svg xmlns="http://www.w3.org/2000/svg" fill="none" viewBox="0 0 148 153">
    <g clip-path="url(#a)">
        <rect width="148" height="153" fill="#fff" rx="74" />
        <path fill="url(#b)"
            d="M112.518 86.07c-1.415.6134-2.926 1.0904-4.336 1.4574 8.682-6.3853 14.28-13.2371 14.28-13.2371l-.213-.1468c-5.279 5.8872-10.395 10.3014-14.893 13.5831-2.774.6658-4.985.8965-4.985.8965s-10.396-.2936-11.9883-.2202c-1.5923.0734-4.5285.6186-4.5285.6186s2.5457.9856 7.8196 1.8296c5.2689.8388 9.0522-1.7929 9.0522-1.7929-5.7255 2.27-8.0988 1.6461-8.8087 1.536-.7049-.1101-6.2983-1.4259-6.2983-1.4259 5.0254-.9489 11.8105.2254 15.381-.3617.568-.0944 1.105-.1835 1.612-.2779-4.32 2.5845-5.5222 2.7051-9.285 3.4915-2.4493.5137-7.2162.6395-10.3653.6658-.4564-.1363-1.4047-.54-2.9007-1.7615-2.1958-1.7929-5.8013-2.1599-5.8013-2.1599s-1.3438-.0367-3.1847-1.2057c-1.8357-1.1691-6.4403-1.0223-6.4403-1.0223s3.9302.325 4.99.8388c1.0599.5137 2.7232 1.5727 3.2151 1.6461.3296.0472 1.288.8965 2.2414 1.6199-.1978-.0629-.4158-.1206-.6491-.1782-2.358-1.8611-4.4828-1.0223-5.8673-1.2058-1.3996-.1835-4.5639-.2411-4.5639-.2411 3.9453.1467 5.5883 1.169 7.3581 2.249.3651.2254.7252.3984 1.065.5452-.3855-.0525-.7759-.0629-1.1664-.0367-1.2627-1.2949-4.5944-1.6514-7.7892-1.4364-3.0274.2044-8.4485-1.599-9.0671-1.8034 1.5923.7024 5.3804 1.9187 7.5103 2.2437 1.9828.2988 4.5792 1.9816 4.995 2.2595-.5984.2936-.9635.519-.9635.519l-1.6988.325c-.8875.1888-1.6735.4299-2.3581.692-4.8885.3041-16.0602-3.3656-18.119-5.7352 0 0 8.3774.2883 12.9262 1.1481-.7302-.1678-5.6847-1.2424-11.7599-1.4784 0 0-1.8408-.2201-2.8651-.5871 0 0 2.4797 2.38 5.1674 3.4757 2.2719.9279 7.5762 3.3185 13.9506 3.46-1.714.7497-2.6522 1.5518-2.7637 1.6514 1.0091-.7235 2.1856-1.2634 3.3418-1.6461.9838 0 1.9929-.0525 3.0122-.173 0 0 1.8916-.0682 4.6553 1.0851-.5629.4247-.999.7549-1.2221.8546-.852.3827-6.0144.7863-6.0144.7863s4.8125-.1835 7.5357-.4928c2.0538-.2306 3.4331-.865 3.9859-1.1585-.1014.1153-.1927.2097-.2739.283-.4969.4509-2.3783 1.772-3.0274 2.2176.4615-.3093 1.6329-1.038 3.3824-1.8296 7.1249 2.2647 14.8888.1625 14.8888.1625-8.8745 1.1166-13.6565-.2097-14.3157-.4142.5121-.2149 1.0598-.4351 1.6531-.6448.3144-.1153.6035-.2254.8672-.3355 7.1553 2.3014 11.1564 1.1796 11.1564 1.1796-5.5731.2831-9.7821-1.0066-10.7761-1.3473 2.3936-1.0957 2.2871-1.9817 2.2871-1.9817s1.1663-.1101 10.0813-.2936c7.7943-.1572 12.5607-3.5124 13.6307-4.3459.558-.1049 1.076-.2097 1.567-.3146-6.785 4.8702-12.0942 7.1455-14.3153 7.9685 2.0994-.7339 4.133-1.6199 6.0853-2.6055-2.3733 1.5098-5.639 3.9161-6.8967 5.5517-1.7394 2.2705-6.496 6.5895-6.6431 6.7205 5.7303-2.411 11.1412-7.3076 12.3735-9.1739.9838-1.4784 3.1183-3.7326 3.9603-4.6081 2.206-1.2634 4.29-2.6317 6.228-4.0314 4.665-1.0799 6.394-2.2176 10.471-3.979 4.843-2.0917 16.233-12.0051 17.617-13.2214-13.971 11.8426-18.661 13.3734-23.205 15.3446l.005.0052Zm-38.6062 5.0852c-.6897-.5715-2.708-1.4994-2.708-1.4994s.5832-.0891 2.0893-.0891 2.7384.7811 2.855.8493c-1.5416-.3041-3.4889-.3827-3.4889-.3827s1.6025.4141 3.3723 1.9711c.0507.0472.1065.0892.1623.1363-.4818-.1415-1.7293-.5347-2.277-.9855h-.005Zm-8.5803-.4089c4.9646-.5715 6.922.7444 7.3379 1.0904-1.3135.173-2.566.6553-3.4535 1.0642l-3.8895-2.1546h.0051Zm9.7466 1.321c.6643.215 1.212.3041 1.5214.3408.1572.0891.3245.1625.4969.2359-1.0243.0891-2.3023.7811-3.4838 1.5675-1.5467.2202-5.203-.5347-5.203-.5347 3.2962-1.8087 5.8673-1.7038 6.6685-1.6095Zm-9.5691 2.3329c1.359-.2935 2.4848-.3512 2.9412-.2516.8317.1887 3.7729.346 4.6806.3932-.6085.4246-1.1815.8597-1.6633 1.2215-.4412-.3146-2.5406-1.6462-5.9535-1.3631h-.005Zm6.0701 1.9607c.9026-1.0013 1.8205-1.73 2.6623-2.2543.1775-.0419.3043-.0733.0406-.0262 1.5771-.9751 2.855-1.2529 3.1745-1.3053.5375.173 1.1004.2673 1.6379.3145-.0862.021-.1774.042-.2839.0734-.7962.2254-1.5822.9541-2.2212 1.6461-2.2921 1.7195-5.0153 1.557-5.0153 1.557l.0051-.0052Zm9.6706-3.2713s-.8114.9489-1.9473 1.536c-1.0954.5662-3.4535 1.5099-3.6005 1.5675.0913-.0996 1.1917-1.2739 1.9371-2.0812.6491-.6973 1.6684-.9279 1.998-.9856.7354.0262 1.354-.021 1.638-.0524l-.0253.0157Zm.3347-.2149c-1.7394.1835-4.5083-.3198-5.1117-.8965-.6136-.5871-2.3581-1.6094-2.3581-1.6094 1.3134.0419 2.7333.4561 3.6461.7759.2485.1625.4818.3093.6897.4089 1.0649.5033 2.8702 1.1848 3.1694 1.2949l-.0405.0262h.0051Zm.3448-.1835c-.786-.2569-2.7942-1.0013-4.6705-2.3434-1.7698-1.2634-2.1197-1.4993-2.1856-1.536.1825.021 3.3976.3932 5.0153 1.3473 1.3844.8231 3.352 2.1966 4.564 2.5321-1.4656.0052-2.5153-.0052-2.7232-.0052v.0052Zm11.2426 7.6378c-2.5457 2.197-6.7243 4.498-6.7243 4.498s3.6817-3.549 6.2273-6.2171c2.0285-2.1232 6.0296-4.9489 7.5762-6.0078.243-.1311.487-.2674.73-.4037-2.1194 1.8611-5.5728 6.2018-7.8092 8.1306Z" />
        <path fill="url(#c)" d="M92.1367 96.209c-.2434.0839-.4868.1677-.7353.2464 0 0 .2535-.0734.7353-.2464Z" />
        <path fill="url(#d)" d="M72.3656 98.311c-.1065.0734-.1674.1154-.1674.1154s.066-.0472.1674-.1154Z" />
        <path fill="url(#e)"
            d="M29.5959 88.4236c-1.4909-1.0485-2.6623-1.7615-2.6623-1.7615s1.1816.8178 2.6623 1.7615Z" />
        <path fill="url(#f)" d="M17.547 85.0949c-1.212-.6029-1.3439-.6501-1.3439-.6501s.5274.2621 1.3439.6501Z" />
        <path fill="url(#g)" d="M15.1886 85.3939c-1.1258-.5033-2.0538-.9017-2.0538-.9017s.8976.4037 2.0538.9017Z" />
        <path fill="url(#h)"
            d="M36.4721 95.5064s.0202.0052.0304.0052c0 0-.0102 0-.0304-.0052Zm0 0s.0202.0052.0304.0052c0 0-.0102 0-.0304-.0052Zm0 0s.0202.0052.0304.0052c0 0-.0102 0-.0304-.0052Zm39.9501 4.9176c-1.0447.089-.2637.036-3.3216 1.898-3.0629 1.866-10.8065 1.777-10.8065 1.777l5.9991-2.999s2.5609-.896 4.2648-.917c1.6988-.016 2.8297 0 2.8297 0s-2.7232-.4198-4.1025-.3831c-.9433.021-1.9981.4041-3.0731.9381-1.8003.173-4.6401.252-8.2456-.298 0 0 1.1308-1.6099-1.2019-2.6322-2.3327-1.0275-3.641-1.2791-4.9494-2.7103-1.3134-1.426-3.9605-2.8152-7.7131-3.1455 0 0 4.8125.7287 6.8257 2.962 0 0 1.0598 1.0223 1.4148 1.2792l.7404 1.2791s.1166.2569.3448.6291c-.9533-.9436-2.8144-2.4797-5.4717-3.2765-3.9859-1.1953-3.0883-1.7038-6.2729-2.5845-3.1847-.8808-3.9859-.7287-3.9859-.7287s5.4463 1.169 6.1309 1.8296c.6846.6553 3.0681 1.6094 3.0681 1.6094s.0507.0891.1521.2412c-1.4199-.3408-10.0864-2.5164-12.5307-5.059.2434.2726 1.4148 1.4731 4.1684 2.6999 1.1918.5242 1.9778 1.0642 2.5559 1.5884-.9027-.3827-3.1695-1.342-4.7973-2.0288-2.0538-.8702-4.8581-3.0301-6.5163-4.8283.2738.3146 1.8053 2.1075 3.3063 3.4338.4361.388.7658.6448 1.0548.8703-.5122-.2989-1.141-.6029-1.8814-.8441-1.1765-.3827-3.1745-1.5675-4.8124-2.6055.7606.5348 1.6024 1.1639 2.4138 1.8244-1.1562-.5242-3.3723-1.4941-4.6096-1.8296-1.3997-.3775-5.7202-2.6107-7.2821-3.4285 1.2576.6867 4.28 2.359 5.6035 3.266-1.6734-.1625-5.9737-2.1232-8.1746-3.1664.5528.2778 1.3337.671 2.4291 1.2319.8722.4456 1.5162.8231 2.0335 1.1743-.4564-.0314-1.354-.1415-2.5558-.4665-.994-.2674-2.8297-1.0171-4.2699-1.6357 1.6532.734 3.7273 1.7038 3.9402 1.9764.2891.3775 1.993 2.1337 3.0985 2.7523-1.7749-.0367-4.5843-1.0275-5.279-1.2792.6339.2622 3.0883 1.2373 4.7009 1.5728 0 0 .7758.2149 1.7698 1.2634.8215.8755 2.4595 1.8086 3.854 2.1179-.7606-.0472-1.3083-.1153-1.3083-.1153-2.4494-1.6671-4.2952-1.4836-4.4677-1.4626.1623 0 2.0893.0471 4.7517 2.076 2.1095 1.6094 4.0416 1.882 4.853 1.9239-1.1917.2254-2.069.388-2.3783.1992-.6441-.3984-5.6492-1.8453-6.557-2.1022.6238.2045 3.2557 1.0747 5.492 2.0603 6.3795 3.5701 9.8126 4.5506 11.5418 4.7606-1.9422.162-3.6359.062-3.6359.062s-2.7283-.314-4.777.803c.1268-.037 2.3175-.672 4.2394-.561 2.0538.12 2.3581-.242 5.1878.634 2.4239.755 5.0204.823 6.8307.215-.218.157-.3448.251-.3448.251s-.8266.367-2.1958.976c-1.3692.608-3.2303.875-3.2303.875 2.2871-.073 2.9717-.535 4.2445-.902 1.2729-.367 1.9575-.241 1.9575-.241 2.6369.068 4.351-.445 5.1218-.739-1.5619 1.122-7.5509 2.448-7.5509 2.448s-3.9859.488.0964.047c4.0822-.435 7.9007-2.464 7.9007-2.464 5.4565.116 6.202-1.583 6.2831-1.861.137 0 .2789 0 .4209-.015 0 0-1.9067-.037-3.1491-1.5363-1.2374-1.4994-1.6633-2.5216-1.6633-2.5216s3.4686.9855 4.143 1.7195c.6694.7287.5984 2.0814.5984 2.0814s2.5407 1.384 8.1949.503c-.3904.205-.786.435-1.1765.671-1.572.949-6.3338 3.104-6.3338 3.104s8.0124-.472 10.6798-1.08c2.6724-.603 4.8631-2.69 4.8631-2.69s.8317-.146 6.1209-1.0429c5.2841-.8965 7.992-2.9043 7.992-2.9043-6.2425 2.6684-12.556 3.3602-13.6007 3.4552l.0102.005Zm-33.2461-6.5165s5.0711 1.1009 6.3033 1.9554c.6796.9646 1.8865 2.4692 3.3317 3.3866-.4919.0524-4.0974.3617-6.1208-1.6147-2.1704-2.1232-3.5142-3.7326-3.5142-3.7326v.0053Zm.862 1.3787c.4209.5347.7151 1.0275 1.1005 1.4469.4462.4823 1.0497 1.2897 2.1298 1.924-.5984-.0105-2.5862-.1311-4.0112-1.0695-1.6988-1.1218-5.3754-5.0012-5.3754-5.0012s4.4677 1.5727 6.1614 2.6998h-.0051Zm-20.3604-7.2083c.8114.4037 2.1146.692 2.7942.8231.7403.7811 3.0071 3.0353 5.6035 4.7129-2.784-.519-5.6289-2.2333-6.4606-3.266-.8519-1.0485-2.9006-2.7051-2.9006-2.7051s-.1674-.1206.9686.4351h-.0051Zm-3.068.367c-1.0092-.9804-1.136-1.1009-1.1512-1.1167.071.0105 2.3581.4666 3.0376.5295.9585.7392 1.5011 1.4417 2.6623 2.5321-.2738-.0786-.8874-.2202-1.8864-.2569-.6694-.3093-1.8662-.9174-2.6623-1.688Zm4.0568 3.7535c-1.5314-1.2215-2.1704-1.709-2.1704-1.709s2.14-.0524 3.0376.2412c.1674.1572.3499.3145.5477.4875 2.1197 1.8401 4.2952 2.2752 5.208 2.3801-.3398 0-.7201.0367-1.1511.1048-.5883.0996-1.2526.1258-1.8814.1206-.6846-.173-2.3885-.6815-3.5904-1.6357v.0105Zm11.978 3.5334c-1.5568-.1415-3.1441.0629-4.4981.2988-2.8499.1206-5.5478-1.9554-5.5478-1.9554s2.0082.0996 3.7983-.173c1.141-.173 1.8763-.0472 2.2617.0682 1.2627.7549 2.5761 1.342 3.8135 1.536-.2992-.0786-2.7739-.7811-5.9383-3.4285-3.3723-2.8257-3.8895-3.6068-3.8895-3.6068s4.6857 1.6094 6.5823 2.8256c.5831.5348 1.1055 1.08 1.5314 1.6095 2.1958 2.7522 3.8997 4.7129 6.5113 4.7391-.8671.2045-1.8408.6972-1.8408.6972-2.5964 1.4155-9.7416-1.4836-9.7416-1.4836 1.1055-.6815 6.9576-1.1218 6.9576-1.1218v-.0053Zm-5.1675 2.2647c2.7993.8913 6.3034 1.4574 7.4799.8598 1.2678-.6448 2.1704-1.0695 2.4798-1.211.0862 0 .1673 0 .2586-.0052 0 0-.0609-.0105-.1775-.0315.0101-.0052.0203-.0105.0304-.0105-.0203 0-.0355 0-.0557.0105-.7404-.1468-3.3216-.8073-5.1219-3.0616-2.1247-2.6579-2.3834-3.0196-3.0426-3.5386 0 0 2.9615 1.1114 4.4575 2.1337.36.3617.7961.8335 1.3844 1.5255 1.9118 2.2333 4.5538 4.1939 7.4038 4.2726-.7657.1625-1.8205.4928-3.0427 1.1638-.7201.393-1.6633.655-2.6471.823-2.9311.178-7.5103-1.9659-9.4069-2.9305Zm14.0622 4.2725c-2.0285.168-5.4261-.587-5.4261-.587s2.2871-.514 3.1593-1.049c.8063-.492 2.9514-1.7348 4.7618-1.5985.9584.3932 2.216.6291 3.8946.5138-1.2069.3722-2.7283 1.2787-3.8186 2.0027-.6339.299-1.5314.629-2.571.718Zm6.2932.194c-1.8864.655-4.9037.388-4.9037.388s.8722-.488 2.855-1.898c1.5923-1.1373 3.1339-1.3156 3.6816-1.3418.5832.2831 1.1917.4458 1.8155.4348-.6288.446-1.2982 1.143-1.9372 1.767-.2941.168-.7607.383-1.5061.645l-.0051.005Zm5.3145-2.4953c.5376.3673 1.1816.6393 1.9321.6973-1.0041 1.845-5.7861 1.552-5.7861 1.552s1.7901-1.678 2.7587-2.118c.5122-.2309.8671-.2047 1.0903-.1313h.005Zm-.4614-.3512s-.0102 0-.0153-.0053c-.3093-.0786-.6491.0105-.999.1992-.8519-.1258-3.0325-.6186-4.5437-2.4692-1.6734-2.0497-1.8763-2.3014-1.9067-2.3381.1369.0367 3.6309 1.0328 6.5924 3.675.2333.3093.5224.6343.8723.9331v.0053Zm-20.2134-4.1101s.0202.0052.0304.0052c0 0-.0102 0-.0304-.0052Zm0 0s.0202.0052.0304.0052c0 0-.0102 0-.0304-.0052Zm0 0s.0202.0052.0304.0052c0 0-.0102 0-.0304-.0052Z" />
        <path fill="url(#i)"
            d="M73.9975 0C33.1295 0 0 34.2487 0 76.4974c0 42.2486 33.1295 76.4976 73.9975 76.4976C114.865 152.995 148 118.746 148 76.4974 148 34.2487 114.871 0 73.9975 0Zm0 152.025c-40.3457 0-73.05428-33.814-73.05428-75.5276C.94322 34.7834 33.6518.97509 73.9975.97509c40.3455 0 73.0595 33.80831 73.0595 75.52231 0 41.7136-32.709 75.5276-73.0595 75.5276Z" />
        <path fill="#221F25"
            d="M37.9148 66.8182h1.2329v6.7415c0 .696-.164 1.3174-.4922 1.8643-.3248.5436-.7838.9728-1.3771 1.2876-.5933.3116-1.2893.4674-2.0881.4674-.7987 0-1.4948-.1558-2.088-.4674-.5933-.3148-1.054-.744-1.3821-1.2876-.3248-.5469-.4872-1.1683-.4872-1.8643v-6.7415h1.2329v6.642c0 .4972.1094.9397.3281 1.3274.2188.3845.5303.6878.9347.9098.4077.2188.8949.3282 1.4616.3282.5668 0 1.054-.1094 1.4617-.3282.4077-.222.7192-.5253.9346-.9098.2188-.3877.3282-.8302.3282-1.3274v-6.642ZM46.0899 77V66.8182h1.233v5.0511h.1193l4.5738-5.0511h1.6108l-4.2755 4.5937L53.6268 77h-1.4914l-3.5398-4.733-1.2727 1.4319V77h-1.233Zm13.6128 0V66.8182h3.4404c.7954 0 1.4484.1359 1.9588.4077.5104.2684.8882.638 1.1335 1.1086.2453.4707.3679 1.0059.3679 1.6058 0 .5999-.1226 1.1319-.3679 1.5959-.2453.464-.6215.8286-1.1286 1.0938-.5071.2618-1.155.3927-1.9439.3927h-2.784v-1.1136h2.7443c.5435 0 .981-.0796 1.3125-.2386.3347-.1591.5767-.3845.7258-.6762.1525-.295.2287-.6463.2287-1.054 0-.4076-.0762-.7639-.2287-1.0689-.1524-.3049-.396-.5402-.7308-.7059-.3348-.1691-.7772-.2536-1.3274-.2536h-2.1676V77h-1.233Zm4.7926-4.5739L67.001 77h-1.4318l-2.4659-4.5739h1.392ZM73.5554 77h-1.2926l3.7386-10.1818h1.2728L81.0128 77h-1.2926l-3.0426-8.571h-.0796L73.5554 77Zm.4773-3.9773h5.2102v1.0938h-5.2102v-1.0938Zm14.279-6.2045V77h-1.233V66.8182h1.233ZM98.4059 77h-3.1421V66.8182h3.2813c.9877 0 1.8329.2038 2.5359.6115.702.4043 1.241.986 1.615 1.745.375.7557.562 1.6605.562 2.7145 0 1.0606-.189 1.9737-.567 2.7394-.377.7623-.928 1.3489-1.65 1.7599-.723.4077-1.601.6115-2.6351.6115Zm-1.9091-1.0938h1.8295c.8419 0 1.5396-.1624 2.0927-.4872.554-.3248.967-.7871 1.238-1.387.272-.5999.408-1.3142.408-2.1428 0-.822-.134-1.5296-.403-2.1229-.268-.5966-.669-1.0539-1.203-1.3721-.5335-.3215-1.198-.4823-1.9935-.4823h-1.9687v7.9943ZM109.745 77h-1.292l3.738-10.1818h1.273L117.203 77h-1.293l-3.042-8.571h-.08L109.745 77Zm.478-3.9773h5.21v1.0938h-5.21v-1.0938Z" />
    </g>
    <defs>
        <linearGradient id="b" x1="108.654" x2="69.9023" y1="98.7147" y2="61.2296" gradientUnits="userSpaceOnUse">
            <stop offset=".01" stop-color="#2F2228" />
            <stop offset=".03" stop-color="#2F2C37" />
            <stop offset=".09" stop-color="#314A67" />
            <stop offset=".16" stop-color="#336490" />
            <stop offset=".22" stop-color="#3579B1" />
            <stop offset=".29" stop-color="#368ACB" />
            <stop offset=".35" stop-color="#3795DD" />
            <stop offset=".42" stop-color="#379CE8" />
            <stop offset=".5" stop-color="#389FEC" />
            <stop offset=".66" stop-color="#78B3A7" />
            <stop offset=".89" stop-color="#D4D142" />
            <stop offset="1" stop-color="#FADE1B" />
        </linearGradient>
        <linearGradient id="c" x1="91.8933" x2="91.6365" y1="96.4606" y2="96.2123" gradientUnits="userSpaceOnUse">
            <stop offset=".01" stop-color="#2F2228" />
            <stop offset=".03" stop-color="#2F2C37" />
            <stop offset=".09" stop-color="#314A67" />
            <stop offset=".16" stop-color="#336490" />
            <stop offset=".22" stop-color="#3579B1" />
            <stop offset=".29" stop-color="#368ACB" />
            <stop offset=".35" stop-color="#3795DD" />
            <stop offset=".42" stop-color="#379CE8" />
            <stop offset=".5" stop-color="#389FEC" />
            <stop offset=".66" stop-color="#78B3A7" />
            <stop offset=".89" stop-color="#D4D142" />
            <stop offset="1" stop-color="#FADE1B" />
        </linearGradient>
        <linearGradient id="d" x1="72.2946" x2="72.2633" y1="98.3844" y2="98.3592" gradientUnits="userSpaceOnUse">
            <stop offset=".01" stop-color="#2F2228" />
            <stop offset=".03" stop-color="#2F2C37" />
            <stop offset=".09" stop-color="#314A67" />
            <stop offset=".16" stop-color="#336490" />
            <stop offset=".22" stop-color="#3579B1" />
            <stop offset=".29" stop-color="#368ACB" />
            <stop offset=".35" stop-color="#3795DD" />
            <stop offset=".42" stop-color="#379CE8" />
            <stop offset=".5" stop-color="#389FEC" />
            <stop offset=".66" stop-color="#78B3A7" />
            <stop offset=".89" stop-color="#D4D142" />
            <stop offset="1" stop-color="#FADE1B" />
        </linearGradient>
        <linearGradient id="e" x1="29.3525" x2="27.0993" y1="88.6752" y2="86.4906" gradientUnits="userSpaceOnUse">
            <stop offset=".01" stop-color="#2F2228" />
            <stop offset=".03" stop-color="#2F2C37" />
            <stop offset=".09" stop-color="#314A67" />
            <stop offset=".16" stop-color="#336490" />
            <stop offset=".22" stop-color="#3579B1" />
            <stop offset=".29" stop-color="#368ACB" />
            <stop offset=".35" stop-color="#3795DD" />
            <stop offset=".42" stop-color="#379CE8" />
            <stop offset=".5" stop-color="#389FEC" />
            <stop offset=".66" stop-color="#78B3A7" />
            <stop offset=".89" stop-color="#D4D142" />
            <stop offset="1" stop-color="#FADE1B" />
        </linearGradient>
        <linearGradient id="f" x1="17.3644" x2="16.3478" y1="85.2836" y2="84.2951" gradientUnits="userSpaceOnUse">
            <stop offset=".01" stop-color="#2F2228" />
            <stop offset=".03" stop-color="#2F2C37" />
            <stop offset=".09" stop-color="#314A67" />
            <stop offset=".16" stop-color="#336490" />
            <stop offset=".22" stop-color="#3579B1" />
            <stop offset=".29" stop-color="#368ACB" />
            <stop offset=".35" stop-color="#3795DD" />
            <stop offset=".42" stop-color="#379CE8" />
            <stop offset=".5" stop-color="#389FEC" />
            <stop offset=".66" stop-color="#78B3A7" />
            <stop offset=".89" stop-color="#D4D142" />
            <stop offset="1" stop-color="#FADE1B" />
        </linearGradient>
        <linearGradient id="g" x1="14.8944" x2="13.3804" y1="85.7032" y2="84.2437" gradientUnits="userSpaceOnUse">
            <stop offset=".01" stop-color="#2F2228" />
            <stop offset=".03" stop-color="#2F2C37" />
            <stop offset=".09" stop-color="#314A67" />
            <stop offset=".16" stop-color="#336490" />
            <stop offset=".22" stop-color="#3579B1" />
            <stop offset=".29" stop-color="#368ACB" />
            <stop offset=".35" stop-color="#3795DD" />
            <stop offset=".42" stop-color="#379CE8" />
            <stop offset=".5" stop-color="#389FEC" />
            <stop offset=".66" stop-color="#78B3A7" />
            <stop offset=".89" stop-color="#D4D142" />
            <stop offset="1" stop-color="#FADE1B" />
        </linearGradient>
        <linearGradient id="h" x1="73.699" x2="29.2573" y1="113.839" y2="70.8498" gradientUnits="userSpaceOnUse">
            <stop offset=".01" stop-color="#2F2228" />
            <stop offset=".03" stop-color="#2F2C37" />
            <stop offset=".09" stop-color="#314A67" />
            <stop offset=".16" stop-color="#336490" />
            <stop offset=".22" stop-color="#3579B1" />
            <stop offset=".29" stop-color="#368ACB" />
            <stop offset=".35" stop-color="#3795DD" />
            <stop offset=".42" stop-color="#379CE8" />
            <stop offset=".5" stop-color="#389FEC" />
            <stop offset=".66" stop-color="#78B3A7" />
            <stop offset=".89" stop-color="#D4D142" />
            <stop offset="1" stop-color="#FADE1B" />
        </linearGradient>
        <linearGradient id="i" x1="36.9937" x2="114.756" y1="10.2384" y2="140.524" gradientUnits="userSpaceOnUse">
            <stop stop-color="#389FEC" />
            <stop offset=".18" stop-color="#379DEA" />
            <stop offset=".25" stop-color="#3799E3" />
            <stop offset=".3" stop-color="#3792D7" />
            <stop offset=".34" stop-color="#3787C6" />
            <stop offset=".37" stop-color="#3679B0" />
            <stop offset=".4" stop-color="#356895" />
            <stop offset=".42" stop-color="#345374" />
            <stop offset=".45" stop-color="#343C50" />
            <stop offset=".47" stop-color="#382725" />
            <stop offset=".5" stop-color="#605023" />
            <stop offset=".52" stop-color="#857521" />
            <stop offset=".55" stop-color="#A5961F" />
            <stop offset=".59" stop-color="#BFB11E" />
            <stop offset=".62" stop-color="#D5C71D" />
            <stop offset=".67" stop-color="#E5D81C" />
            <stop offset=".72" stop-color="#F1E41B" />
            <stop offset=".79" stop-color="#F8EB1B" />
            <stop offset="1" stop-color="#FAED1B" />
        </linearGradient>
        <clipPath id="a">
            <rect width="148" height="153" fill="#fff" rx="74" />
        </clipPath>
    </defs>
</svg>