<?xml version="1.0" encoding="UTF-8"?>
<svg id="Layer_1" data-name="Layer 1" xmlns="http://www.w3.org/2000/svg" xmlns:xlink="http://www.w3.org/1999/xlink" viewBox="0 0 291.85 291.85">
  <defs>
    <style>
      .cls-1 {
        fill: url(#linear-gradient);
      }

      .cls-1, .cls-2, .cls-3, .cls-4, .cls-5, .cls-6, .cls-7, .cls-8 {
        stroke-width: 0px;
      }

      .cls-2 {
        fill: url(#linear-gradient-6);
      }

      .cls-9 {
        letter-spacing: .29em;
      }

      .cls-10 {
        letter-spacing: .28em;
      }

      .cls-11 {
        fill: #000;
        font-family: Convection, Convection;
        font-size: 37.04px;
      }

      .cls-3 {
        fill: url(#linear-gradient-5);
      }

      .cls-4 {
        fill: url(#linear-gradient-2);
      }

      .cls-5 {
        fill: url(#linear-gradient-7);
      }

      .cls-6 {
        fill: url(#linear-gradient-3);
      }

      .cls-7 {
        fill: url(#linear-gradient-8);
      }

      .cls-12 {
        letter-spacing: .29em;
      }

      .cls-13 {
        letter-spacing: .29em;
      }

      .cls-8 {
        fill: url(#linear-gradient-4);
      }

      .cls-14 {
        letter-spacing: .28em;
      }
    </style>
    <linearGradient id="linear-gradient" x1="214.26" y1="188.3" x2="140.3" y2="114.34" gradientUnits="userSpaceOnUse">
      <stop offset=".01" stop-color="#2f2228"/>
      <stop offset=".03" stop-color="#2f2c37"/>
      <stop offset=".09" stop-color="#314a67"/>
      <stop offset=".16" stop-color="#336490"/>
      <stop offset=".22" stop-color="#3579b1"/>
      <stop offset=".29" stop-color="#368acb"/>
      <stop offset=".35" stop-color="#3795dd"/>
      <stop offset=".42" stop-color="#379ce8"/>
      <stop offset=".5" stop-color="#389fec"/>
      <stop offset=".66" stop-color="#78b3a7"/>
      <stop offset=".89" stop-color="#d4d142"/>
      <stop offset="1" stop-color="#fade1b"/>
    </linearGradient>
    <linearGradient id="linear-gradient-2" x1="181.21" y1="184" x2="180.72" y2="183.51" xlink:href="#linear-gradient"/>
    <linearGradient id="linear-gradient-3" x1="142.56" y1="187.67" x2="142.5" y2="187.62" xlink:href="#linear-gradient"/>
    <linearGradient id="linear-gradient-4" x1="57.88" y1="169.15" x2="53.58" y2="164.84" xlink:href="#linear-gradient"/>
    <linearGradient id="linear-gradient-5" x1="34.24" y1="162.68" x2="32.3" y2="160.73" xlink:href="#linear-gradient"/>
    <linearGradient id="linear-gradient-6" x1="29.37" y1="163.48" x2="26.48" y2="160.6" xlink:href="#linear-gradient"/>
    <linearGradient id="linear-gradient-7" x1="145.33" y1="217.15" x2="60.51" y2="132.33" xlink:href="#linear-gradient"/>
    <linearGradient id="linear-gradient-8" x1="72.95" y1="19.53" x2="218.9" y2="272.32" gradientUnits="userSpaceOnUse">
      <stop offset="0" stop-color="#389fec"/>
      <stop offset=".18" stop-color="#379dea"/>
      <stop offset=".25" stop-color="#3799e3"/>
      <stop offset=".3" stop-color="#3792d7"/>
      <stop offset=".34" stop-color="#3787c6"/>
      <stop offset=".37" stop-color="#3679b0"/>
      <stop offset=".4" stop-color="#356895"/>
      <stop offset=".42" stop-color="#345374"/>
      <stop offset=".45" stop-color="#343c50"/>
      <stop offset=".47" stop-color="#332327"/>
      <stop offset=".47" stop-color="#332226"/>
      <stop offset=".47" stop-color="#382725"/>
      <stop offset=".5" stop-color="#605023"/>
      <stop offset=".52" stop-color="#857521"/>
      <stop offset=".55" stop-color="#a5961f"/>
      <stop offset=".59" stop-color="#bfb11e"/>
      <stop offset=".62" stop-color="#d5c71d"/>
      <stop offset=".67" stop-color="#e5d81c"/>
      <stop offset=".72" stop-color="#f1e41b"/>
      <stop offset=".79" stop-color="#f8eb1b"/>
      <stop offset="1" stop-color="#faed1b"/>
    </linearGradient>
  </defs>
  <g>
    <path class="cls-1" d="M221.88,164.18c-2.79,1.17-5.77,2.08-8.55,2.78,17.12-12.18,28.16-25.25,28.16-25.25l-.42-.28c-10.41,11.23-20.5,19.65-29.37,25.91-5.47,1.27-9.83,1.71-9.83,1.71,0,0-20.5-.56-23.64-.42-3.14.14-8.93,1.18-8.93,1.18,0,0,5.02,1.88,15.42,3.49,10.39,1.6,17.85-3.42,17.85-3.42-11.29,4.33-15.97,3.14-17.37,2.93-1.39-.21-12.42-2.72-12.42-2.72,9.91-1.81,23.29.43,30.33-.69,1.12-.18,2.18-.35,3.18-.53-8.52,4.93-10.89,5.16-18.31,6.66-4.83.98-14.23,1.22-20.44,1.27-.9-.26-2.77-1.03-5.72-3.36-4.33-3.42-11.44-4.12-11.44-4.12,0,0-2.65-.07-6.28-2.3-3.62-2.23-12.7-1.95-12.7-1.95,0,0,7.75.62,9.84,1.6,2.09.98,5.37,3,6.34,3.14.65.09,2.54,1.71,4.42,3.09-.39-.12-.82-.23-1.28-.34-4.65-3.55-8.84-1.95-11.57-2.3-2.76-.35-9-.46-9-.46,7.78.28,11.02,2.23,14.51,4.29.72.43,1.43.76,2.1,1.04-.76-.1-1.53-.12-2.3-.07-2.49-2.47-9.06-3.15-15.36-2.74-5.97.39-16.66-3.05-17.88-3.44,3.14,1.34,10.61,3.66,14.81,4.28,3.91.57,9.03,3.78,9.85,4.31-1.18.56-1.9.99-1.9.99l-3.35.62c-1.75.36-3.3.82-4.65,1.32-9.64.58-31.67-6.42-35.73-10.94,0,0,16.52.55,25.49,2.19-1.44-.32-11.21-2.37-23.19-2.82,0,0-3.63-.42-5.65-1.12,0,0,4.89,4.54,10.19,6.63,4.48,1.77,14.94,6.33,27.51,6.6-3.38,1.43-5.23,2.96-5.45,3.15,1.99-1.38,4.31-2.41,6.59-3.14,1.94,0,3.93-.1,5.94-.33,0,0,3.73-.13,9.18,2.07-1.11.81-1.97,1.44-2.41,1.63-1.68.73-11.86,1.5-11.86,1.5,0,0,9.49-.35,14.86-.94,4.05-.44,6.77-1.65,7.86-2.21-.2.22-.38.4-.54.54-.98.86-4.69,3.38-5.97,4.23.91-.59,3.22-1.98,6.67-3.49,14.05,4.32,29.36.31,29.36.31-17.5,2.13-26.93-.4-28.23-.79,1.01-.41,2.09-.83,3.26-1.23.62-.22,1.19-.43,1.71-.64,14.11,4.39,22,2.25,22,2.25-10.99.54-19.29-1.92-21.25-2.57,4.72-2.09,4.51-3.78,4.51-3.78,0,0,2.3-.21,19.88-.56,15.37-.3,24.77-6.7,26.88-8.29,1.1-.2,2.12-.4,3.09-.6-13.38,9.29-23.85,13.63-28.23,15.2,4.14-1.4,8.15-3.09,12-4.97-4.68,2.88-11.12,7.47-13.6,10.59-3.43,4.33-12.81,12.57-13.1,12.82,11.3-4.6,21.97-13.94,24.4-17.5,1.94-2.82,6.15-7.12,7.81-8.79,4.35-2.41,8.46-5.02,12.28-7.69,9.2-2.06,12.61-4.23,20.65-7.59,9.55-3.99,32.01-22.9,34.74-25.22-27.55,22.59-36.8,25.51-45.76,29.27ZM145.75,173.88c-1.36-1.09-5.34-2.86-5.34-2.86,0,0,1.15-.17,4.12-.17s5.4,1.49,5.63,1.62c-3.04-.58-6.88-.73-6.88-.73,0,0,3.16.79,6.65,3.76.1.09.21.17.32.26-.95-.27-3.41-1.02-4.49-1.88ZM128.83,173.1c9.79-1.09,13.65,1.42,14.47,2.08-2.59.33-5.06,1.25-6.81,2.03l-7.67-4.11ZM148.05,175.62c1.31.41,2.39.58,3,.65.31.17.64.31.98.45-2.02.17-4.54,1.49-6.87,2.99-3.05.42-10.26-1.02-10.26-1.02,6.5-3.45,11.57-3.25,13.15-3.07ZM129.18,180.07c2.68-.56,4.9-.67,5.8-.48,1.64.36,7.44.66,9.23.75-1.2.81-2.33,1.64-3.28,2.33-.87-.6-5.01-3.14-11.74-2.6ZM141.15,183.81c1.78-1.91,3.59-3.3,5.25-4.3.35-.08.6-.14.08-.05,3.11-1.86,5.63-2.39,6.26-2.49,1.06.33,2.17.51,3.23.6-.17.04-.35.08-.56.14-1.57.43-3.12,1.82-4.38,3.14-4.52,3.28-9.89,2.97-9.89,2.97ZM160.22,177.57s-1.6,1.81-3.84,2.93c-2.16,1.08-6.81,2.88-7.1,2.99.18-.19,2.35-2.43,3.82-3.97,1.28-1.33,3.29-1.77,3.94-1.88,1.45.05,2.67-.04,3.23-.1l-.05.03ZM160.88,177.16c-3.43.35-8.89-.61-10.08-1.71-1.21-1.12-4.65-3.07-4.65-3.07,2.59.08,5.39.87,7.19,1.48.49.31.95.59,1.36.78,2.1.96,5.66,2.26,6.25,2.47l-.08.05ZM161.56,176.81c-1.55-.49-5.51-1.91-9.21-4.47-3.49-2.41-4.18-2.86-4.31-2.93.36.04,6.7.75,9.89,2.57,2.73,1.57,6.61,4.19,9,4.83-2.89.01-4.96-.01-5.37-.01ZM183.73,191.38c-5.02,4.19-13.26,8.58-13.26,8.58,0,0,7.26-6.77,12.28-11.86,4-4.05,11.89-9.44,14.94-11.46.48-.25.96-.51,1.44-.77-4.18,3.55-10.99,11.83-15.4,15.51Z"/>
    <path class="cls-4" d="M181.69,183.52c-.48.16-.96.32-1.45.47,0,0,.5-.14,1.45-.47Z"/>
    <path class="cls-6" d="M142.7,187.53c-.21.14-.33.22-.33.22,0,0,.13-.09.33-.22Z"/>
    <path class="cls-8" d="M58.36,168.67c-2.94-2-5.25-3.36-5.25-3.36,0,0,2.33,1.56,5.25,3.36Z"/>
    <path class="cls-3" d="M34.6,162.32c-2.39-1.15-2.65-1.24-2.65-1.24,0,0,1.04.5,2.65,1.24Z"/>
    <path class="cls-2" d="M29.95,162.89c-2.22-.96-4.05-1.72-4.05-1.72,0,0,1.77.77,4.05,1.72Z"/>
    <path class="cls-5" d="M71.92,182.18s.04.01.06.01c0,0-.02,0-.06-.01ZM71.92,182.18s.04.01.06.01c0,0-.02,0-.06-.01ZM71.92,182.18s.04.01.06.01c0,0-.02,0-.06-.01ZM150.7,191.56c-2.06.17-.52.07-6.55,3.62-6.04,3.56-21.31,3.39-21.31,3.39l11.83-5.72s5.05-1.71,8.41-1.75c3.35-.03,5.58,0,5.58,0,0,0-5.37-.8-8.09-.73-1.86.04-3.94.77-6.06,1.79-3.55.33-9.15.48-16.26-.57,0,0,2.23-3.07-2.37-5.02-4.6-1.96-7.18-2.44-9.76-5.17-2.59-2.72-7.81-5.37-15.21-6,0,0,9.49,1.39,13.46,5.65,0,0,2.09,1.95,2.79,2.44l1.46,2.44s.23.49.68,1.2c-1.88-1.8-5.55-4.73-10.79-6.25-7.86-2.28-6.09-3.25-12.37-4.93-6.28-1.68-7.86-1.39-7.86-1.39,0,0,10.74,2.23,12.09,3.49,1.35,1.25,6.05,3.07,6.05,3.07,0,0,.1.17.3.46-2.8-.65-19.89-4.8-24.71-9.65.48.52,2.79,2.81,8.22,5.15,2.35,1,3.9,2.03,5.04,3.03-1.78-.73-6.25-2.56-9.46-3.87-4.05-1.66-9.58-5.78-12.85-9.21.54.6,3.56,4.02,6.52,6.55.86.74,1.51,1.23,2.08,1.66-1.01-.57-2.25-1.15-3.71-1.61-2.32-.73-6.26-2.99-9.49-4.97,1.5,1.02,3.16,2.22,4.76,3.48-2.28-1-6.65-2.85-9.09-3.49-2.76-.72-11.28-4.98-14.36-6.54,2.48,1.31,8.44,4.5,11.05,6.23-3.3-.31-11.78-4.05-16.12-6.04,1.09.53,2.63,1.28,4.79,2.35,1.72.85,2.99,1.57,4.01,2.24-.9-.06-2.67-.27-5.04-.89-1.96-.51-5.58-1.94-8.42-3.12,3.26,1.4,7.35,3.25,7.77,3.77.57.72,3.93,4.07,6.11,5.25-3.5-.07-9.04-1.96-10.41-2.44,1.25.5,6.09,2.36,9.27,3,0,0,1.53.41,3.49,2.41,1.62,1.67,4.85,3.45,7.6,4.04-1.5-.09-2.58-.22-2.58-.22-4.83-3.18-8.47-2.83-8.81-2.79.32,0,4.12.09,9.37,3.96,4.16,3.07,7.97,3.59,9.57,3.67-2.35.43-4.08.74-4.69.38-1.27-.76-11.14-3.52-12.93-4.01,1.23.39,6.42,2.05,10.83,3.93,12.58,6.81,19.35,8.68,22.76,9.08-3.83.31-7.17.12-7.17.12,0,0-5.38-.6-9.42,1.53.25-.07,4.57-1.28,8.36-1.07,4.05.23,4.65-.46,10.23,1.21,4.78,1.44,9.9,1.57,13.47.41-.43.3-.68.48-.68.48,0,0-1.63.7-4.33,1.86-2.7,1.16-6.37,1.67-6.37,1.67,4.51-.14,5.86-1.02,8.37-1.72s3.86-.46,3.86-.46c5.2.13,8.58-.85,10.1-1.41-3.08,2.14-14.89,4.67-14.89,4.67,0,0-7.86.93.19.09,8.05-.83,15.58-4.7,15.58-4.7,10.76.22,12.23-3.02,12.39-3.55.27,0,.55,0,.83-.03,0,0-3.76-.07-6.21-2.93-2.44-2.86-3.28-4.81-3.28-4.81,0,0,6.84,1.88,8.17,3.28,1.32,1.39,1.18,3.97,1.18,3.97,0,0,5.01,2.64,16.16.96-.77.39-1.55.83-2.32,1.28-3.1,1.81-12.49,5.92-12.49,5.92,0,0,15.8-.9,21.06-2.06,5.27-1.15,9.59-5.13,9.59-5.13,0,0,1.64-.28,12.07-1.99,10.42-1.71,15.76-5.54,15.76-5.54-12.31,5.09-24.76,6.41-26.82,6.59ZM85.14,179.13s10,2.1,12.43,3.73c1.34,1.84,3.72,4.71,6.57,6.46-.97.1-8.08.69-12.07-3.08-4.28-4.05-6.93-7.12-6.93-7.12ZM86.84,181.76c.83,1.02,1.41,1.96,2.17,2.76.88.92,2.07,2.46,4.2,3.67-1.18-.02-5.1-.25-7.91-2.04-3.35-2.14-10.6-9.54-10.6-9.54,0,0,8.81,3,12.15,5.15ZM46.69,168.01c1.6.77,4.17,1.32,5.51,1.57,1.46,1.49,5.93,5.79,11.05,8.99-5.49-.99-11.1-4.26-12.74-6.23-1.68-2-5.72-5.16-5.72-5.16,0,0-.33-.23,1.91.83ZM40.64,168.71c-1.99-1.87-2.24-2.1-2.27-2.13.14.02,4.65.89,5.99,1.01,1.89,1.41,2.96,2.75,5.25,4.83-.54-.15-1.75-.42-3.72-.49-1.32-.59-3.68-1.75-5.25-3.22ZM48.64,175.87c-3.02-2.33-4.28-3.26-4.28-3.26,0,0,4.22-.1,5.99.46.33.3.69.6,1.08.93,4.18,3.51,8.47,4.34,10.27,4.54-.67,0-1.42.07-2.27.2-1.16.19-2.47.24-3.71.23-1.35-.33-4.71-1.3-7.08-3.12ZM72.26,182.61c-3.07-.27-6.2.12-8.87.57-5.62.23-10.94-3.73-10.94-3.73,0,0,3.96.19,7.49-.33,2.25-.33,3.7-.09,4.46.13,2.49,1.44,5.08,2.56,7.52,2.93-.59-.15-5.47-1.49-11.71-6.54-6.65-5.39-7.67-6.88-7.67-6.88,0,0,9.24,3.07,12.98,5.39,1.15,1.02,2.18,2.06,3.02,3.07,4.33,5.25,7.69,8.99,12.84,9.04-1.71.39-3.63,1.33-3.63,1.33-5.12,2.7-19.21-2.83-19.21-2.83,2.18-1.3,13.72-2.14,13.72-2.14ZM62.07,186.93c5.52,1.7,12.43,2.78,14.75,1.64,2.5-1.23,4.28-2.04,4.89-2.31.17,0,.33,0,.51-.01,0,0-.12-.02-.35-.06.02-.01.04-.02.06-.02-.04,0-.07,0-.11.02-1.46-.28-6.55-1.54-10.1-5.84-4.19-5.07-4.7-5.76-6-6.75,0,0,5.84,2.12,8.79,4.07.71.69,1.57,1.59,2.73,2.91,3.77,4.26,8.98,8,14.6,8.15-1.51.31-3.59.94-6,2.22-1.42.75-3.28,1.25-5.22,1.57-5.78.34-14.81-3.75-18.55-5.59ZM89.8,195.08c-4,.32-10.7-1.12-10.7-1.12,0,0,4.51-.98,6.23-2,1.59-.94,5.82-3.31,9.39-3.05,1.89.75,4.37,1.2,7.68.98-2.38.71-5.38,2.44-7.53,3.82-1.25.57-3.02,1.2-5.07,1.37ZM102.21,195.45c-3.72,1.25-9.67.74-9.67.74,0,0,1.72-.93,5.63-3.62,3.14-2.17,6.18-2.51,7.26-2.56,1.15.54,2.35.85,3.58.83-1.24.85-2.56,2.18-3.82,3.37-.58.32-1.5.73-2.97,1.23ZM112.69,190.69c1.06.7,2.33,1.22,3.81,1.33-1.98,3.52-11.41,2.96-11.41,2.96,0,0,3.53-3.2,5.44-4.04,1.01-.44,1.71-.39,2.15-.25ZM111.78,190.02s-.02,0-.03-.01c-.61-.15-1.28.02-1.97.38-1.68-.24-5.98-1.18-8.96-4.71-3.3-3.91-3.7-4.39-3.76-4.46.27.07,7.16,1.97,13,7.01.46.59,1.03,1.21,1.72,1.78ZM71.92,182.18s.04.01.06.01c0,0-.02,0-.06-.01ZM71.92,182.18s.04.01.06.01c0,0-.02,0-.06-.01ZM71.92,182.18s.04.01.06.01c0,0-.02,0-.06-.01Z"/>
  </g>
  <path class="cls-7" d="M145.92,0C65.33,0,0,65.33,0,145.92s65.33,145.92,145.92,145.92,145.93-65.33,145.93-145.92S226.52,0,145.92,0ZM145.92,289.99C66.36,289.99,1.86,225.49,1.86,145.92S66.36,1.86,145.92,1.86s144.07,64.49,144.07,144.06-64.5,144.07-144.07,144.07Z"/>
  <text class="cls-11" transform="translate(43.53 157.92)"><tspan class="cls-12" x="0" y="0">UK</tspan><tspan class="cls-14" x="64.6" y="0">R</tspan><tspan class="cls-9" x="95.72" y="0">AI</tspan><tspan class="cls-10" x="146.53" y="0">D</tspan><tspan class="cls-13" x="180.02" y="0">A</tspan></text>
</svg>