<svg aria-hidden="true" style="position:absolute;width:0;height:0" xmlns="http://www.w3.org/2000/svg" overflow="hidden"><defs><symbol id="email" viewBox="0 0 32 32"><path d="M29.334 8c0-1.467-1.2-2.667-2.667-2.667H5.334A2.675 2.675 0 002.667 8v16c0 1.467 1.2 2.667 2.667 2.667h21.333c1.467 0 2.667-1.2 2.667-2.667V8zm-2.667 0L16 14.667 5.333 8h21.333zm0 16H5.334V10.667l10.667 6.667 10.667-6.667V24z"/></symbol><symbol id="instagram" viewBox="0 0 32 32"><path d="M10.4 2.667h11.2a7.739 7.739 0 017.733 7.733v11.2a7.733 7.733 0 01-7.733 7.733H10.4A7.739 7.739 0 012.667 21.6V10.4A7.733 7.733 0 0110.4 2.667zm-.266 2.666a4.8 4.8 0 00-4.8 4.8v11.733c0 2.653 2.147 4.8 4.8 4.8h11.733a4.8 4.8 0 004.8-4.8V10.133c0-2.653-2.147-4.8-4.8-4.8H10.134zm12.866 2a1.667 1.667 0 110 3.334 1.667 1.667 0 010-3.334zm-7 2a6.67 6.67 0 014.714 11.381A6.668 6.668 0 1116 9.333zM16 12a4.003 4.003 0 00-4 4 4.003 4.003 0 004 4 4.003 4.003 0 004-4 4.003 4.003 0 00-4-4z"/></symbol><symbol id="logo" viewBox="0 0 32 32"><path fill="var(--color1, #fff)" d="M16 0c8.837 0 16 7.163 16 16s-7.163 16-16 16S0 24.837 0 16 7.163 0 16 0z"/><path fill="var(--color2, #000)" d="M24.328 18.002a6.768 6.768 0 01-.937.305 18.405 18.405 0 003.088-2.769l-.046-.031a20.612 20.612 0 01-3.22 2.841c-.6.139-1.078.188-1.078.188s-2.248-.061-2.592-.046c-.344.015-.979.129-.979.129s.55.206 1.691.383a2.955 2.955 0 001.957-.375c-1.238.475-1.751.344-1.905.321-.152-.023-1.362-.298-1.362-.298 1.087-.198 2.554.047 3.326-.076.123-.02.239-.038.349-.058-.934.541-1.194.566-2.008.73-.53.107-1.56.134-2.241.139-.099-.029-.304-.113-.627-.368-.475-.375-1.254-.452-1.254-.452s-.291-.008-.689-.252c-.397-.244-1.393-.214-1.393-.214s.85.068 1.079.175c.229.107.589.329.695.344.071.01.279.188.485.339a2.534 2.534 0 00-.14-.037c-.51-.389-.969-.214-1.269-.252-.303-.038-.987-.05-.987-.05.853.031 1.208.244 1.591.47.079.047.157.083.23.114a1.325 1.325 0 00-.252-.008c-.273-.271-.993-.345-1.684-.3-.655.043-1.827-.334-1.96-.377.344.147 1.163.401 1.624.469.429.063.99.414 1.08.473-.129.061-.208.109-.208.109l-.367.068c-.192.039-.362.09-.51.145-1.057.064-3.472-.704-3.918-1.2 0 0 1.811.06 2.795.24a15.48 15.48 0 00-2.543-.309s-.398-.046-.62-.123c0 0 .536.498 1.117.727.491.194 1.638.694 3.016.724-.371.157-.573.325-.598.345a2.76 2.76 0 01.723-.344c.213 0 .431-.011.651-.036 0 0 .409-.014 1.007.227-.122.089-.216.158-.264.179-.184.08-1.3.164-1.3.164s1.041-.038 1.629-.103c.444-.048.742-.181.862-.242a.815.815 0 01-.059.059 10.49 10.49 0 01-.655.464c.1-.065.353-.217.731-.383 1.541.474 3.219.034 3.219.034-1.919.234-2.953-.044-3.095-.087.111-.045.229-.091.357-.135a5.25 5.25 0 00.188-.07c1.547.481 2.412.247 2.412.247a6.753 6.753 0 01-2.33-.282c.518-.229.494-.414.494-.414s.252-.023 2.18-.061c1.685-.033 2.716-.735 2.947-.909.121-.022.232-.044.339-.066-1.467 1.019-2.615 1.494-3.095 1.667a11.06 11.06 0 001.316-.545c-.513.316-1.219.819-1.491 1.161-.376.475-1.405 1.378-1.436 1.406 1.239-.504 2.409-1.528 2.675-1.919.213-.309.674-.781.856-.964.477-.264.928-.55 1.346-.843 1.009-.226 1.383-.464 2.264-.832 1.047-.438 3.51-2.511 3.809-2.765-3.021 2.477-4.035 2.797-5.017 3.209l.001.001zm-8.347 1.063c-.149-.12-.585-.314-.585-.314s.126-.019.452-.019.592.163.617.178c-.333-.064-.754-.08-.754-.08s.346.087.729.412l.035.029c-.104-.03-.374-.112-.492-.206h-.001zm-1.855-.085c1.073-.12 1.497.156 1.587.228a2.73 2.73 0 00-.747.223l-.84-.451zm2.107.276c.144.045.262.064.329.071.034.019.07.034.107.049-.221.019-.498.163-.753.328-.334.046-1.125-.112-1.125-.112.713-.378 1.269-.356 1.442-.337zm-2.069.488c.294-.061.537-.073.636-.053.18.04.816.072 1.012.082-.132.089-.255.18-.36.256-.095-.066-.549-.344-1.287-.285h-.001zm1.313.41c.195-.209.394-.362.576-.471.038-.009.066-.015.009-.006.341-.204.617-.262.686-.273.116.036.238.056.354.066l-.061.015c-.172.047-.342.2-.48.344-.496.36-1.084.326-1.084.326l.001-.001zm2.09-.684s-.175.198-.421.321c-.237.118-.747.316-.779.328.02-.021.258-.266.419-.435.14-.146.361-.194.432-.206.159.005.293-.004.354-.011l-.006.003zm.073-.045c-.376.038-.975-.067-1.105-.188-.133-.123-.51-.337-.51-.337.284.009.591.095.788.162.054.034.104.065.149.086.23.105.621.248.685.271l-.009.006h.001zm.074-.039a3.991 3.991 0 01-1.01-.49 11.85 11.85 0 00-.473-.321c.039.004.735.082 1.084.282.299.172.725.459.987.53-.317.001-.544-.001-.589-.001v.001zm2.431 1.598c-.55.459-1.454.941-1.454.941s.796-.742 1.346-1.3c.439-.444 1.304-1.035 1.638-1.257.053-.027.105-.056.158-.084-.458.389-1.205 1.297-1.689 1.701z"/><path fill="var(--color2, #000)" d="M19.921 20.122a7.396 7.396 0 01-.159.052s.055-.015.159-.052zm-4.274.44l-.036.024.036-.024zm-9.248-2.068c-.322-.219-.576-.368-.576-.368s.255.171.576.368zm-2.605-.696zm-.51.062c-.243-.105-.444-.189-.444-.189s.194.084.444.189z"/><path fill="var(--color2, #000)" d="M7.886 19.975l.007.001-.007-.001zm0 0l.007.001-.007-.001zm0 0l.007.001-.007-.001zm8.638 1.029c-.226.019-.057.008-.718.397-.662.39-2.337.372-2.337.372l1.297-.627s.554-.188.922-.192c.367-.003.612 0 .612 0s-.589-.088-.887-.08c-.204.004-.432.084-.664.196a7.497 7.497 0 01-1.783-.063s.245-.337-.26-.55c-.504-.215-.787-.268-1.07-.567-.284-.298-.856-.589-1.668-.658 0 0 1.041.152 1.476.619 0 0 .229.214.306.268l.16.268s.025.054.075.132a2.91 2.91 0 00-1.183-.685c-.862-.25-.668-.356-1.356-.541s-.862-.152-.862-.152 1.178.244 1.326.383c.148.137.663.337.663.337s.011.019.033.05c-.307-.071-2.181-.526-2.709-1.058.053.057.306.308.901.565.258.11.428.223.553.332l-1.037-.424c-.444-.182-1.05-.634-1.409-1.01.059.066.39.441.715.718.094.081.166.135.228.182a2.145 2.145 0 00-.407-.177c-.254-.08-.686-.328-1.04-.545.164.112.346.243.522.382-.25-.11-.729-.312-.997-.383-.303-.079-1.237-.546-1.575-.717.272.144.925.493 1.212.683-.362-.034-1.292-.444-1.768-.662.12.058.288.14.525.258.189.093.328.172.44.246a3.127 3.127 0 01-.553-.098c-.215-.056-.612-.213-.923-.342.357.154.806.356.852.413.063.079.431.446.67.576-.384-.008-.991-.215-1.141-.268.137.055.668.259 1.016.329 0 0 .168.045.383.264.178.183.532.378.833.443-.164-.01-.283-.024-.283-.024-.53-.349-.929-.31-.966-.306.035 0 .452.01 1.027.434.456.337.874.394 1.049.402-.258.047-.447.081-.514.042-.139-.083-1.221-.386-1.418-.44.135.043.704.225 1.187.431 1.379.747 2.122.952 2.496.996-.42.034-.786.013-.786.013s-.59-.066-1.033.168c.027-.008.501-.14.917-.117.444.025.51-.05 1.122.133.524.158 1.085.172 1.477.045l-.075.053-.475.204a3.246 3.246 0 01-.698.183c.495-.015.643-.112.918-.189s.423-.05.423-.05c.57.014.941-.093 1.107-.155-.338.235-1.633.512-1.633.512s-.862.102.021.01c.883-.091 1.708-.515 1.708-.515 1.18.024 1.341-.331 1.358-.389.03 0 .06 0 .091-.003 0 0-.412-.008-.681-.321-.268-.314-.36-.527-.36-.527s.75.206.896.36c.145.152.129.435.129.435s.549.289 1.772.105c-.084.043-.17.091-.254.14-.34.198-1.369.649-1.369.649s1.732-.099 2.309-.226c.578-.126 1.051-.563 1.051-.563s.18-.031 1.323-.218c1.142-.188 1.728-.607 1.728-.607a10.99 10.99 0 01-2.941.723l.002.001zm-7.189-1.363s1.096.23 1.363.409c.147.202.408.516.72.708-.106.011-.886.076-1.323-.338-.469-.444-.76-.781-.76-.781v.001zm.187.288c.091.112.155.215.238.303.097.101.227.27.461.402-.129-.002-.559-.027-.867-.224-.367-.235-1.162-1.046-1.162-1.046s.966.329 1.332.565h-.001zM5.12 18.422c.175.084.457.145.604.172.16.163.65.635 1.212.986-.602-.109-1.217-.467-1.397-.683-.184-.219-.627-.566-.627-.566s-.036-.025.209.091H5.12zm-.664.076l-.249-.234c.015.002.51.098.657.111.207.155.325.302.576.53a1.828 1.828 0 00-.408-.054c-.145-.065-.403-.192-.576-.353zm.877.785c-.331-.256-.469-.357-.469-.357s.463-.011.657.05c.036.033.076.066.118.102.458.385.929.476 1.126.498-.073 0-.156.008-.249.022a2.466 2.466 0 01-.407.025c-.148-.036-.516-.143-.776-.342v.002zm2.59.739c-.337-.03-.68.013-.973.063-.616.025-1.2-.409-1.2-.409s.434.021.821-.036c.247-.036.406-.01.489.014.273.158.557.281.824.321-.065-.016-.6-.163-1.284-.717-.729-.591-.841-.754-.841-.754s1.013.337 1.423.591c.126.112.239.226.331.337.475.576.843.986 1.408.991a2.182 2.182 0 00-.398.146c-.561.296-2.106-.31-2.106-.31.239-.143 1.504-.235 1.504-.235v-.001zm-1.117.474c.605.186 1.363.305 1.617.18.274-.135.469-.224.536-.253l.056-.001-.038-.007.007-.002c-.004 0-.008 0-.012.002-.16-.031-.718-.169-1.107-.64-.459-.556-.515-.632-.658-.74 0 0 .64.232.964.446.078.076.172.174.299.319.413.467.985.877 1.601.894a2.47 2.47 0 00-.658.243c-.156.082-.36.137-.572.172-.634.037-1.624-.411-2.034-.613zm3.04.894c-.439.035-1.173-.123-1.173-.123s.495-.107.683-.219c.174-.103.638-.363 1.03-.334.207.082.479.132.842.107-.261.078-.59.268-.826.419a1.663 1.663 0 01-.556.15zm1.361.04c-.408.137-1.06.081-1.06.081s.189-.102.617-.397c.344-.238.678-.275.796-.281a.894.894 0 00.393.091c-.136.093-.281.239-.419.369-.064.035-.164.08-.326.135l-.001.001zm1.149-.522a.863.863 0 00.418.146c-.217.386-1.251.325-1.251.325s.387-.351.596-.443c.111-.048.188-.043.236-.027h.001zm-.1-.073l-.003-.001c-.067-.016-.14.002-.216.042-.184-.026-.656-.129-.982-.516l-.412-.489c.03.008.785.216 1.425.769.05.065.113.133.189.195v.001zm-4.37-.86l.007.001-.007-.001zm0 0l.007.001-.007-.001zm0 0l.007.001-.007-.001z"/><path fill="var(--color2, #000)" d="M15.999 0C7.163 0 0 7.163 0 15.999s7.163 15.999 15.999 15.999S32 24.835 32 15.999 24.837 0 15.999 0zm0 31.796C7.276 31.796.203 24.724.203 16S7.275.204 15.999.204C24.722.204 31.795 7.275 31.795 16s-7.072 15.796-15.796 15.796z"/><path fill="var(--color3, #221f25)" d="M8.69 13.126h.319v1.744a.894.894 0 01-.483.815c-.153.081-.334.121-.54.121s-.387-.04-.54-.121c-.154-.081-.273-.193-.358-.333s-.126-.302-.126-.482v-1.744h.319v1.719c0 .129.028.243.085.344s.137.178.242.235c.106.057.232.085.378.085s.273-.028.378-.085c.105-.057.186-.136.242-.235s.085-.215.085-.344v-1.719zm.956 2.635v-2.635h.319v1.307h.031l1.184-1.307h.417l-1.106 1.189 1.106 1.446h-.386l-.916-1.225-.329.37v.854h-.319zm2.363 0v-2.635h.89c.206 0 .375.035.507.105s.23.165.293.287.095.26.095.416c0 .155-.032.293-.095.413s-.161.214-.292.283a1.09 1.09 0 01-.503.102h-.72v-.288h.71c.141 0 .254-.021.34-.062s.149-.099.188-.175c.039-.076.059-.167.059-.273s-.02-.198-.059-.277c-.039-.079-.102-.14-.189-.183s-.201-.066-.344-.066h-.561v2.352h-.319zm1.24-1.184l.648 1.184h-.37l-.638-1.184h.36zm1.185 1.184H14.1l.967-2.635h.329l.967 2.635h-.334l-.787-2.218h-.021l-.787 2.218zm.124-1.03h1.348v.283h-1.348v-.283zm2.535-1.605v2.635h-.319v-2.635h.319zm1.453 2.635h-.813v-2.635h.849c.256 0 .474.053.656.158s.321.255.418.452c.097.196.145.43.145.702 0 .274-.049.511-.147.709s-.24.349-.427.455a1.373 1.373 0 01-.682.158zm-.494-.283h.473c.218 0 .398-.042.542-.126s.25-.204.32-.359.105-.34.105-.554c0-.213-.035-.396-.104-.549s-.173-.273-.311-.355a.986.986 0 00-.516-.125h-.509v2.069zm2.269.283h-.334l.967-2.635h.329l.967 2.635h-.334l-.787-2.218h-.021l-.787 2.218zm.123-1.03h1.348v.283h-1.348v-.283z"/></symbol><symbol id="close" viewBox="0 0 32 32"><path fill="var(--color1, #1c59a6)" d="M7.624 7.627a1.002 1.002 0 011.414 0l6.96 6.96 6.96-6.96a1 1 0 111.413 1.413L17.411 16l6.96 6.96a1 1 0 11-1.413 1.413l-6.96-6.96-6.96 6.96a1.003 1.003 0 01-1.39-.024.999.999 0 01-.024-1.39l6.96-6.96-6.96-6.96a1.002 1.002 0 010-1.414z"/></symbol></defs></svg>