<svg aria-hidden="true" style="position: absolute; width: 0; height: 0; overflow: hidden;" version="1.1"
    xmlns="http://www.w3.org/2000/svg" xmlns:xlink="http://www.w3.org/1999/xlink">
    <defs>
        <symbol id="email" viewBox="0 0 32 32">
            <path
                d="M29.334 8c0-1.467-1.2-2.667-2.667-2.667h-21.333c-1.467 0-2.667 1.2-2.667 2.667v16c0 1.467 1.2 2.667 2.667 2.667h21.333c1.467 0 2.667-1.2 2.667-2.667v-16zM26.667 8l-10.667 6.667-10.667-6.667h21.333zM26.667 24h-21.333v-13.333l10.667 6.667 10.667-6.667v13.333z">
            </path>
        </symbol>
        <symbol id="instagram" viewBox="0 0 32 32">
            <path
                d="M10.4 2.667h11.2c4.267 0 7.733 3.467 7.733 7.733v11.2c0 2.051-0.815 4.018-2.265 5.468s-3.417 2.265-5.468 2.265h-11.2c-4.267 0-7.733-3.467-7.733-7.733v-11.2c0-2.051 0.815-4.018 2.265-5.468s3.417-2.265 5.468-2.265zM10.134 5.333c-1.273 0-2.494 0.506-3.394 1.406s-1.406 2.121-1.406 3.394v11.733c0 2.653 2.147 4.8 4.8 4.8h11.733c1.273 0 2.494-0.506 3.394-1.406s1.406-2.121 1.406-3.394v-11.733c0-2.653-2.147-4.8-4.8-4.8h-11.733zM23 7.333c0.442 0 0.866 0.176 1.178 0.488s0.488 0.736 0.488 1.178-0.176 0.866-0.488 1.179c-0.313 0.313-0.736 0.488-1.178 0.488s-0.866-0.175-1.178-0.488c-0.313-0.313-0.488-0.736-0.488-1.179s0.176-0.866 0.488-1.178c0.313-0.313 0.736-0.488 1.178-0.488zM16 9.333c1.768 0 3.464 0.702 4.714 1.953s1.953 2.946 1.953 4.714-0.702 3.464-1.953 4.714c-1.25 1.25-2.946 1.953-4.714 1.953s-3.464-0.702-4.714-1.953c-1.25-1.25-1.953-2.946-1.953-4.714s0.702-3.464 1.953-4.714c1.25-1.25 2.946-1.953 4.714-1.953zM16 12c-1.061 0-2.078 0.421-2.828 1.172s-1.172 1.768-1.172 2.828c0 1.061 0.421 2.078 1.172 2.828s1.768 1.172 2.828 1.172c1.061 0 2.078-0.421 2.828-1.172s1.172-1.768 1.172-2.828c0-1.061-0.421-2.078-1.172-2.828s-1.768-1.172-2.828-1.172z">
            </path>
        </symbol>
        <symbol id="logo" viewBox="0 0 32 32">
            <path fill="#fff" style="fill: var(--color1, #fff)"
                d="M16 0c8.837 0 16 7.163 16 16s-7.163 16-16 16c-8.837 0-16-7.163-16-16s7.163-16 16-16z"></path>
            <path fill="#000" style="fill: var(--color2, #000)"
                d="M24.328 18.002c-0.306 0.128-0.633 0.228-0.937 0.305 1.877-1.335 3.088-2.769 3.088-2.769l-0.046-0.031c-1.141 1.231-2.248 2.155-3.22 2.841-0.6 0.139-1.078 0.188-1.078 0.188s-2.248-0.061-2.592-0.046c-0.344 0.015-0.979 0.129-0.979 0.129s0.55 0.206 1.691 0.383c1.139 0.175 1.957-0.375 1.957-0.375-1.238 0.475-1.751 0.344-1.905 0.321-0.152-0.023-1.362-0.298-1.362-0.298 1.087-0.198 2.554 0.047 3.326-0.076 0.123-0.020 0.239-0.038 0.349-0.058-0.934 0.541-1.194 0.566-2.008 0.73-0.53 0.107-1.56 0.134-2.241 0.139-0.099-0.029-0.304-0.113-0.627-0.368-0.475-0.375-1.254-0.452-1.254-0.452s-0.291-0.008-0.689-0.252c-0.397-0.244-1.393-0.214-1.393-0.214s0.85 0.068 1.079 0.175c0.229 0.107 0.589 0.329 0.695 0.344 0.071 0.010 0.279 0.188 0.485 0.339-0.043-0.013-0.090-0.025-0.14-0.037-0.51-0.389-0.969-0.214-1.269-0.252-0.303-0.038-0.987-0.050-0.987-0.050 0.853 0.031 1.208 0.244 1.591 0.47 0.079 0.047 0.157 0.083 0.23 0.114-0.083-0.011-0.168-0.013-0.252-0.008-0.273-0.271-0.993-0.345-1.684-0.3-0.655 0.043-1.827-0.334-1.96-0.377 0.344 0.147 1.163 0.401 1.624 0.469 0.429 0.063 0.99 0.414 1.080 0.473-0.129 0.061-0.208 0.109-0.208 0.109l-0.367 0.068c-0.192 0.039-0.362 0.090-0.51 0.145-1.057 0.064-3.472-0.704-3.918-1.2 0 0 1.811 0.060 2.795 0.24-0.158-0.035-1.229-0.26-2.543-0.309 0 0-0.398-0.046-0.62-0.123 0 0 0.536 0.498 1.117 0.727 0.491 0.194 1.638 0.694 3.016 0.724-0.371 0.157-0.573 0.325-0.598 0.345 0.218-0.151 0.473-0.264 0.723-0.344 0.213 0 0.431-0.011 0.651-0.036 0 0 0.409-0.014 1.007 0.227-0.122 0.089-0.216 0.158-0.264 0.179-0.184 0.080-1.3 0.164-1.3 0.164s1.041-0.038 1.629-0.103c0.444-0.048 0.742-0.181 0.862-0.242-0.022 0.024-0.042 0.044-0.059 0.059-0.107 0.094-0.514 0.371-0.655 0.464 0.1-0.065 0.353-0.217 0.731-0.383 1.541 0.474 3.219 0.034 3.219 0.034-1.919 0.234-2.953-0.044-3.095-0.087 0.111-0.045 0.229-0.091 0.357-0.135 0.068-0.024 0.13-0.047 0.188-0.070 1.547 0.481 2.412 0.247 2.412 0.247-1.205 0.059-2.115-0.211-2.33-0.282 0.518-0.229 0.494-0.414 0.494-0.414s0.252-0.023 2.18-0.061c1.685-0.033 2.716-0.735 2.947-0.909 0.121-0.022 0.232-0.044 0.339-0.066-1.467 1.019-2.615 1.494-3.095 1.667 0.454-0.153 0.894-0.339 1.316-0.545-0.513 0.316-1.219 0.819-1.491 1.161-0.376 0.475-1.405 1.378-1.436 1.406 1.239-0.504 2.409-1.528 2.675-1.919 0.213-0.309 0.674-0.781 0.856-0.964 0.477-0.264 0.928-0.55 1.346-0.843 1.009-0.226 1.383-0.464 2.264-0.832 1.047-0.438 3.51-2.511 3.809-2.765-3.021 2.477-4.035 2.797-5.017 3.209l0.001 0.001zM15.981 19.065c-0.149-0.12-0.585-0.314-0.585-0.314s0.126-0.019 0.452-0.019c0.326 0 0.592 0.163 0.617 0.178-0.333-0.064-0.754-0.080-0.754-0.080s0.346 0.087 0.729 0.412c0.011 0.010 0.023 0.019 0.035 0.029-0.104-0.030-0.374-0.112-0.492-0.206h-0.001zM14.126 18.98c1.073-0.12 1.497 0.156 1.587 0.228-0.284 0.036-0.555 0.137-0.747 0.223l-0.84-0.451zM16.233 19.256c0.144 0.045 0.262 0.064 0.329 0.071 0.034 0.019 0.070 0.034 0.107 0.049-0.221 0.019-0.498 0.163-0.753 0.328-0.334 0.046-1.125-0.112-1.125-0.112 0.713-0.378 1.269-0.356 1.442-0.337zM14.164 19.744c0.294-0.061 0.537-0.073 0.636-0.053 0.18 0.040 0.816 0.072 1.012 0.082-0.132 0.089-0.255 0.18-0.36 0.256-0.095-0.066-0.549-0.344-1.287-0.285h-0.001zM15.477 20.154c0.195-0.209 0.394-0.362 0.576-0.471 0.038-0.009 0.066-0.015 0.009-0.006 0.341-0.204 0.617-0.262 0.686-0.273 0.116 0.036 0.238 0.056 0.354 0.066-0.019 0.004-0.038 0.009-0.061 0.015-0.172 0.047-0.342 0.2-0.48 0.344-0.496 0.36-1.084 0.326-1.084 0.326l0.001-0.001zM17.567 19.47c0 0-0.175 0.198-0.421 0.321-0.237 0.118-0.747 0.316-0.779 0.328 0.020-0.021 0.258-0.266 0.419-0.435 0.14-0.146 0.361-0.194 0.432-0.206 0.159 0.005 0.293-0.004 0.354-0.011l-0.006 0.003zM17.64 19.425c-0.376 0.038-0.975-0.067-1.105-0.188-0.133-0.123-0.51-0.337-0.51-0.337 0.284 0.009 0.591 0.095 0.788 0.162 0.054 0.034 0.104 0.065 0.149 0.086 0.23 0.105 0.621 0.248 0.685 0.271l-0.009 0.006h0.001zM17.714 19.386c-0.17-0.054-0.604-0.209-1.010-0.49-0.383-0.264-0.458-0.314-0.473-0.321 0.039 0.004 0.735 0.082 1.084 0.282 0.299 0.172 0.725 0.459 0.987 0.53-0.317 0.001-0.544-0.001-0.589-0.001v0.001zM20.145 20.984c-0.55 0.459-1.454 0.941-1.454 0.941s0.796-0.742 1.346-1.3c0.439-0.444 1.304-1.035 1.638-1.257 0.053-0.027 0.105-0.056 0.158-0.084-0.458 0.389-1.205 1.297-1.689 1.701z">
            </path>
            <path fill="#000" style="fill: var(--color2, #000)"
                d="M19.921 20.122c-0.053 0.018-0.105 0.035-0.159 0.052 0 0 0.055-0.015 0.159-0.052z"></path>
            <path fill="#000" style="fill: var(--color2, #000)"
                d="M15.647 20.562c-0.023 0.015-0.036 0.024-0.036 0.024s0.014-0.010 0.036-0.024z"></path>
            <path fill="#000" style="fill: var(--color2, #000)"
                d="M6.399 18.494c-0.322-0.219-0.576-0.368-0.576-0.368s0.255 0.171 0.576 0.368z"></path>
            <path fill="#000" style="fill: var(--color2, #000)"
                d="M3.794 17.798c-0.262-0.126-0.291-0.136-0.291-0.136s0.114 0.055 0.291 0.136z"></path>
            <path fill="#000" style="fill: var(--color2, #000)"
                d="M3.284 17.86c-0.243-0.105-0.444-0.189-0.444-0.189s0.194 0.084 0.444 0.189z"></path>
            <path fill="#000" style="fill: var(--color2, #000)"
                d="M7.886 19.975c0 0 0.004 0.001 0.007 0.001 0 0-0.002 0-0.007-0.001zM7.886 19.975c0 0 0.004 0.001 0.007 0.001 0 0-0.002 0-0.007-0.001zM7.886 19.975c0 0 0.004 0.001 0.007 0.001 0 0-0.002 0-0.007-0.001zM16.524 21.004c-0.226 0.019-0.057 0.008-0.718 0.397-0.662 0.39-2.337 0.372-2.337 0.372l1.297-0.627c0 0 0.554-0.188 0.922-0.192 0.367-0.003 0.612 0 0.612 0s-0.589-0.088-0.887-0.080c-0.204 0.004-0.432 0.084-0.664 0.196-0.389 0.036-1.003 0.053-1.783-0.063 0 0 0.245-0.337-0.26-0.55-0.504-0.215-0.787-0.268-1.070-0.567-0.284-0.298-0.856-0.589-1.668-0.658 0 0 1.041 0.152 1.476 0.619 0 0 0.229 0.214 0.306 0.268l0.16 0.268c0 0 0.025 0.054 0.075 0.132-0.206-0.197-0.609-0.519-1.183-0.685-0.862-0.25-0.668-0.356-1.356-0.541s-0.862-0.152-0.862-0.152c0 0 1.178 0.244 1.326 0.383 0.148 0.137 0.663 0.337 0.663 0.337s0.011 0.019 0.033 0.050c-0.307-0.071-2.181-0.526-2.709-1.058 0.053 0.057 0.306 0.308 0.901 0.565 0.258 0.11 0.428 0.223 0.553 0.332-0.195-0.080-0.685-0.281-1.037-0.424-0.444-0.182-1.050-0.634-1.409-1.010 0.059 0.066 0.39 0.441 0.715 0.718 0.094 0.081 0.166 0.135 0.228 0.182-0.111-0.063-0.247-0.126-0.407-0.177-0.254-0.080-0.686-0.328-1.040-0.545 0.164 0.112 0.346 0.243 0.522 0.382-0.25-0.11-0.729-0.312-0.997-0.383-0.303-0.079-1.237-0.546-1.575-0.717 0.272 0.144 0.925 0.493 1.212 0.683-0.362-0.034-1.292-0.444-1.768-0.662 0.12 0.058 0.288 0.14 0.525 0.258 0.189 0.093 0.328 0.172 0.44 0.246-0.099-0.007-0.293-0.030-0.553-0.098-0.215-0.056-0.612-0.213-0.923-0.342 0.357 0.154 0.806 0.356 0.852 0.413 0.063 0.079 0.431 0.446 0.67 0.576-0.384-0.008-0.991-0.215-1.141-0.268 0.137 0.055 0.668 0.259 1.016 0.329 0 0 0.168 0.045 0.383 0.264 0.178 0.183 0.532 0.378 0.833 0.443-0.164-0.010-0.283-0.024-0.283-0.024-0.53-0.349-0.929-0.31-0.966-0.306 0.035 0 0.452 0.010 1.027 0.434 0.456 0.337 0.874 0.394 1.049 0.402-0.258 0.047-0.447 0.081-0.514 0.042-0.139-0.083-1.221-0.386-1.418-0.44 0.135 0.043 0.704 0.225 1.187 0.431 1.379 0.747 2.122 0.952 2.496 0.996-0.42 0.034-0.786 0.013-0.786 0.013s-0.59-0.066-1.033 0.168c0.027-0.008 0.501-0.14 0.917-0.117 0.444 0.025 0.51-0.050 1.122 0.133 0.524 0.158 1.085 0.172 1.477 0.045-0.047 0.033-0.075 0.053-0.075 0.053s-0.179 0.077-0.475 0.204c-0.296 0.127-0.698 0.183-0.698 0.183 0.495-0.015 0.643-0.112 0.918-0.189s0.423-0.050 0.423-0.050c0.57 0.014 0.941-0.093 1.107-0.155-0.338 0.235-1.633 0.512-1.633 0.512s-0.862 0.102 0.021 0.010c0.883-0.091 1.708-0.515 1.708-0.515 1.18 0.024 1.341-0.331 1.358-0.389 0.030 0 0.060 0 0.091-0.003 0 0-0.412-0.008-0.681-0.321-0.268-0.314-0.36-0.527-0.36-0.527s0.75 0.206 0.896 0.36c0.145 0.152 0.129 0.435 0.129 0.435s0.549 0.289 1.772 0.105c-0.084 0.043-0.17 0.091-0.254 0.14-0.34 0.198-1.369 0.649-1.369 0.649s1.732-0.099 2.309-0.226c0.578-0.126 1.051-0.563 1.051-0.563s0.18-0.031 1.323-0.218c1.142-0.188 1.728-0.607 1.728-0.607-1.35 0.558-2.715 0.703-2.941 0.723l0.002 0.001zM9.335 19.641c0 0 1.096 0.23 1.363 0.409 0.147 0.202 0.408 0.516 0.72 0.708-0.106 0.011-0.886 0.076-1.323-0.338-0.469-0.444-0.76-0.781-0.76-0.781v0.001zM9.522 19.929c0.091 0.112 0.155 0.215 0.238 0.303 0.097 0.101 0.227 0.27 0.461 0.402-0.129-0.002-0.559-0.027-0.867-0.224-0.367-0.235-1.162-1.046-1.162-1.046s0.966 0.329 1.332 0.565h-0.001zM5.12 18.422c0.175 0.084 0.457 0.145 0.604 0.172 0.16 0.163 0.65 0.635 1.212 0.986-0.602-0.109-1.217-0.467-1.397-0.683-0.184-0.219-0.627-0.566-0.627-0.566s-0.036-0.025 0.209 0.091h-0.001zM4.456 18.498c-0.218-0.205-0.246-0.23-0.249-0.234 0.015 0.002 0.51 0.098 0.657 0.111 0.207 0.155 0.325 0.302 0.576 0.53-0.059-0.016-0.192-0.046-0.408-0.054-0.145-0.065-0.403-0.192-0.576-0.353zM5.333 19.283c-0.331-0.256-0.469-0.357-0.469-0.357s0.463-0.011 0.657 0.050c0.036 0.033 0.076 0.066 0.118 0.102 0.458 0.385 0.929 0.476 1.126 0.498-0.073 0-0.156 0.008-0.249 0.022-0.127 0.021-0.271 0.026-0.407 0.025-0.148-0.036-0.516-0.143-0.776-0.342v0.002zM7.923 20.022c-0.337-0.030-0.68 0.013-0.973 0.063-0.616 0.025-1.2-0.409-1.2-0.409s0.434 0.021 0.821-0.036c0.247-0.036 0.406-0.010 0.489 0.014 0.273 0.158 0.557 0.281 0.824 0.321-0.065-0.016-0.6-0.163-1.284-0.717-0.729-0.591-0.841-0.754-0.841-0.754s1.013 0.337 1.423 0.591c0.126 0.112 0.239 0.226 0.331 0.337 0.475 0.576 0.843 0.986 1.408 0.991-0.188 0.043-0.398 0.146-0.398 0.146-0.561 0.296-2.106-0.31-2.106-0.31 0.239-0.143 1.504-0.235 1.504-0.235v-0.001zM6.806 20.496c0.605 0.186 1.363 0.305 1.617 0.18 0.274-0.135 0.469-0.224 0.536-0.253 0.019 0 0.036 0 0.056-0.001 0 0-0.013-0.002-0.038-0.007 0.002-0.001 0.004-0.002 0.007-0.002-0.004 0-0.008 0-0.012 0.002-0.16-0.031-0.718-0.169-1.107-0.64-0.459-0.556-0.515-0.632-0.658-0.74 0 0 0.64 0.232 0.964 0.446 0.078 0.076 0.172 0.174 0.299 0.319 0.413 0.467 0.985 0.877 1.601 0.894-0.166 0.034-0.394 0.103-0.658 0.243-0.156 0.082-0.36 0.137-0.572 0.172-0.634 0.037-1.624-0.411-2.034-0.613zM9.846 21.39c-0.439 0.035-1.173-0.123-1.173-0.123s0.495-0.107 0.683-0.219c0.174-0.103 0.638-0.363 1.030-0.334 0.207 0.082 0.479 0.132 0.842 0.107-0.261 0.078-0.59 0.268-0.826 0.419-0.137 0.063-0.331 0.132-0.556 0.15zM11.207 21.43c-0.408 0.137-1.060 0.081-1.060 0.081s0.189-0.102 0.617-0.397c0.344-0.238 0.678-0.275 0.796-0.281 0.126 0.059 0.258 0.093 0.393 0.091-0.136 0.093-0.281 0.239-0.419 0.369-0.064 0.035-0.164 0.080-0.326 0.135l-0.001 0.001zM12.356 20.908c0.116 0.077 0.255 0.134 0.418 0.146-0.217 0.386-1.251 0.325-1.251 0.325s0.387-0.351 0.596-0.443c0.111-0.048 0.188-0.043 0.236-0.027h0.001zM12.256 20.835c0 0-0.002 0-0.003-0.001-0.067-0.016-0.14 0.002-0.216 0.042-0.184-0.026-0.656-0.129-0.982-0.516-0.362-0.429-0.406-0.481-0.412-0.489 0.030 0.008 0.785 0.216 1.425 0.769 0.050 0.065 0.113 0.133 0.189 0.195v0.001zM7.886 19.975c0 0 0.004 0.001 0.007 0.001 0 0-0.002 0-0.007-0.001zM7.886 19.975c0 0 0.004 0.001 0.007 0.001 0 0-0.002 0-0.007-0.001zM7.886 19.975c0 0 0.004 0.001 0.007 0.001 0 0-0.002 0-0.007-0.001z">
            </path>
            <path fill="#000" style="fill: var(--color2, #000)"
                d="M15.999 0c-8.836 0-15.999 7.163-15.999 15.999s7.163 15.999 15.999 15.999c8.836 0 16.001-7.163 16.001-15.999s-7.163-15.999-16.001-15.999zM15.999 31.796c-8.723 0-15.796-7.072-15.796-15.796s7.072-15.796 15.796-15.796c8.723 0 15.796 7.071 15.796 15.796s-7.072 15.796-15.796 15.796z">
            </path>
            <path fill="#221f25" style="fill: var(--color3, #221f25)"
                d="M8.69 13.126h0.319v1.744c0 0.18-0.042 0.341-0.127 0.482s-0.203 0.252-0.356 0.333c-0.153 0.081-0.334 0.121-0.54 0.121s-0.387-0.040-0.54-0.121c-0.154-0.081-0.273-0.193-0.358-0.333s-0.126-0.302-0.126-0.482v-1.744h0.319v1.719c0 0.129 0.028 0.243 0.085 0.344s0.137 0.178 0.242 0.235c0.106 0.057 0.232 0.085 0.378 0.085s0.273-0.028 0.378-0.085c0.105-0.057 0.186-0.136 0.242-0.235s0.085-0.215 0.085-0.344v-1.719zM9.646 15.761v-2.635h0.319v1.307h0.031l1.184-1.307h0.417l-1.106 1.189 1.106 1.446h-0.386l-0.916-1.225-0.329 0.37v0.854h-0.319zM12.009 15.761v-2.635h0.89c0.206 0 0.375 0.035 0.507 0.105s0.23 0.165 0.293 0.287 0.095 0.26 0.095 0.416c0 0.155-0.032 0.293-0.095 0.413s-0.161 0.214-0.292 0.283c-0.131 0.068-0.299 0.102-0.503 0.102h-0.72v-0.288h0.71c0.141 0 0.254-0.021 0.34-0.062s0.149-0.099 0.188-0.175c0.039-0.076 0.059-0.167 0.059-0.273s-0.020-0.198-0.059-0.277c-0.039-0.079-0.102-0.14-0.189-0.183s-0.201-0.066-0.344-0.066h-0.561v2.352h-0.319zM13.249 14.577l0.648 1.184h-0.37l-0.638-1.184h0.36zM14.434 15.761h-0.334l0.967-2.635h0.329l0.967 2.635h-0.334l-0.787-2.218h-0.021l-0.787 2.218zM14.558 14.731h1.348v0.283h-1.348v-0.283zM17.093 13.126v2.635h-0.319v-2.635h0.319zM18.546 15.761h-0.813v-2.635h0.849c0.256 0 0.474 0.053 0.656 0.158s0.321 0.255 0.418 0.452c0.097 0.196 0.145 0.43 0.145 0.702 0 0.274-0.049 0.511-0.147 0.709s-0.24 0.349-0.427 0.455c-0.187 0.105-0.414 0.158-0.682 0.158zM18.052 15.478h0.473c0.218 0 0.398-0.042 0.542-0.126s0.25-0.204 0.32-0.359c0.070-0.155 0.105-0.34 0.105-0.554 0-0.213-0.035-0.396-0.104-0.549s-0.173-0.273-0.311-0.355c-0.138-0.083-0.31-0.125-0.516-0.125h-0.509v2.069zM20.321 15.761h-0.334l0.967-2.635h0.329l0.967 2.635h-0.334l-0.787-2.218h-0.021l-0.787 2.218zM20.444 14.731h1.348v0.283h-1.348v-0.283z">
            </path>
        </symbol>
    </defs>
</svg>